<svg width="321" height="294" viewBox="0 0 321 294" fill="none" xmlns="http://www.w3.org/2000/svg">
<path fill-rule="evenodd" clip-rule="evenodd" d="M215.213 62.8668C227.545 68.278 237.67 76.8113 248.263 84.3963C266.097 97.5757 267.057 117.927 270.629 137.377C275.01 161.942 279.258 186.779 270.91 210.792C260.427 242.173 255.006 247.416 217.025 249.731C179.713 252.041 143.327 243.352 107.608 231.623C83.2815 223.494 67.1861 207.804 59.3884 183.405C48.0961 148.86 43.3021 114.32 52.2388 77.6276C58.9753 50.4618 81.5387 38.854 104.382 37.8282C143.771 36.3756 179.826 48.7753 215.213 62.8668Z" fill="#F5E9DB"/>
<g clip-path="url(#clip0_639_20)">
<path d="M102.792 160.202H134.965C139.304 160.202 142.812 156.682 142.812 152.328V120.324C142.812 115.971 139.304 112.451 134.965 112.451H89.4517C85.1126 112.451 81.6045 115.971 81.6045 120.324V149.04L102.792 160.202Z" fill="#FF878A"/>
<path d="M134.965 161.545H102.792C102.053 161.545 101.453 160.943 101.453 160.202C101.453 159.461 102.053 158.858 102.792 158.858H134.965C138.565 158.858 141.474 155.941 141.474 152.328V120.324C141.474 116.712 138.565 113.794 134.965 113.794H89.4514C85.851 113.794 82.9429 116.712 82.9429 120.324V149.04C82.9429 149.781 82.3428 150.383 81.6043 150.383C80.8657 150.383 80.2656 149.781 80.2656 149.04V120.324C80.2656 115.229 84.3738 111.107 89.4514 111.107H134.965C140.043 111.107 144.151 115.229 144.151 120.324V152.328C144.151 157.423 140.043 161.545 134.965 161.545Z" fill="#3D332B"/>
<path d="M108.193 155.431H132.196C135.104 155.431 137.504 153.069 137.504 150.105V122.455C137.504 119.537 135.15 117.128 132.196 117.128H92.2215C89.3134 117.128 86.9131 119.49 86.9131 122.455V151.726L108.193 155.431Z" fill="white"/>
<path d="M132.196 156.774H108.193C107.454 156.774 106.854 156.172 106.854 155.431C106.854 154.69 107.454 154.088 108.193 154.088H132.196C134.365 154.088 136.165 152.328 136.165 150.105V122.455C136.165 120.278 134.411 118.471 132.196 118.471H92.2212C90.0517 118.471 88.2515 120.231 88.2515 122.455V151.726C88.2515 152.467 87.6514 153.069 86.9129 153.069C86.1743 153.069 85.5742 152.467 85.5742 151.726V122.455C85.5742 118.796 88.5284 115.785 92.2212 115.785H132.196C135.842 115.785 138.843 118.749 138.843 122.455V150.105C138.843 153.81 135.842 156.774 132.196 156.774Z" fill="#3D332B"/>
<path d="M81.1895 190.167V208.184C81.1895 212.538 84.6976 216.058 89.0366 216.058H134.55C138.889 216.058 142.397 212.538 142.397 208.184V176.18C142.397 171.827 138.889 168.307 134.55 168.307H95.3605L81.1895 190.167Z" fill="white"/>
<path d="M134.55 217.401H89.0364C83.9588 217.401 79.8506 213.279 79.8506 208.184V190.167C79.8506 189.426 80.4507 188.824 81.1892 188.824C81.9278 188.824 82.5279 189.426 82.5279 190.167V208.184C82.5279 211.797 85.4359 214.714 89.0364 214.714H134.55C138.15 214.714 141.059 211.797 141.059 208.184V176.18C141.059 172.568 138.15 169.65 134.55 169.65H95.3603C94.6217 169.65 94.0216 169.048 94.0216 168.307C94.0216 167.565 94.6217 166.963 95.3603 166.963H134.55C139.628 166.963 143.736 171.085 143.736 176.18V208.184C143.736 213.279 139.581 217.401 134.55 217.401Z" fill="#3D332B"/>
<path d="M150.014 135.515H145.767C145.029 135.515 144.429 134.913 144.429 134.172C144.429 133.431 145.029 132.829 145.767 132.829H150.014C150.753 132.829 151.353 133.431 151.353 134.172C151.353 134.913 150.753 135.515 150.014 135.515Z" fill="#3D332B"/>
<path d="M145.767 130.421C145.444 130.421 145.075 130.282 144.798 130.004C144.29 129.494 144.29 128.614 144.798 128.105L149.045 123.844C149.552 123.335 150.429 123.335 150.937 123.844C151.445 124.353 151.445 125.233 150.937 125.743L146.69 130.004C146.46 130.282 146.136 130.421 145.767 130.421Z" fill="#3D332B"/>
<path d="M150.014 144.917C149.691 144.917 149.321 144.779 149.045 144.501L144.798 140.24C144.29 139.73 144.29 138.85 144.798 138.341C145.306 137.831 146.183 137.831 146.69 138.341L150.937 142.602C151.445 143.111 151.445 143.991 150.937 144.501C150.706 144.779 150.383 144.917 150.014 144.917Z" fill="#3D332B"/>
<path d="M77.7738 135.515H73.5271C72.7886 135.515 72.1885 134.913 72.1885 134.172C72.1885 133.431 72.7886 132.829 73.5271 132.829H77.7738C78.5124 132.829 79.1125 133.431 79.1125 134.172C79.1125 134.913 78.5124 135.515 77.7738 135.515Z" fill="#3D332B"/>
<path d="M77.7736 130.421C77.4505 130.421 77.0812 130.282 76.8043 130.004L72.5576 125.743C72.0498 125.233 72.0498 124.353 72.5576 123.844C73.0653 123.335 73.9424 123.335 74.4501 123.844L78.6968 128.105C79.2046 128.614 79.2046 129.494 78.6968 130.004C78.466 130.282 78.1429 130.421 77.7736 130.421Z" fill="#3D332B"/>
<path d="M73.5269 144.917C73.2038 144.917 72.8345 144.779 72.5576 144.501C72.0498 143.991 72.0498 143.111 72.5576 142.602L76.8043 138.341C77.312 137.831 78.1891 137.831 78.6968 138.341C79.2046 138.85 79.2046 139.73 78.6968 140.24L74.4501 144.501C74.2193 144.779 73.8962 144.917 73.5269 144.917Z" fill="#3D332B"/>
<path d="M115.624 208.092C115.485 208.184 114.054 209.25 112.3 209.25C110.454 209.25 108.792 208.092 108.792 208.092H115.624Z" fill="#FF878A"/>
<path d="M112.3 210.593C110.084 210.593 108.238 209.296 108.007 209.157C107.407 208.74 107.269 207.907 107.684 207.258C108.1 206.656 108.93 206.517 109.577 206.934C109.577 206.934 110.915 207.86 112.3 207.86C113.639 207.86 114.747 206.98 114.793 206.98C115.393 206.517 116.224 206.656 116.685 207.258C117.147 207.86 117.008 208.694 116.408 209.157C116.131 209.389 114.423 210.593 112.3 210.593Z" fill="#3D332B"/>
<path d="M112.208 206.239C111.285 206.239 110.269 208.37 107.869 208.138C104.084 207.814 100.622 200.033 99.8369 198.041L102.237 182.294C102.237 182.294 105.468 180.303 111.654 180.303C117.839 180.303 122.271 182.248 122.271 182.248L124.625 197.995C123.794 199.987 120.332 207.629 116.593 208.092C114.146 208.37 113.131 206.239 112.208 206.239Z" fill="#FF878A"/>
<path d="M116.132 209.481C114.378 209.481 113.224 208.509 112.485 207.907C112.393 207.814 112.3 207.768 112.208 207.675C112.116 207.768 112.023 207.814 111.931 207.907C111.146 208.555 109.808 209.62 107.777 209.435C103.207 209.018 99.6064 200.959 98.5909 198.505C98.4986 198.273 98.4524 198.041 98.4986 197.81L100.899 182.063C100.945 181.692 101.176 181.322 101.545 181.136C101.684 181.044 105.192 178.959 111.654 178.959C118.024 178.959 122.594 180.951 122.779 181.044C123.194 181.229 123.471 181.599 123.563 182.063L125.918 197.81C125.964 198.041 125.918 198.319 125.825 198.505C124.81 200.913 121.209 208.879 116.686 209.435C116.501 209.481 116.316 209.481 116.132 209.481ZM112.3 204.896C113.085 204.942 113.685 205.405 114.193 205.869C114.978 206.517 115.532 206.888 116.409 206.795C118.532 206.563 121.394 202.163 123.24 197.856L121.025 183.22C119.594 182.711 116.085 181.646 111.654 181.646C107.361 181.646 104.592 182.665 103.484 183.174L101.268 197.902C103.068 202.256 105.93 206.61 108.054 206.841C109.023 206.934 109.623 206.424 110.269 205.915C110.777 205.498 111.377 204.989 112.162 204.942C112.208 204.942 112.208 204.942 112.254 204.942C112.254 204.85 112.254 204.85 112.3 204.896Z" fill="#3D332B"/>
<path d="M118.21 207.443C119.087 205.544 119.78 201.237 118.856 200.172C118.164 199.338 115.902 196.05 115.302 194.984C114.517 193.502 113.871 191.511 113.871 190.955C113.871 188.408 115.487 187.574 117.702 187.898C119.964 188.222 121.303 190.353 121.303 190.353L118.21 207.443Z" fill="#FF878A"/>
<path d="M118.21 208.786C118.025 208.786 117.84 208.74 117.656 208.647C116.963 208.323 116.686 207.536 117.009 206.841C117.794 205.128 118.21 201.7 117.84 200.959C117.056 199.987 114.794 196.698 114.148 195.587C113.317 194.058 112.578 191.835 112.578 190.909C112.578 189.38 113.04 188.222 113.963 187.435C114.609 186.879 115.855 186.231 117.979 186.555C120.795 186.972 122.456 189.473 122.502 189.612C122.918 190.214 122.733 191.048 122.087 191.464C121.487 191.881 120.656 191.696 120.241 191.048C120.241 191.048 119.179 189.427 117.563 189.195C116.686 189.056 116.04 189.149 115.717 189.473C115.348 189.797 115.255 190.446 115.255 190.909C115.302 191.279 115.763 192.947 116.502 194.29C117.009 195.262 119.225 198.458 119.918 199.245C121.441 201.052 120.287 206.193 119.456 207.953C119.225 208.509 118.717 208.786 118.21 208.786Z" fill="#3D332B"/>
<path d="M116.871 192.206C117.406 192.206 117.84 191.77 117.84 191.233C117.84 190.696 117.406 190.26 116.871 190.26C116.335 190.26 115.901 190.696 115.901 191.233C115.901 191.77 116.335 192.206 116.871 192.206Z" fill="#3D332B"/>
<path d="M112.255 202.858L112.209 206.193L112.255 202.858Z" fill="#FF878A"/>
<path d="M112.209 207.583C111.47 207.583 110.87 206.98 110.87 206.239L110.916 202.905C110.916 202.164 111.516 201.562 112.255 201.562C112.993 201.562 113.594 202.164 113.594 202.905L113.547 206.239C113.547 206.98 112.947 207.583 112.209 207.583Z" fill="#3D332B"/>
<path d="M122.733 182.387C122.733 182.387 125.364 185.027 126.979 186.092C128.595 187.157 130.349 187.435 130.949 188.315C131.549 189.195 127.256 195.679 127.256 197.254C127.303 198.783 124.671 199.431 124.302 197.208C123.933 194.938 123.148 188.362 123.056 187.389C122.825 184.842 121.394 181.183 122.733 182.387Z" fill="#FF878A"/>
<path d="M125.779 199.986C124.579 199.986 123.287 199.199 122.964 197.393C122.594 195.077 121.764 188.5 121.717 187.481C121.625 186.648 121.44 185.629 121.21 184.749C120.794 182.803 120.517 181.646 121.579 180.997C121.948 180.766 122.687 180.534 123.61 181.368L123.656 181.414C123.702 181.46 126.241 183.961 127.672 184.98C128.272 185.397 128.918 185.675 129.565 185.953C130.534 186.37 131.457 186.74 132.011 187.574C132.75 188.639 132.057 190.075 130.257 193.502C129.611 194.753 128.595 196.698 128.549 197.254C128.549 198.643 127.441 199.847 125.964 199.986C125.918 199.986 125.872 199.986 125.779 199.986ZM124.118 185.536C124.21 186.138 124.349 186.694 124.395 187.25C124.487 188.222 125.272 194.799 125.641 196.976C125.687 197.208 125.733 197.3 125.779 197.3C125.826 197.3 125.918 197.3 125.964 197.254C125.964 196.235 126.703 194.753 127.995 192.298C128.549 191.233 129.334 189.704 129.611 188.917C129.334 188.778 128.918 188.593 128.641 188.454C127.949 188.176 127.118 187.806 126.287 187.25C125.595 186.787 124.856 186.185 124.118 185.536ZM128.595 197.208C128.595 197.208 128.595 197.254 128.595 197.208C128.595 197.254 128.595 197.208 128.595 197.208Z" fill="#3D332B"/>
<path d="M106.161 207.49C105.284 205.591 104.638 201.237 105.515 200.172C106.207 199.338 108.469 196.05 109.069 194.984C109.854 193.502 110.5 191.511 110.5 190.955C110.5 188.408 108.884 187.574 106.669 187.898C104.407 188.222 103.068 190.353 103.068 190.353L106.161 207.49Z" fill="#FF878A"/>
<path d="M106.161 208.833C105.654 208.833 105.192 208.555 104.961 208.045C104.177 206.332 103.023 201.098 104.5 199.292C105.146 198.505 107.362 195.309 107.915 194.336C108.654 192.993 109.116 191.326 109.162 190.955C109.162 190.492 109.069 189.844 108.7 189.519C108.377 189.241 107.685 189.149 106.854 189.241C105.238 189.473 104.223 191.048 104.177 191.094C103.761 191.696 102.93 191.881 102.33 191.511C101.73 191.094 101.545 190.26 101.915 189.658C101.961 189.566 103.623 187.018 106.438 186.601C108.562 186.277 109.762 186.926 110.454 187.481C111.377 188.269 111.839 189.427 111.839 190.955C111.839 191.881 111.101 194.105 110.27 195.633C109.67 196.745 107.408 200.033 106.577 201.006C106.208 201.747 106.577 205.22 107.362 206.934C107.685 207.629 107.362 208.416 106.715 208.74C106.577 208.787 106.392 208.833 106.161 208.833Z" fill="#3D332B"/>
<path d="M107.547 192.206C108.082 192.206 108.516 191.77 108.516 191.233C108.516 190.696 108.082 190.26 107.547 190.26C107.011 190.26 106.577 190.696 106.577 191.233C106.577 191.77 107.011 192.206 107.547 192.206Z" fill="#3D332B"/>
<path d="M101.684 182.34C101.684 182.34 99.0069 185.027 97.4374 186.092C95.8218 187.157 94.0678 187.435 93.4677 188.315C92.8676 189.195 97.1605 195.679 97.1605 197.254C97.1143 198.782 99.7454 199.431 100.115 197.208C100.484 194.938 101.269 188.361 101.361 187.389C101.592 184.842 102.977 181.183 101.684 182.34Z" fill="#FF878A"/>
<path d="M98.6374 199.987C98.5451 199.987 98.4989 199.987 98.4066 199.987C96.9295 199.848 95.8216 198.643 95.8216 197.254C95.7293 196.698 94.76 194.799 94.1137 193.502C92.3597 190.075 91.6673 188.639 92.3597 187.574C92.9136 186.74 93.8368 186.37 94.8061 185.953C95.4524 185.675 96.0986 185.397 96.6987 184.98C98.1758 183.962 100.715 181.414 100.761 181.368L100.807 181.322C101.73 180.488 102.515 180.766 102.792 180.951C103.853 181.599 103.623 182.757 103.207 184.703C103.023 185.583 102.792 186.601 102.699 187.435C102.607 188.454 101.822 195.031 101.453 197.347C101.13 199.199 99.8376 199.987 98.6374 199.987ZM98.4989 197.254C98.5451 197.3 98.6374 197.3 98.6836 197.3C98.6836 197.3 98.7759 197.208 98.7759 196.976C99.1452 194.799 99.9299 188.223 100.022 187.25C100.068 186.694 100.161 186.092 100.299 185.536C99.5606 186.185 98.822 186.833 98.1758 187.25C97.3449 187.806 96.514 188.176 95.8216 188.454C95.4985 188.593 95.1292 188.778 94.8523 188.917C95.1292 189.705 95.914 191.233 96.4679 192.298C97.7604 194.753 98.4989 196.235 98.4989 197.254Z" fill="#3D332B"/>
<path d="M112.208 202.858C111.193 202.858 109.346 200.264 109.392 199.431C109.485 198.597 111.793 198.458 112.254 198.458C112.716 198.458 114.978 198.597 115.07 199.431C115.162 200.264 113.27 202.858 112.254 202.858H112.208Z" fill="#FF878A"/>
<path d="M112.255 204.247H112.208C111.424 204.247 110.639 203.784 109.762 202.858C109.577 202.626 107.916 200.774 108.054 199.338C108.239 197.3 111.285 197.161 112.255 197.161C112.901 197.161 116.178 197.254 116.409 199.338C116.547 200.774 114.886 202.626 114.701 202.858C113.824 203.784 113.039 204.247 112.255 204.247ZM110.962 199.986C111.285 200.542 111.839 201.191 112.208 201.468C112.578 201.191 113.132 200.496 113.455 199.986C113.039 199.894 112.532 199.847 112.255 199.847C111.932 199.847 111.378 199.894 110.962 199.986Z" fill="#3D332B"/>
<path d="M104.915 126.16C105.285 126.16 107.223 124.956 112.809 124.956C118.394 124.956 119.733 126.067 120.102 126.067C120.471 126.067 123.102 122.918 125.826 122.779C128.549 122.64 126.472 131.625 126.472 131.903C126.472 132.181 130.026 135.562 129.426 140.657C128.826 145.798 119.963 150.707 112.855 150.707C105.746 150.707 96.5143 145.798 95.9142 140.657C95.3141 135.516 98.6376 132.274 98.73 131.996C98.8223 131.671 96.5143 122.64 99.2377 122.779C101.961 122.918 104.546 126.16 104.915 126.16Z" fill="#D6AD8D"/>
<path d="M112.855 152.05C105.238 152.05 95.3141 146.863 94.5755 140.842C94.0216 136.118 96.3758 132.876 97.299 131.671C97.299 131.532 97.2528 131.393 97.2066 131.301C96.4219 126.947 96.145 123.705 97.3913 122.269C97.8529 121.714 98.5453 121.436 99.2377 121.482C101.73 121.621 103.854 123.566 105.054 124.631C105.1 124.678 105.1 124.678 105.146 124.724C106.254 124.354 108.516 123.659 112.763 123.659C116.917 123.659 118.856 124.261 119.825 124.631C119.871 124.585 119.917 124.585 119.917 124.539C121.071 123.52 123.241 121.621 125.687 121.482C126.426 121.436 127.118 121.714 127.58 122.269C128.734 123.613 128.78 126.391 127.811 131.625C128.734 132.829 131.226 136.21 130.673 140.842C130.026 146.909 120.287 152.05 112.855 152.05ZM99.3762 124.168C99.1915 124.678 99.0069 126.16 99.8839 130.791C100.069 131.81 100.115 132.042 100.022 132.412C99.9301 132.69 99.7916 132.922 99.5608 133.2C98.8222 134.172 96.7912 136.766 97.2528 140.564C97.7606 144.686 106.069 149.41 112.901 149.41C119.64 149.41 127.626 144.779 128.134 140.564C128.595 136.905 126.518 134.219 125.733 133.2C125.41 132.783 125.179 132.459 125.179 131.949C125.179 131.81 125.179 131.671 125.272 131.255C126.241 126.16 125.918 124.631 125.733 124.168C124.256 124.354 122.687 125.743 121.81 126.53C121.117 127.132 120.748 127.457 120.148 127.457C119.825 127.457 119.594 127.364 119.317 127.225C118.717 126.994 117.102 126.345 112.901 126.345C108.7 126.345 106.762 127.04 105.885 127.318C105.515 127.457 105.238 127.549 104.915 127.503C104.361 127.457 103.992 127.179 103.346 126.577C102.423 125.789 100.853 124.354 99.3762 124.168Z" fill="#3D332B"/>
<path d="M112.578 138.804C112.578 138.804 112.67 143.297 114.471 144.408C116.317 145.52 120.333 143.112 120.333 143.112L112.578 138.804Z" fill="#D6AD8D"/>
<path d="M115.717 146.076C115.024 146.076 114.378 145.937 113.778 145.612C111.424 144.177 111.239 139.73 111.239 138.85C111.239 138.109 111.793 137.507 112.578 137.461C113.316 137.461 113.917 138.017 113.963 138.804C114.009 140.564 114.517 142.88 115.209 143.297C115.855 143.713 118.117 142.926 119.687 142C120.333 141.629 121.164 141.815 121.533 142.463C121.902 143.111 121.718 143.945 121.071 144.316C120.425 144.686 117.932 146.076 115.717 146.076Z" fill="#3D332B"/>
<path d="M112.486 138.804C112.486 138.804 112.393 143.297 110.593 144.408C108.747 145.52 104.869 143.204 104.869 143.204L112.486 138.804Z" fill="#D6AD8D"/>
<path d="M109.3 146.076C107.131 146.076 104.73 144.732 104.13 144.362C103.484 143.991 103.299 143.158 103.669 142.509C104.038 141.861 104.869 141.676 105.515 142.046C107.038 142.926 109.208 143.667 109.854 143.25C110.639 142.787 111.1 140.286 111.1 138.758C111.1 138.017 111.7 137.415 112.485 137.415C113.224 137.415 113.824 138.063 113.824 138.804C113.824 139.684 113.593 144.13 111.285 145.566C110.685 145.937 109.993 146.076 109.3 146.076Z" fill="#3D332B"/>
<path d="M112.532 140.333C114.367 140.333 115.855 139.462 115.855 138.388C115.855 137.313 114.367 136.442 112.532 136.442C110.696 136.442 109.208 137.313 109.208 138.388C109.208 139.462 110.696 140.333 112.532 140.333Z" fill="white"/>
<path d="M112.531 141.676C109.854 141.676 107.869 140.24 107.869 138.388C107.869 136.535 109.854 135.099 112.531 135.099C115.209 135.099 117.193 136.535 117.193 138.388C117.193 140.24 115.162 141.676 112.531 141.676ZM110.593 138.388C110.777 138.619 111.47 138.99 112.531 138.99C113.593 138.99 114.285 138.619 114.47 138.388C114.285 138.156 113.593 137.785 112.531 137.785C111.47 137.785 110.777 138.156 110.593 138.388Z" fill="#3D332B"/>
<path d="M107.038 134.914C107.803 134.914 108.423 134.292 108.423 133.524C108.423 132.757 107.803 132.135 107.038 132.135C106.273 132.135 105.653 132.757 105.653 133.524C105.653 134.292 106.273 134.914 107.038 134.914Z" fill="#3D332B"/>
<path d="M118.209 134.914C118.974 134.914 119.594 134.292 119.594 133.524C119.594 132.757 118.974 132.135 118.209 132.135C117.444 132.135 116.824 132.757 116.824 133.524C116.824 134.292 117.444 134.914 118.209 134.914Z" fill="#3D332B"/>
<path d="M52.3857 174.93L55.94 166.13C56.6324 164.37 57.6941 162.795 58.9866 161.498L72.4653 147.835C73.8501 146.446 76.0657 146.492 77.4967 147.881C78.8815 149.271 78.9276 151.309 77.5428 152.698L70.8958 159.321L80.3124 149.873C81.7896 148.391 84.236 148.391 85.7131 149.919C87.2364 151.448 87.2364 153.856 85.7593 155.338L76.8504 164.231L78.4199 162.656L87.3287 153.763C88.8058 152.281 91.2523 152.281 92.7294 153.81C94.2527 155.338 94.2527 157.747 92.7756 159.229L82.3435 169.696L102.7 149.271C104.177 147.789 106.624 147.789 108.101 149.317C109.624 150.846 109.624 153.254 108.147 154.736L88.1596 174.791L88.0211 174.93L97.6224 171.826C99.838 171.271 102.054 172.706 102.515 174.93C102.931 176.921 101.731 178.913 99.7919 179.561L82.5743 188.963L69.9265 193.085L52.3857 174.93Z" fill="white"/>
<path d="M69.9267 194.428C69.3728 194.428 68.8189 194.058 68.6342 193.502C68.4034 192.807 68.7727 192.02 69.5113 191.789L82.0206 187.713L99.0997 178.357C99.192 178.311 99.2382 178.264 99.3305 178.264C100.623 177.848 101.408 176.551 101.131 175.208C100.992 174.467 100.577 173.865 99.9306 173.494C99.3305 173.123 98.592 172.985 97.8996 173.123L88.3445 176.319C87.7906 176.504 87.1905 176.319 86.8212 175.81C86.4981 175.347 86.4981 174.698 86.8212 174.235L86.9597 174.096C87.0058 174.05 87.052 174.003 87.0982 173.957L107.085 153.903C107.547 153.439 107.778 152.837 107.778 152.143C107.778 151.448 107.501 150.846 107.039 150.336C106.578 149.873 105.931 149.595 105.239 149.595C104.593 149.595 103.946 149.827 103.485 150.29L83.1284 170.715C82.6207 171.225 81.7436 171.225 81.2359 170.715C80.9589 170.437 80.8204 170.113 80.8204 169.742C80.8204 169.418 80.9589 169.048 81.2359 168.77L91.668 158.303C92.6373 157.33 92.5912 155.755 91.6218 154.783C90.6525 153.81 89.0369 153.764 88.1137 154.736L77.6816 165.204C77.1738 165.713 76.2968 165.713 75.789 165.204C75.512 164.926 75.3736 164.601 75.3736 164.231C75.3736 163.907 75.512 163.536 75.789 163.258L84.6517 154.366C85.1133 153.903 85.3441 153.301 85.3441 152.606C85.3441 151.911 85.0671 151.309 84.6055 150.8C84.1439 150.336 83.4977 150.058 82.8053 150.058C82.1129 150.058 81.5128 150.29 81.0512 150.753L71.8193 160.248C71.3115 160.757 70.4345 160.757 69.9267 160.248C69.419 159.738 69.419 158.858 69.9267 158.349L76.5737 151.68C76.9892 151.263 77.22 150.753 77.22 150.244C77.22 149.734 76.9892 149.225 76.5737 148.762C75.6967 147.882 74.3119 147.882 73.481 148.715L60.0024 162.378C58.8022 163.583 57.879 165.018 57.2328 166.593L53.6785 175.393C53.4015 176.088 52.6168 176.412 51.9244 176.134C51.232 175.856 50.9089 175.069 51.1858 174.374L54.7401 165.574C55.5249 163.675 56.6327 161.961 58.1098 160.479L71.5885 146.816C73.481 144.917 76.5737 144.917 78.5124 146.863C79.0202 147.372 79.4356 147.974 79.6664 148.669C80.5896 147.835 81.7898 147.419 83.0361 147.419C84.4209 147.419 85.7134 147.974 86.6827 148.947C87.4213 149.688 87.929 150.661 88.1137 151.68C89.9601 150.938 92.2219 151.309 93.7452 152.837C94.3914 153.486 94.853 154.273 95.0838 155.107L101.777 148.391C102.746 147.419 104.039 146.863 105.424 146.909C106.808 146.909 108.101 147.465 109.07 148.437C110.04 149.41 110.594 150.707 110.594 152.096C110.594 153.486 110.086 154.783 109.116 155.755L92.9605 171.966L97.2533 170.53C97.2995 170.53 97.2995 170.53 97.3456 170.484C98.7766 170.113 100.254 170.391 101.5 171.178C102.746 171.966 103.577 173.216 103.854 174.652C104.362 177.292 102.885 179.885 100.346 180.765L83.2669 190.121C83.1746 190.167 83.1284 190.214 83.0361 190.214L70.3883 194.336C70.2037 194.382 70.0652 194.428 69.9267 194.428Z" fill="#3D332B"/>
<path d="M50.8914 174.509L46.3545 179.061L66.232 199.006L70.7689 194.453L50.8914 174.509Z" fill="white"/>
<path d="M66.2335 200.357C65.8642 200.357 65.5411 200.218 65.2642 199.94L45.4154 180.025C45.1846 179.793 45 179.422 45 179.052C45 178.681 45.1385 178.357 45.4154 178.079L49.9391 173.54C50.4469 173.031 51.3239 173.031 51.8317 173.54L71.6804 193.456C72.1881 193.965 72.1881 194.845 71.6804 195.355L67.1567 199.894C66.9259 200.218 66.5566 200.357 66.2335 200.357ZM48.2312 179.052L66.2335 197.069L68.8646 194.429L50.9085 176.412L48.2312 179.052Z" fill="#3D332B"/>
<path d="M179.176 152.456V150.372C179.176 145.833 182.361 142.127 186.238 142.127H188.085H232.906C236.783 142.127 239.968 145.833 239.968 150.372V152.456H179.176Z" fill="#EA8F51"/>
<path d="M239.922 153.799C239.183 153.799 238.583 153.197 238.583 152.456V150.371C238.583 146.574 236.044 143.47 232.859 143.47H186.238C183.099 143.47 180.514 146.574 180.514 150.371V152.456C180.514 153.197 179.914 153.799 179.176 153.799C178.437 153.799 177.837 153.197 177.837 152.456V150.371C177.837 145.091 181.622 140.784 186.238 140.784H232.906C237.522 140.784 241.307 145.091 241.307 150.371V152.456C241.26 153.197 240.66 153.799 239.922 153.799Z" fill="#3D332B"/>
<path d="M179.176 152.456V182.838C179.176 187.377 182.361 191.083 186.238 191.083H205.995H238.122L239.968 164.359V152.456H179.176Z" fill="white"/>
<path d="M238.122 192.426H186.238C181.622 192.426 177.837 188.118 177.837 182.838V152.456C177.837 151.714 178.437 151.112 179.176 151.112C179.914 151.112 180.514 151.714 180.514 152.456V182.838C180.514 186.636 183.053 189.739 186.238 189.739H236.875L238.629 164.312V152.456C238.629 151.714 239.229 151.112 239.968 151.112C240.707 151.112 241.307 151.714 241.307 152.456V164.359C241.307 164.405 241.307 164.405 241.307 164.451L239.46 191.175C239.414 191.916 238.814 192.426 238.122 192.426Z" fill="#3D332B"/>
<path d="M227.966 147.222C226.766 147.222 225.797 146.249 225.797 145.045V139.163C225.797 137.959 226.766 136.986 227.966 136.986C229.167 136.986 230.136 137.959 230.136 139.163V145.045C230.136 146.249 229.167 147.222 227.966 147.222Z" fill="white"/>
<path d="M227.966 148.565C226.027 148.565 224.458 146.99 224.458 145.045V139.163C224.458 137.218 226.027 135.643 227.966 135.643C229.905 135.643 231.474 137.218 231.474 139.163V145.045C231.474 146.99 229.905 148.565 227.966 148.565ZM227.966 138.329C227.505 138.329 227.135 138.7 227.135 139.163V145.045C227.135 145.508 227.505 145.879 227.966 145.879C228.428 145.879 228.797 145.508 228.797 145.045V139.163C228.797 138.7 228.428 138.329 227.966 138.329Z" fill="#3D332B"/>
<path d="M190.715 147.222C189.515 147.222 188.546 146.249 188.546 145.045V139.163C188.546 137.959 189.515 136.986 190.715 136.986C191.916 136.986 192.885 137.959 192.885 139.163V145.045C192.885 146.249 191.916 147.222 190.715 147.222Z" fill="white"/>
<path d="M190.715 148.565C188.776 148.565 187.207 146.99 187.207 145.045V139.163C187.207 137.218 188.776 135.643 190.715 135.643C192.654 135.643 194.223 137.218 194.223 139.163V145.045C194.223 146.99 192.654 148.565 190.715 148.565ZM190.715 138.329C190.254 138.329 189.884 138.7 189.884 139.163V145.045C189.884 145.508 190.254 145.879 190.715 145.879C191.177 145.879 191.546 145.508 191.546 145.045V139.163C191.546 138.7 191.177 138.329 190.715 138.329Z" fill="#3D332B"/>
<path d="M239.922 153.799H179.176C178.437 153.799 177.837 153.197 177.837 152.456C177.837 151.714 178.437 151.112 179.176 151.112H239.922C240.66 151.112 241.26 151.714 241.26 152.456C241.26 153.197 240.66 153.799 239.922 153.799Z" fill="#3D332B"/>
<path d="M190.669 163.154C192.224 163.154 193.485 161.91 193.485 160.375C193.485 158.84 192.224 157.596 190.669 157.596C189.114 157.596 187.854 158.84 187.854 160.375C187.854 161.91 189.114 163.154 190.669 163.154Z" fill="white"/>
<path d="M190.669 164.497C188.361 164.497 186.515 162.645 186.515 160.329C186.515 158.06 188.361 156.161 190.669 156.161C192.977 156.161 194.823 158.013 194.823 160.329C194.823 162.645 192.977 164.497 190.669 164.497ZM190.669 158.893C189.838 158.893 189.192 159.542 189.192 160.329C189.192 161.116 189.838 161.765 190.669 161.765C191.5 161.765 192.146 161.116 192.146 160.329C192.146 159.588 191.5 158.893 190.669 158.893Z" fill="#3D332B"/>
<path d="M190.901 173.76C192.456 173.76 193.716 172.516 193.716 170.982C193.716 169.447 192.456 168.203 190.901 168.203C189.346 168.203 188.085 169.447 188.085 170.982C188.085 172.516 189.346 173.76 190.901 173.76Z" fill="white"/>
<path d="M190.9 175.15C188.592 175.15 186.746 173.297 186.746 170.981C186.746 168.712 188.592 166.813 190.9 166.813C193.208 166.813 195.055 168.666 195.055 170.981C195.055 173.297 193.162 175.15 190.9 175.15ZM190.9 169.546C190.07 169.546 189.423 170.194 189.423 170.981C189.423 171.769 190.07 172.417 190.9 172.417C191.731 172.417 192.378 171.769 192.378 170.981C192.378 170.194 191.685 169.546 190.9 169.546Z" fill="#3D332B"/>
<path d="M190.901 185.061C192.456 185.061 193.716 183.817 193.716 182.282C193.716 180.748 192.456 179.503 190.901 179.503C189.346 179.503 188.085 180.748 188.085 182.282C188.085 183.817 189.346 185.061 190.901 185.061Z" fill="white"/>
<path d="M190.9 186.405C188.592 186.405 186.746 184.552 186.746 182.236C186.746 179.967 188.592 178.068 190.9 178.068C193.208 178.068 195.055 179.92 195.055 182.236C195.055 184.552 193.162 186.405 190.9 186.405ZM190.9 180.8C190.07 180.8 189.423 181.449 189.423 182.236C189.423 183.024 190.07 183.672 190.9 183.672C191.731 183.672 192.378 183.024 192.378 182.236C192.378 181.449 191.685 180.8 190.9 180.8Z" fill="#3D332B"/>
<path d="M243.799 165.933L246.291 163.432C249.43 160.282 254.923 160.56 258.478 164.127C262.032 167.693 262.401 173.158 259.262 176.354L256.677 178.947L243.799 165.933Z" fill="white"/>
<path d="M256.677 180.244C256.354 180.244 255.985 180.105 255.754 179.874C255.246 179.364 255.246 178.484 255.754 177.975L258.339 175.381C259.585 174.131 260.185 172.371 260.093 170.472C259.955 168.48 259.078 166.581 257.6 165.099C256.123 163.617 254.185 162.737 252.246 162.645C250.307 162.552 248.599 163.154 247.353 164.405L244.86 166.906C244.353 167.415 243.475 167.415 242.968 166.906C242.46 166.396 242.46 165.516 242.968 165.007L245.46 162.506C247.261 160.699 249.707 159.773 252.43 159.958C255.062 160.097 257.6 161.255 259.539 163.2C261.478 165.146 262.678 167.693 262.816 170.333C263.001 173.019 262.078 175.52 260.324 177.327L257.739 179.92C257.323 180.105 257 180.244 256.677 180.244Z" fill="#3D332B"/>
<path d="M220.303 166.118L218.226 164.034C215.087 160.885 209.594 161.163 206.04 164.729C202.486 168.295 202.116 173.76 205.255 176.956L207.84 179.55L220.303 166.118Z" fill="white"/>
<path d="M207.887 180.847C207.563 180.847 207.194 180.708 206.917 180.43L204.332 177.836C202.532 176.03 201.655 173.529 201.84 170.842C202.024 168.202 203.178 165.655 205.117 163.71C207.056 161.765 209.594 160.607 212.226 160.468C214.903 160.329 217.395 161.209 219.196 163.015L221.273 165.099C221.781 165.609 221.781 166.489 221.273 166.998C220.765 167.508 219.888 167.508 219.38 166.998L217.303 164.914C216.057 163.664 214.303 163.015 212.41 163.154C210.425 163.247 208.533 164.127 207.056 165.609C205.579 167.091 204.702 168.99 204.563 170.981C204.425 172.927 205.071 174.64 206.317 175.891L208.902 178.484C209.41 178.994 209.41 179.874 208.902 180.383C208.579 180.754 208.21 180.847 207.887 180.847Z" fill="#3D332B"/>
<path d="M248.323 168.758C236.829 159.819 220.35 161.95 211.441 173.436C202.533 184.969 204.656 201.503 216.104 210.442C216.657 210.905 217.258 211.276 217.858 211.693L215.227 217.575C214.857 218.408 215.227 219.427 216.057 219.798C216.888 220.168 217.904 219.798 218.273 218.964L220.766 213.36C228.105 216.926 236.599 216.787 243.707 213.267L246.246 218.918C246.661 219.89 247.815 220.307 248.785 219.89C249.754 219.474 250.169 218.316 249.754 217.343L247.077 211.322C249.246 209.794 251.231 207.941 252.985 205.718C261.894 194.232 259.817 177.697 248.323 168.758Z" fill="#EA8F51"/>
<path d="M248.092 221.419C247.723 221.419 247.307 221.326 246.938 221.187C246.107 220.863 245.461 220.261 245.138 219.473L243.153 215.073C236.275 217.991 228.382 218.037 221.55 215.12L219.611 219.473C219.288 220.214 218.688 220.77 217.903 221.048C217.165 221.326 216.334 221.326 215.595 221.002C214.072 220.307 213.38 218.501 214.072 216.972L216.242 212.109C215.919 211.878 215.642 211.646 215.365 211.461C209.548 206.922 205.81 200.391 204.886 193.027C203.963 185.663 205.948 178.392 210.472 172.556C214.995 166.72 221.504 162.969 228.843 162.042C236.183 161.116 243.43 163.108 249.246 167.647C255.062 172.185 258.801 178.716 259.724 186.08C260.647 193.444 258.663 200.716 254.139 206.551C252.616 208.543 250.862 210.257 248.877 211.739L251.138 216.787C251.508 217.574 251.508 218.454 251.231 219.288C250.908 220.122 250.308 220.77 249.523 221.094C248.969 221.326 248.554 221.419 248.092 221.419ZM243.799 211.97C243.938 211.97 244.122 212.017 244.261 212.063C244.584 212.202 244.861 212.433 245.045 212.758L247.584 218.408C247.723 218.686 248.046 218.825 248.369 218.686C248.554 218.593 248.646 218.454 248.692 218.362C248.738 218.269 248.784 218.084 248.692 217.899L246.015 211.878C245.738 211.275 245.922 210.581 246.476 210.21C248.6 208.728 250.492 206.968 252.062 204.93C256.124 199.65 257.924 193.074 257.093 186.45C256.262 179.827 252.893 173.899 247.63 169.823C242.368 165.748 235.813 163.941 229.213 164.775C222.612 165.609 216.703 168.99 212.641 174.27C208.579 179.55 206.779 186.126 207.61 192.749C208.441 199.372 211.81 205.301 217.073 209.377C217.58 209.747 218.088 210.164 218.734 210.581C219.288 210.951 219.473 211.646 219.242 212.248L216.611 218.13C216.519 218.315 216.611 218.501 216.796 218.593C216.888 218.64 217.026 218.64 217.073 218.593C217.119 218.593 217.211 218.547 217.257 218.408L219.75 212.804C219.888 212.48 220.165 212.202 220.535 212.109C220.858 211.97 221.227 212.017 221.596 212.155C228.428 215.444 236.552 215.444 243.384 212.063C243.384 211.97 243.614 211.97 243.799 211.97Z" fill="#3D332B"/>
<path d="M248.033 201.827C254.779 193.093 253.192 180.525 244.487 173.756C235.782 166.986 223.256 168.579 216.51 177.313C209.763 186.047 211.351 198.615 220.055 205.384C228.76 212.154 241.286 210.561 248.033 201.827Z" fill="white"/>
<path d="M232.259 210.906C227.69 210.906 223.12 209.47 219.242 206.459C214.765 202.986 211.903 197.937 211.164 192.287C210.472 186.636 211.995 181.032 215.457 176.54C218.919 172.047 223.951 169.175 229.582 168.434C235.214 167.74 240.799 169.268 245.276 172.742C254.555 179.967 256.262 193.398 249.062 202.708C244.907 208.034 238.629 210.906 232.259 210.906ZM232.306 170.889C231.521 170.889 230.736 170.935 229.951 171.028C225.012 171.676 220.627 174.178 217.581 178.114C214.534 182.051 213.195 186.961 213.842 191.87C214.488 196.826 216.98 201.226 220.904 204.282C229.028 210.581 240.707 209.099 246.984 200.948C253.262 192.796 251.785 181.078 243.661 174.78C240.383 172.232 236.414 170.889 232.306 170.889Z" fill="#3D332B"/>
<path d="M231.567 189.832C230.829 189.832 230.229 189.23 230.229 188.489V174.501C230.229 173.76 230.829 173.158 231.567 173.158C232.306 173.158 232.906 173.76 232.906 174.501V188.489C232.906 189.23 232.306 189.832 231.567 189.832Z" fill="#3D332B"/>
<path d="M242.322 192.055H233.968C233.229 192.055 232.629 191.453 232.629 190.712C232.629 189.971 233.229 189.369 233.968 189.369H242.322C243.061 189.369 243.661 189.971 243.661 190.712C243.661 191.453 243.061 192.055 242.322 192.055Z" fill="#3D332B"/>
<path d="M231.864 192.931C233.084 192.844 234.004 191.781 233.917 190.556C233.83 189.331 232.771 188.409 231.55 188.496C230.329 188.583 229.41 189.646 229.497 190.871C229.583 192.096 230.643 193.018 231.864 192.931Z" fill="white"/>
<path d="M231.706 194.278C230.829 194.278 230.044 193.954 229.352 193.398C228.613 192.75 228.198 191.916 228.151 190.943C228.105 189.971 228.382 189.044 229.028 188.35C229.675 187.609 230.506 187.192 231.475 187.146C232.444 187.099 233.367 187.377 234.06 188.026C234.798 188.674 235.214 189.508 235.26 190.48C235.306 191.453 235.029 192.379 234.383 193.074C233.737 193.815 232.906 194.232 231.937 194.278C231.89 194.278 231.798 194.278 231.706 194.278ZM231.706 189.832H231.66C231.429 189.832 231.198 189.971 231.059 190.156C230.921 190.341 230.829 190.573 230.829 190.804C230.829 191.036 230.967 191.268 231.152 191.407C231.336 191.546 231.567 191.638 231.798 191.638C232.029 191.638 232.26 191.499 232.398 191.314C232.537 191.129 232.629 190.897 232.629 190.666C232.629 190.434 232.49 190.202 232.306 190.063C232.121 189.878 231.937 189.832 231.706 189.832Z" fill="#3D332B"/>
</g>
<path d="M205.653 89.0723V32.3236C205.653 29.9591 204.084 28.0582 202.1 28.0582H158.821C156.837 28.0582 155.269 29.9591 155.269 32.3236V45.7226V48.9217V54.5316V58.5652V109.704C155.269 112.068 156.837 113.969 158.821 113.969H192.872L205.653 89.0723Z" fill="white"/>
<path d="M192.872 115.314H158.821C156.145 115.314 153.931 112.81 153.931 109.704V32.3233C153.931 29.217 156.145 26.7134 158.821 26.7134H202.1C204.776 26.7134 206.991 29.217 206.991 32.3233V89.072C206.991 89.8138 206.391 90.4166 205.653 90.4166C204.915 90.4166 204.315 89.8138 204.315 89.072V32.3233C204.315 30.747 203.3 29.4025 202.1 29.4025H158.821C157.622 29.4025 156.607 30.747 156.607 32.3233V109.704C156.607 111.28 157.622 112.625 158.821 112.625H192.872C193.611 112.625 194.21 113.227 194.21 113.969C194.21 114.711 193.611 115.314 192.872 115.314Z" fill="#3D332B"/>
<path d="M192.872 115.313H158.821C156.145 115.313 153.931 112.81 153.931 109.703V58.5647C153.931 57.8229 154.53 57.2202 155.269 57.2202C156.007 57.2202 156.607 57.8229 156.607 58.5647V109.703C156.607 111.28 157.622 112.624 158.821 112.624H192.872C193.611 112.624 194.21 113.227 194.21 113.969C194.21 114.711 193.611 115.313 192.872 115.313Z" fill="#3D332B"/>
<path d="M155.315 55.8762C154.576 55.8762 153.977 55.2734 153.977 54.5316V48.9217C153.977 48.1799 154.576 47.5771 155.315 47.5771C156.053 47.5771 156.653 48.1799 156.653 48.9217V54.5316C156.653 55.2734 156.053 55.8762 155.315 55.8762Z" fill="#3D332B"/>
<path d="M205.653 90.4166C204.915 90.4166 204.315 89.8138 204.315 89.072V32.3233C204.315 30.747 203.3 29.4025 202.1 29.4025H158.821C157.622 29.4025 156.607 30.747 156.607 32.3233V45.7223C156.607 46.4641 156.007 47.0669 155.269 47.0669C154.53 47.0669 153.931 46.4641 153.931 45.7223V32.3233C153.931 29.217 156.145 26.7134 158.821 26.7134H202.1C204.776 26.7134 206.991 29.217 206.991 32.3233V89.072C207.037 89.8138 206.437 90.4166 205.653 90.4166Z" fill="#3D332B"/>
<path d="M203.9 126.58L193.38 106.459L185.075 77.5742C184.198 74.607 185.859 71.4542 188.812 70.527C191.627 69.5997 194.672 71.037 195.825 73.7724L197.256 76.9715L198.64 80.0315L205.607 95.5632L205.699 95.7486L209.852 85.6878L205.838 76.1369L205.791 54.3462L219.218 73.6797L221.156 76.6469C222.494 78.6406 223.232 80.9587 223.232 83.3696L223.14 115.128L226.693 123.845L203.9 126.58Z" fill="white"/>
<path d="M203.9 127.925C203.439 127.925 202.931 127.646 202.7 127.183L192.181 107.061C192.134 106.968 192.088 106.876 192.088 106.829L183.783 77.945C182.722 74.2359 184.752 70.4342 188.397 69.2287C191.904 68.116 195.595 69.7851 197.071 73.2159L205.699 92.364L208.468 85.6413L204.684 76.6468C204.592 76.4614 204.592 76.3223 204.592 76.1368L204.546 54.3461C204.546 53.7434 204.915 53.2334 205.469 53.0479C206.022 52.8625 206.622 53.0943 206.991 53.5579L220.418 72.8914C220.418 72.8914 220.418 72.8914 220.418 72.9378L222.356 75.905C223.878 78.1305 224.663 80.7268 224.663 83.3695L224.57 114.85L228.031 123.335C228.308 124.03 227.985 124.818 227.293 125.096C226.601 125.375 225.816 125.05 225.539 124.355L221.987 115.638C221.941 115.453 221.894 115.314 221.894 115.128L221.987 83.3695C221.987 81.2368 221.341 79.1504 220.141 77.3886C220.141 77.3886 220.141 77.3886 220.141 77.3423L218.203 74.375L207.268 58.5651L207.314 75.7659L211.236 85.0386C211.375 85.3631 211.375 85.734 211.236 86.0586L207.084 96.1194C206.899 96.5831 206.438 96.9076 205.93 96.954C205.423 97.0003 204.961 96.7221 204.684 96.3049L204.592 96.1194C204.546 96.0731 204.546 96.0267 204.5 95.9803L194.718 74.1896C194.718 74.1896 194.718 74.1896 194.718 74.1432C193.842 72.0105 191.535 70.9441 189.366 71.686C187.105 72.4278 185.859 74.7923 186.505 77.1105L194.764 105.856L205.192 125.838C205.515 126.487 205.284 127.322 204.638 127.646C204.315 127.878 204.131 127.925 203.9 127.925Z" fill="#3D332B"/>
<path d="M186.505 35.0128H176.908C176.17 35.0128 175.57 34.4101 175.57 33.6683C175.57 32.9265 176.17 32.3237 176.908 32.3237H186.505C187.244 32.3237 187.843 32.9265 187.843 33.6683C187.843 34.4101 187.244 35.0128 186.505 35.0128Z" fill="#3D332B"/>
<path d="M188.904 106.505H160.898C160.159 106.505 159.56 105.902 159.56 105.16C159.56 104.419 160.159 103.816 160.898 103.816H188.858C189.596 103.816 190.196 104.419 190.196 105.16C190.242 105.902 189.643 106.505 188.904 106.505Z" fill="#3D332B"/>
<path d="M186.505 35.0128H176.908C176.17 35.0128 175.57 34.4101 175.57 33.6683C175.57 32.9265 176.17 32.3237 176.908 32.3237H186.505C187.244 32.3237 187.843 32.9265 187.843 33.6683C187.843 34.4101 187.244 35.0128 186.505 35.0128Z" fill="#3D332B"/>
<path d="M188.904 106.505H160.898C160.159 106.505 159.56 105.902 159.56 105.16C159.56 104.419 160.159 103.816 160.898 103.816H188.858C189.596 103.816 190.196 104.419 190.196 105.16C190.242 105.902 189.643 106.505 188.904 106.505Z" fill="#3D332B"/>
<path d="M170.495 80.2632H164.128C162.79 80.2632 161.729 79.1968 161.729 77.8523C161.729 76.5078 162.79 75.4414 164.128 75.4414H170.541C171.879 75.4414 172.94 76.5078 172.94 77.8523C172.894 79.1968 171.833 80.2632 170.495 80.2632Z" fill="#EA8F51"/>
<path d="M170.495 81.6075H164.128C162.052 81.6075 160.391 79.9384 160.391 77.8521C160.391 75.7657 162.052 74.0967 164.128 74.0967H170.541C172.618 74.0967 174.279 75.7657 174.279 77.8521C174.233 79.8921 172.571 81.6075 170.495 81.6075ZM164.128 76.7857C163.528 76.7857 163.067 77.2494 163.067 77.8521C163.067 78.4548 163.528 78.9185 164.128 78.9185H170.541C171.141 78.9185 171.603 78.4548 171.603 77.8521C171.603 77.2494 171.141 76.7857 170.541 76.7857H164.128Z" fill="#3D332B"/>
<path d="M170.495 89.0723H164.128C162.79 89.0723 161.729 88.0059 161.729 86.6614C161.729 85.3168 162.79 84.2505 164.128 84.2505H170.541C171.879 84.2505 172.94 85.3168 172.94 86.6614C172.894 88.0059 171.833 89.0723 170.495 89.0723Z" fill="#EA8F51"/>
<path d="M170.495 90.4166H164.128C162.052 90.4166 160.391 88.7475 160.391 86.6612C160.391 84.5748 162.052 82.9058 164.128 82.9058H170.541C172.618 82.9058 174.279 84.5748 174.279 86.6612C174.233 88.7475 172.571 90.4166 170.495 90.4166ZM164.128 85.5948C163.528 85.5948 163.067 86.0585 163.067 86.6612C163.067 87.2639 163.528 87.7275 164.128 87.7275H170.541C171.141 87.7275 171.603 87.2639 171.603 86.6612C171.603 86.0585 171.141 85.5948 170.541 85.5948H164.128Z" fill="#3D332B"/>
<path d="M164.128 97.9272C162.79 97.9272 161.729 96.8609 161.729 95.5163C161.729 94.1718 162.79 93.1055 164.128 93.1055H170.541C171.879 93.1055 172.94 94.1718 172.94 95.5163C172.94 96.8609 171.879 97.9272 170.541 97.9272H168.096H164.128Z" fill="#F0E6FF"/>
<path d="M170.541 99.2721H168.096C167.358 99.2721 166.758 98.6694 166.758 97.9276C166.758 97.1857 167.358 96.583 168.096 96.583H170.541C171.141 96.583 171.603 96.1194 171.603 95.5167C171.603 94.9139 171.141 94.4503 170.541 94.4503H164.128C163.528 94.4503 163.067 94.9139 163.067 95.5167C163.067 96.1194 163.528 96.583 164.128 96.583C164.866 96.583 165.466 97.1857 165.466 97.9276C165.466 98.6694 164.866 99.2721 164.128 99.2721C162.052 99.2721 160.391 97.603 160.391 95.5167C160.391 93.4303 162.052 91.7612 164.128 91.7612H170.541C172.618 91.7612 174.279 93.4303 174.279 95.5167C174.279 97.603 172.618 99.2721 170.541 99.2721Z" fill="#3D332B"/>
<path d="M184.89 99.2721H176.077C175.339 99.2721 174.739 98.6694 174.739 97.9275C174.739 97.1857 175.339 96.583 176.077 96.583H184.89C185.628 96.583 186.228 97.1857 186.228 97.9275C186.228 98.6694 185.628 99.2721 184.89 99.2721Z" fill="#3D332B"/>
<path d="M182.491 90.4171H176.077C175.339 90.4171 174.739 89.8144 174.739 89.0726C174.739 88.3307 175.339 87.728 176.077 87.728H182.491C183.229 87.728 183.829 88.3307 183.829 89.0726C183.829 89.8144 183.229 90.4171 182.491 90.4171Z" fill="#3D332B"/>
<path d="M180.876 81.6075H176.077C175.339 81.6075 174.739 81.0048 174.739 80.263C174.739 79.5212 175.339 78.9185 176.077 78.9185H180.876C181.614 78.9185 182.214 79.5212 182.214 80.263C182.214 81.0048 181.614 81.6075 180.876 81.6075Z" fill="#3D332B"/>
<path d="M180.876 71.0371H160.113C159.375 71.0371 158.775 70.4344 158.775 69.6926V40.2982C158.775 39.5564 159.375 38.9537 160.113 38.9537H200.07C200.808 38.9537 201.408 39.5564 201.408 40.2982V67.5598C201.408 68.3017 200.808 68.9044 200.07 68.9044C199.332 68.9044 198.732 68.3017 198.732 67.5598V41.6427H161.451V68.348H180.876C181.614 68.348 182.214 68.9508 182.214 69.6926C182.214 70.4344 181.614 71.0371 180.876 71.0371Z" fill="#3D332B"/>
<path d="M180.092 65.7517C183.43 65.7517 186.136 63.0324 186.136 59.6781C186.136 56.3237 183.43 53.6045 180.092 53.6045C176.754 53.6045 174.048 56.3237 174.048 59.6781C174.048 63.0324 176.754 65.7517 180.092 65.7517Z" fill="#D6AD8D"/>
<path d="M180.092 67.096C176.032 67.096 172.71 63.7579 172.71 59.6779C172.71 55.5979 176.032 52.2598 180.092 52.2598C184.153 52.2598 187.475 55.5979 187.475 59.6779C187.521 63.7579 184.199 67.096 180.092 67.096ZM180.092 54.9025C177.508 54.9025 175.386 57.0352 175.386 59.6315C175.386 62.2279 177.508 64.3606 180.092 64.3606C182.676 64.3606 184.799 62.2279 184.799 59.6315C184.799 57.0352 182.722 54.9025 180.092 54.9025Z" fill="#3D332B"/>
<path d="M186.92 48.2729C186.367 50.0347 184.752 51.101 183.275 50.6838C181.845 50.2665 181.107 48.4583 181.707 46.6965C182.26 44.9347 183.875 43.8684 185.352 44.2857C186.736 44.7493 187.474 46.5111 186.92 48.2729Z" fill="#D6AD8D"/>
<path d="M183.922 52.1212C183.552 52.1212 183.229 52.0748 182.907 51.9821C181.938 51.7039 181.153 51.0085 180.692 50.0812C180.092 48.9685 180 47.5776 180.415 46.2794C181.199 43.8222 183.552 42.3849 185.721 42.9876C186.69 43.2658 187.474 43.9613 187.936 44.8885C188.536 46.0012 188.628 47.3921 188.213 48.6903C187.52 50.7303 185.721 52.1212 183.922 52.1212ZM184.66 45.5376C184.014 45.5376 183.276 46.1867 182.999 47.114C182.814 47.7167 182.814 48.3658 183.091 48.8294C183.183 49.0149 183.368 49.293 183.691 49.3858C184.429 49.6176 185.306 48.9221 185.629 47.8558C185.813 47.2531 185.813 46.604 185.536 46.1403C185.444 45.9549 185.26 45.6767 184.937 45.584C184.844 45.5376 184.752 45.5376 184.66 45.5376Z" fill="#3D332B"/>
<path d="M191.72 54.6709C190.659 55.6445 189.229 55.7372 188.49 54.8563C187.752 53.9754 187.983 52.4918 189.044 51.5645C190.105 50.5909 191.536 50.4982 192.274 51.3791C193.012 52.2136 192.781 53.6973 191.72 54.6709Z" fill="#D6AD8D"/>
<path d="M189.828 56.8034C189.782 56.8034 189.69 56.8034 189.644 56.8034C188.767 56.7571 187.983 56.3862 187.429 55.7371C186.183 54.2998 186.46 52.028 188.075 50.5444C188.905 49.7562 190.013 49.339 191.028 49.4317C191.904 49.4781 192.689 49.849 193.243 50.4981C194.488 51.9353 194.211 54.2071 192.597 55.6907C191.812 56.3862 190.843 56.8034 189.828 56.8034ZM190.889 52.1208C190.566 52.1208 190.243 52.2598 189.92 52.538C189.367 53.048 189.275 53.7435 189.459 53.9753C189.505 54.068 189.644 54.1144 189.782 54.1144C190.105 54.1144 190.474 53.9753 190.797 53.6971C191.351 53.1871 191.443 52.4917 191.259 52.2599C191.212 52.1671 191.074 52.1208 190.936 52.1208C190.889 52.1208 190.889 52.1208 190.889 52.1208Z" fill="#3D332B"/>
<path d="M168.465 54.6709C169.526 55.6445 170.956 55.7372 171.695 54.8563C172.433 53.9754 172.202 52.4918 171.141 51.5645C170.08 50.5909 168.649 50.4982 167.911 51.3791C167.173 52.2136 167.45 53.6973 168.465 54.6709Z" fill="#D6AD8D"/>
<path d="M170.357 56.804C169.388 56.804 168.373 56.3867 167.589 55.6912C165.974 54.2076 165.697 51.9358 166.943 50.4986C167.496 49.8495 168.281 49.4786 169.157 49.4322C170.219 49.3858 171.28 49.8031 172.11 50.5449C173.725 52.0285 174.002 54.3003 172.756 55.7376C172.203 56.3867 171.418 56.7576 170.541 56.804C170.495 56.804 170.403 56.804 170.357 56.804ZM169.388 53.6976C169.711 53.9758 170.08 54.1613 170.403 54.1149C170.541 54.1149 170.68 54.0685 170.726 53.9758C170.911 53.744 170.864 53.0485 170.265 52.5385C169.942 52.2604 169.573 52.0749 169.25 52.1213C169.111 52.1213 168.973 52.1676 168.927 52.2604C168.742 52.4922 168.834 53.1413 169.388 53.6976Z" fill="#3D332B"/>
<path d="M173.309 48.2729C173.863 50.0347 175.478 51.101 176.954 50.6838C178.385 50.2665 179.123 48.4583 178.523 46.6965C177.969 44.9347 176.354 43.8684 174.878 44.2857C173.448 44.7493 172.709 46.5111 173.309 48.2729Z" fill="#D6AD8D"/>
<path d="M176.262 52.1211C174.463 52.1211 172.663 50.7765 172.018 48.6902C171.602 47.392 171.695 46.0011 172.294 44.8884C172.756 43.9611 173.586 43.312 174.509 42.9875C176.631 42.3384 179.031 43.822 179.815 46.2793C180.23 47.5774 180.138 48.9683 179.538 50.0811C179.077 51.0083 178.246 51.6574 177.324 51.982C176.954 52.0747 176.631 52.1211 176.262 52.1211ZM174.555 47.8556C174.878 48.8756 175.801 49.5711 176.493 49.3856C176.816 49.2929 177.001 49.0147 177.093 48.8293C177.324 48.3656 177.37 47.7165 177.185 47.1138C176.862 46.0938 175.939 45.3984 175.247 45.5838C174.924 45.6766 174.74 45.9547 174.647 46.1402C174.417 46.6038 174.371 47.2529 174.555 47.8556Z" fill="#3D332B"/>
<defs>
<clipPath id="clip0_639_20">
<rect width="238" height="181" fill="white" transform="translate(45 43.0703)"/>
</clipPath>
</defs>
</svg>
