<svg width="321" height="295" viewBox="0 0 321 295" fill="none" xmlns="http://www.w3.org/2000/svg">
<path fill-rule="evenodd" clip-rule="evenodd" d="M215.188 63.2227C227.52 68.6339 237.645 77.1672 248.238 84.7523C266.073 97.9317 267.033 118.283 270.605 137.733C274.986 162.298 279.233 187.135 270.886 211.148C260.402 242.529 254.982 247.772 217 250.087C179.689 252.397 143.303 243.708 107.584 231.979C83.257 223.85 67.1617 208.16 59.364 183.761C48.0717 149.216 43.2777 114.676 52.2144 77.9836C58.9508 50.8177 81.5143 39.2099 104.357 38.1841C143.747 36.7316 179.801 49.1312 215.188 63.2227Z" fill="#F5E9DB"/>
<g clip-path="url(#clip0_633_24153)">
<path d="M159.528 64.9696H153.813V59.2422H147.88V64.9696H142.121V70.9157H147.88V76.6431H153.813V70.9157H159.528V64.9696Z" fill="#D6AD8D"/>
<path d="M153.813 77.9109H147.88C147.182 77.9109 146.615 77.3425 146.615 76.643V72.1834H142.122C141.424 72.1834 140.856 71.6151 140.856 70.9155V64.9695C140.856 64.2699 141.424 63.7016 142.122 63.7016H146.572V59.242C146.572 58.5425 147.139 57.9741 147.837 57.9741H153.77C154.468 57.9741 155.035 58.5425 155.035 59.242V63.7016H159.485C160.183 63.7016 160.75 64.2699 160.75 64.9695V70.9155C160.75 71.6151 160.183 72.1834 159.485 72.1834H155.035V76.643C155.079 77.3425 154.512 77.9109 153.813 77.9109ZM149.145 75.3751H152.548V70.9155C152.548 70.216 153.115 69.6476 153.813 69.6476H158.263V66.2374H153.813C153.115 66.2374 152.548 65.669 152.548 64.9695V60.5099H149.145V64.9695C149.145 65.669 148.578 66.2374 147.88 66.2374H143.43V69.6476H147.88C148.578 69.6476 149.145 70.216 149.145 70.9155V75.3751Z" fill="#3D332B"/>
<path d="M126.94 108.034C130.627 108.034 133.615 105.039 133.615 101.345C133.615 97.6507 130.627 94.6558 126.94 94.6558C123.254 94.6558 120.266 97.6507 120.266 101.345C120.266 105.039 123.254 108.034 126.94 108.034Z" fill="white"/>
<path d="M126.94 109.302C122.577 109.302 119 105.761 119 101.345C119 96.9728 122.534 93.3877 126.94 93.3877C131.303 93.3877 134.88 96.9291 134.88 101.345C134.88 105.717 131.303 109.302 126.94 109.302ZM126.94 95.9672C123.973 95.9672 121.574 98.3719 121.574 101.345C121.574 104.318 123.973 106.723 126.94 106.723C129.907 106.723 132.306 104.318 132.306 101.345C132.306 98.3719 129.907 95.9672 126.94 95.9672Z" fill="#3D332B"/>
<path d="M126.941 105.236C126.243 105.236 125.676 104.668 125.676 103.968V98.7655C125.676 98.0659 126.243 97.4976 126.941 97.4976C127.639 97.4976 128.206 98.0659 128.206 98.7655V103.968C128.206 104.668 127.639 105.236 126.941 105.236Z" fill="#3D332B"/>
<path d="M129.689 102.613H124.236C123.538 102.613 122.971 102.045 122.971 101.345C122.971 100.645 123.538 100.077 124.236 100.077H129.689C130.387 100.077 130.954 100.645 130.954 101.345C130.954 102.045 130.387 102.613 129.689 102.613Z" fill="#3D332B"/>
<path d="M171.134 73.1451H164.459C164.459 80.6651 158.352 86.786 150.848 86.786C143.344 86.786 137.236 80.6651 137.236 73.1451H130.562C130.562 83.2883 137.978 91.6827 147.663 93.213V98.8967H154.033V93.213C163.718 91.6827 171.134 83.2883 171.134 73.1451Z" fill="white"/>
<path d="M154.032 100.208H147.663C146.965 100.208 146.397 99.64 146.397 98.9405V94.306C136.451 92.2074 129.296 83.507 129.296 73.1888C129.296 72.4893 129.863 71.9209 130.561 71.9209H137.236C137.934 71.9209 138.501 72.4893 138.501 73.1888C138.501 80.0093 144.042 85.5619 150.847 85.5619C157.653 85.5619 163.194 80.0093 163.194 73.1888C163.194 72.4893 163.761 71.9209 164.459 71.9209H171.134C171.832 71.9209 172.399 72.4893 172.399 73.1888C172.399 83.507 165.288 92.2512 155.297 94.306V98.9405C155.297 99.64 154.73 100.208 154.032 100.208ZM148.928 97.6726H152.767V93.2567C152.767 92.6447 153.203 92.12 153.858 91.9888C162.714 90.5898 169.258 83.2884 169.825 74.4567H165.68C165.026 82.1079 158.613 88.0977 150.847 88.0977C143.082 88.0977 136.669 82.1079 136.014 74.4567H131.87C132.437 83.3321 138.981 90.5898 147.837 91.9888C148.448 92.0763 148.928 92.6009 148.928 93.2567V97.6726Z" fill="#3D332B"/>
<path d="M144.521 52.815H140.987C139.722 52.815 138.719 51.7657 138.719 50.5416C138.719 49.2736 139.766 48.2681 140.987 48.2681H144.521C145.786 48.2681 146.79 49.3174 146.79 50.5416C146.79 51.7657 145.786 52.815 144.521 52.815Z" fill="white"/>
<path d="M144.522 54.0828H140.988C139.025 54.0828 137.454 52.4651 137.454 50.5414C137.454 48.574 139.068 47 140.988 47H144.522C146.485 47 148.055 48.6177 148.055 50.5414C148.055 52.4651 146.485 54.0828 144.522 54.0828ZM140.988 49.4921C140.421 49.4921 139.984 49.9293 139.984 50.4977C139.984 51.066 140.421 51.5033 140.988 51.5033H144.522C145.089 51.5033 145.525 51.066 145.525 50.4977C145.525 49.9293 145.089 49.4921 144.522 49.4921H140.988Z" fill="#3D332B"/>
<path d="M160.533 52.815H156.999C155.734 52.815 154.73 51.7657 154.73 50.5416C154.73 49.2736 155.778 48.2681 156.999 48.2681H160.533C161.798 48.2681 162.801 49.3174 162.801 50.5416C162.801 51.7657 161.754 52.815 160.533 52.815Z" fill="white"/>
<path d="M160.532 54.0828H156.999C155.035 54.0828 153.465 52.4651 153.465 50.5414C153.465 48.574 155.079 47 156.999 47H160.532C162.496 47 164.066 48.6177 164.066 50.5414C164.066 52.4651 162.452 54.0828 160.532 54.0828ZM156.999 49.4921C156.431 49.4921 155.995 49.9293 155.995 50.4977C155.995 51.066 156.431 51.5033 156.999 51.5033H160.532C161.099 51.5033 161.536 51.066 161.536 50.4977C161.536 49.9293 161.099 49.4921 160.532 49.4921H156.999Z" fill="#3D332B"/>
<path d="M133.615 74.4132C132.917 74.4132 132.35 73.8449 132.35 73.1453V54.2142C132.35 51.4597 134.575 49.23 137.323 49.23H138.719C139.417 49.23 139.984 49.7984 139.984 50.4979C139.984 51.1974 139.417 51.7658 138.719 51.7658H137.323C135.971 51.7658 134.88 52.8588 134.88 54.2142V73.1453C134.88 73.8449 134.313 74.4132 133.615 74.4132Z" fill="#3D332B"/>
<path d="M167.905 74.4132C167.207 74.4132 166.639 73.8449 166.639 73.1453V54.2142C166.639 52.8588 165.549 51.7658 164.196 51.7658H162.8C162.102 51.7658 161.535 51.1974 161.535 50.4979C161.535 49.7984 162.102 49.23 162.8 49.23H164.196C166.945 49.23 169.17 51.4597 169.17 54.2142V73.1453C169.17 73.8449 168.603 74.4132 167.905 74.4132Z" fill="#3D332B"/>
<path d="M138.894 124.736C131.608 124.736 125.675 118.79 125.675 111.488V107.991C125.675 107.291 126.242 106.723 126.94 106.723C127.638 106.723 128.205 107.291 128.205 107.991V111.488C128.205 117.391 133.004 122.2 138.894 122.2C144.783 122.2 149.582 117.391 149.582 111.488V98.8967C149.582 98.1972 150.149 97.6288 150.847 97.6288C151.545 97.6288 152.112 98.1972 152.112 98.8967V111.488C152.112 118.833 146.179 124.736 138.894 124.736Z" fill="#3D332B"/>
<path d="M135.515 223.497C135.515 222.01 132.897 211.342 129.451 209.375L124.434 207.145C123.256 206.751 122.034 206.402 120.682 206.139C114.836 204.959 111.738 201.592 110.168 197.832C110.168 197.832 108.772 194.947 109.121 189.963L87.0458 186.858C88.3546 193.723 86.3914 197.832 86.3914 197.832C84.8208 201.592 81.7233 204.959 75.8774 206.139C67.5884 207.801 63.5311 219.43 62.3096 223.453H135.515V223.497Z" fill="white"/>
<path d="M62.2658 224.764C62.135 224.764 62.0041 224.764 61.9168 224.721C61.2624 224.502 60.8698 223.803 61.0879 223.147C62.9202 217.069 67.2393 206.62 75.6155 204.959C80.2836 204.041 83.5119 201.505 85.2134 197.439C85.257 197.351 87.002 193.504 85.7805 187.208C85.6932 186.815 85.8241 186.377 86.1295 186.115C86.3913 185.809 86.8275 185.678 87.2202 185.722L109.295 188.826C109.95 188.913 110.429 189.482 110.386 190.181C110.08 194.728 111.302 197.395 111.302 197.395C113.047 201.505 116.275 204.041 120.943 204.959C122.296 205.221 123.605 205.571 124.826 206.008C124.87 206.008 124.913 206.052 124.957 206.052L129.974 208.282C130.018 208.282 130.061 208.325 130.105 208.325C134.293 210.686 136.823 222.01 136.823 223.54C136.823 224.24 136.256 224.808 135.558 224.808C134.86 224.808 134.293 224.24 134.293 223.54C134.293 222.141 131.719 212.26 128.927 210.555L124.041 208.413C122.907 208.019 121.729 207.713 120.507 207.495C114.967 206.402 111.127 203.341 109.077 198.444C109.033 198.357 107.812 195.734 107.899 191.187L88.6162 188.476C89.4015 194.641 87.6564 198.313 87.5692 198.488C85.5187 203.341 81.6796 206.358 76.1391 207.451C68.7662 208.894 64.8398 219.43 63.4874 223.846C63.3129 224.415 62.833 224.764 62.2658 224.764Z" fill="#3D332B"/>
<path d="M119.854 206.883L107.158 220.786L101.443 214.097L112.524 202.948L119.854 206.883Z" fill="#EA8F51"/>
<path d="M107.158 222.054C106.766 222.054 106.417 221.879 106.198 221.617L100.483 214.927C100.047 214.403 100.091 213.659 100.571 213.222L111.652 202.117C112.044 201.724 112.655 201.636 113.135 201.898L120.464 205.79C120.813 205.965 121.031 206.314 121.119 206.708C121.206 207.101 121.075 207.495 120.813 207.801L108.118 221.617C107.856 221.879 107.507 222.054 107.158 222.054ZM103.188 214.14L107.202 218.862L117.847 207.232L112.786 204.522L103.188 214.14Z" fill="#3D332B"/>
<path d="M82.8576 202.948L93.9387 214.097L88.2236 220.786L75.5283 206.883L82.8576 202.948Z" fill="#EA8F51"/>
<path d="M88.224 222.054C87.875 222.054 87.526 221.922 87.3079 221.66L74.6126 207.757C74.3508 207.451 74.2199 207.057 74.3072 206.664C74.3944 206.27 74.6126 205.921 74.9616 205.746L82.2908 201.855C82.7707 201.592 83.3815 201.68 83.7741 202.073L94.8552 213.178C95.3351 213.659 95.3351 214.402 94.9425 214.883L89.2274 221.573C88.9657 221.879 88.6167 222.054 88.224 222.054ZM77.5792 207.232L88.224 218.862L92.2377 214.14L82.6398 204.522L77.5792 207.232Z" fill="#3D332B"/>
<path d="M93.9395 214.097L95.3791 222.01L93.9395 214.097Z" fill="white"/>
<path d="M95.3348 223.278C94.7241 223.278 94.2006 222.841 94.0697 222.229L92.63 214.315C92.4991 213.616 92.979 212.96 93.6334 212.829C94.3314 212.698 94.9858 213.179 95.1167 213.834L96.5564 221.748C96.6873 222.447 96.2074 223.103 95.553 223.234C95.5094 223.278 95.4221 223.278 95.3348 223.278Z" fill="#3D332B"/>
<path d="M101.573 214.097L100.134 222.01L101.573 214.097Z" fill="white"/>
<path d="M100.133 223.278C100.046 223.278 100.002 223.278 99.9152 223.278C99.2172 223.147 98.7809 222.491 98.9118 221.791L100.351 213.878C100.482 213.178 101.137 212.741 101.835 212.872C102.533 213.003 102.969 213.659 102.838 214.359L101.399 222.272C101.268 222.841 100.744 223.278 100.133 223.278Z" fill="#3D332B"/>
<path d="M75.6152 166.616C75.6152 166.616 79.2799 156.385 98.2574 157.609C117.235 158.833 121.816 166.528 121.816 166.528L108.335 187.908C105.543 190.006 102.227 191.274 98.3446 191.318C88.9649 191.405 82.4646 183.404 79.3671 173.917C79.4107 173.873 76.0079 171.381 75.6152 166.616Z" fill="white"/>
<path d="M98.1696 192.542C89.488 192.542 82.0715 185.853 78.3196 174.616C77.3598 173.786 74.7422 171.119 74.3496 166.703C74.3496 166.528 74.3496 166.353 74.4369 166.178C74.6114 165.741 78.6686 155.073 98.3878 156.341C117.802 157.609 122.731 165.522 122.949 165.872C123.211 166.266 123.168 166.79 122.949 167.184L109.469 188.563C109.382 188.694 109.294 188.826 109.164 188.913C105.979 191.274 102.401 192.542 98.4314 192.586C98.3005 192.542 98.2569 192.542 98.1696 192.542ZM76.9236 166.79C77.3598 170.769 80.1083 172.824 80.1519 172.867C80.3701 173.042 80.5446 173.261 80.5882 173.48C83.9474 183.841 90.535 190.006 98.1696 190.006C98.2133 190.006 98.2569 190.006 98.3442 190.006C101.66 189.962 104.714 188.957 107.375 186.989L120.245 166.572C118.718 164.867 113.046 159.795 98.1696 158.833C81.9406 157.827 77.6216 165.304 76.9236 166.79Z" fill="#3D332B"/>
<path d="M121.511 165.173V140.208C121.511 140.208 97.7346 127.923 75.0488 141.126L75.4851 166.485C75.4851 166.485 92.1504 150.701 119.984 165.654L121.511 165.173Z" fill="#EA8F51"/>
<path d="M75.4846 167.796C75.3101 167.796 75.1356 167.752 75.0047 167.709C74.5249 167.534 74.2195 167.053 74.2195 166.572L73.7832 141.214C73.7832 140.733 74.0013 140.339 74.394 140.077C97.4287 126.698 121.816 138.984 122.034 139.115C122.47 139.334 122.732 139.771 122.732 140.252V165.173C122.732 165.872 122.165 166.441 121.467 166.441C121.292 166.441 121.162 166.397 120.987 166.353C120.638 166.922 119.896 167.096 119.329 166.79C92.6298 152.45 76.488 167.271 76.3135 167.446C76.139 167.665 75.8336 167.796 75.4846 167.796ZM96.9488 158.003C103.493 158.003 111.346 159.62 120.245 164.342V140.995C116.275 139.202 95.8582 130.939 76.3572 141.869L76.7498 163.992C79.9782 161.762 86.9584 158.003 96.9488 158.003Z" fill="#3D332B"/>
<path d="M124.477 202.292V221.354C124.477 222.709 125.567 223.802 126.92 223.802C128.272 223.802 129.363 222.709 129.363 221.354V202.248L124.477 202.292Z" fill="#FF878A"/>
<path d="M126.92 225.07C124.87 225.07 123.212 223.409 123.212 221.354V202.292C123.212 201.592 123.779 201.024 124.477 201.024C125.175 201.024 125.742 201.592 125.742 202.292V221.354C125.742 222.01 126.266 222.534 126.92 222.534C127.575 222.534 128.098 222.01 128.098 221.354V202.248C128.098 201.548 128.665 200.98 129.363 200.98C130.061 200.98 130.628 201.548 130.628 202.248V221.354C130.628 223.365 128.971 225.07 126.92 225.07Z" fill="#3D332B"/>
<path d="M126.79 202.335C137.222 202.335 145.68 193.86 145.68 183.404C145.68 172.949 137.222 164.473 126.79 164.473C116.357 164.473 107.899 172.949 107.899 183.404C107.899 193.86 116.357 202.335 126.79 202.335Z" fill="white"/>
<path d="M126.789 203.603C115.664 203.603 106.634 194.553 106.634 183.404C106.634 172.255 115.664 163.205 126.789 163.205C137.914 163.205 146.945 172.255 146.945 183.404C146.988 194.553 137.914 203.603 126.789 203.603ZM126.789 165.697C117.061 165.697 109.164 173.611 109.164 183.36C109.164 193.11 117.061 201.024 126.789 201.024C136.518 201.024 144.414 193.11 144.414 183.36C144.458 173.654 136.518 165.697 126.789 165.697Z" fill="#3D332B"/>
<path d="M131.937 177.852C132.81 178.988 133.333 180.431 133.333 182.005C133.333 185.809 130.28 188.869 126.484 188.869C122.689 188.869 119.635 185.809 119.635 182.005C119.635 180.387 120.202 178.945 121.118 177.764L131.937 177.852Z" fill="#EA8F51"/>
<path d="M126.484 190.137C122.034 190.137 118.369 186.508 118.369 182.005C118.369 180.169 118.98 178.42 120.114 176.977C120.55 176.409 121.336 176.321 121.903 176.758C122.47 177.196 122.557 177.983 122.121 178.551C121.336 179.557 120.943 180.737 120.943 182.005C120.943 185.065 123.43 187.601 126.527 187.601C129.625 187.601 132.111 185.109 132.111 182.005C132.111 180.781 131.719 179.6 130.977 178.638C130.541 178.07 130.672 177.283 131.239 176.846C131.806 176.409 132.591 176.54 133.028 177.108C134.118 178.551 134.685 180.212 134.685 182.005C134.598 186.508 130.977 190.137 126.484 190.137Z" fill="#3D332B"/>
<path d="M142.277 184.497C142.015 184.497 141.71 184.41 141.492 184.235C124.957 171.293 112.698 183.579 112.218 184.104C111.738 184.585 110.909 184.628 110.43 184.147C109.906 183.666 109.906 182.879 110.386 182.355C110.517 182.224 124.695 167.883 143.062 182.224C143.629 182.661 143.716 183.448 143.28 184.016C143.062 184.322 142.669 184.497 142.277 184.497Z" fill="#3D332B"/>
<path d="M126.616 183.972C127.7 183.972 128.579 183.092 128.579 182.005C128.579 180.918 127.7 180.038 126.616 180.038C125.531 180.038 124.652 180.918 124.652 182.005C124.652 183.092 125.531 183.972 126.616 183.972Z" fill="white"/>
<path d="M126.615 185.24C124.826 185.24 123.387 183.797 123.387 182.005C123.387 180.212 124.826 178.77 126.615 178.77C128.404 178.77 129.843 180.212 129.843 182.005C129.843 183.797 128.404 185.24 126.615 185.24ZM126.615 181.305C126.222 181.305 125.917 181.611 125.917 182.005C125.917 182.398 126.222 182.704 126.615 182.704C127.008 182.704 127.313 182.398 127.313 182.005C127.313 181.611 127.008 181.305 126.615 181.305Z" fill="#3D332B"/>
<path d="M75.6582 166.135L85.7359 174.704L75.6582 166.135Z" fill="white"/>
<path d="M85.6926 175.972C85.3872 175.972 85.1255 175.885 84.8637 175.666L74.786 167.097C74.2625 166.659 74.1752 165.829 74.6551 165.304C75.0914 164.779 75.9203 164.692 76.4438 165.173L86.5215 173.742C87.045 174.179 87.1323 175.01 86.6524 175.535C86.4343 175.797 86.0852 175.972 85.6926 175.972Z" fill="#3D332B"/>
<path d="M84.9512 184.06L85.6928 174.704L98.9553 173.393L109.818 174.923L84.9512 184.06Z" fill="white"/>
<path d="M84.9513 185.328C84.9077 185.328 84.864 185.328 84.864 185.328C84.166 185.285 83.6425 184.672 83.6861 183.973L84.4278 174.617C84.4714 174.005 84.9513 173.524 85.5621 173.436L98.8245 172.125C98.9118 172.125 99.0426 172.125 99.1299 172.125L109.993 173.655C110.691 173.742 111.171 174.398 111.084 175.098C110.996 175.797 110.342 176.278 109.644 176.191L98.9554 174.66L86.9145 175.841L86.2601 184.148C86.1728 184.804 85.6057 185.328 84.9513 185.328Z" fill="#3D332B"/>
<path d="M195.239 159.183H164.134C163.392 159.183 162.781 159.795 162.781 160.582V198.401C162.781 199.013 163.261 199.494 163.828 199.494H251.736L195.239 159.183Z" fill="white"/>
<path d="M251.735 200.762H163.828C162.563 200.762 161.516 199.712 161.516 198.401V160.582C161.516 159.096 162.694 157.915 164.133 157.915H195.239C195.937 157.915 196.504 158.483 196.504 159.183C196.504 159.882 195.937 160.451 195.239 160.451H164.133C164.09 160.451 164.046 160.495 164.046 160.582V198.226H251.735C252.433 198.226 253 198.794 253 199.494C253 200.193 252.433 200.762 251.735 200.762Z" fill="#3D332B"/>
<path d="M210.845 132.715V126.988V118.768C210.845 111.205 216.909 105.04 224.369 105.04C231.785 105.04 237.893 111.205 237.893 118.768V126.988V132.715H210.845Z" fill="#FF878A"/>
<path d="M237.85 133.983C237.152 133.983 236.585 133.415 236.585 132.715V118.812C236.585 111.948 231.088 106.352 224.326 106.352C217.563 106.352 212.066 111.948 212.066 118.812V132.715C212.066 133.415 211.499 133.983 210.801 133.983C210.103 133.983 209.536 133.415 209.536 132.715V118.812C209.536 110.549 216.167 103.816 224.326 103.816C232.484 103.816 239.115 110.549 239.115 118.812V132.715C239.115 133.415 238.548 133.983 237.85 133.983Z" fill="#3D332B"/>
<path d="M240.992 133.983H207.705C207.007 133.983 206.439 133.415 206.439 132.715C206.439 132.016 207.007 131.447 207.705 131.447H240.948C241.646 131.447 242.213 132.016 242.213 132.715C242.257 133.415 241.69 133.983 240.992 133.983Z" fill="#3D332B"/>
<path d="M232.877 117.238H227.249V111.511H221.404V117.238H215.819V123.184H221.404V128.868H227.249V123.184H232.877V117.238Z" fill="white"/>
<path d="M227.249 130.136H221.403C220.705 130.136 220.138 129.567 220.138 128.868V124.452H215.819C215.121 124.452 214.554 123.884 214.554 123.184V117.238C214.554 116.538 215.121 115.97 215.819 115.97H220.138V111.511C220.138 110.811 220.705 110.243 221.403 110.243H227.249C227.947 110.243 228.514 110.811 228.514 111.511V115.926H232.833C233.531 115.926 234.098 116.495 234.098 117.194V123.14C234.098 123.84 233.531 124.408 232.833 124.408H228.514V128.824C228.514 129.567 227.947 130.136 227.249 130.136ZM222.668 127.6H225.984V123.184C225.984 122.485 226.551 121.916 227.249 121.916H231.568V118.506H227.249C226.551 118.506 225.984 117.938 225.984 117.238V112.822H222.668V117.238C222.668 117.938 222.101 118.506 221.403 118.506H217.084V121.916H221.403C222.101 121.916 222.668 122.485 222.668 123.184V127.6Z" fill="#3D332B"/>
<path d="M251.736 199.494V134C251.736 133.038 250.994 132.295 250.034 132.295H196.941C196.025 132.295 195.239 133.082 195.239 134V199.494H251.736Z" fill="white"/>
<path d="M251.735 200.762H195.239C194.541 200.762 193.974 200.193 193.974 199.494V134C193.974 132.338 195.282 131.027 196.94 131.027H250.077C251.691 131.027 253.044 132.382 253.044 134V199.494C253 200.193 252.433 200.762 251.735 200.762ZM196.504 198.226H250.47V134C250.47 133.738 250.295 133.563 250.034 133.563H196.94C196.722 133.563 196.504 133.781 196.504 134V198.226Z" fill="#3D332B"/>
<path d="M244.581 200.762C243.883 200.762 243.315 200.193 243.315 199.494V143.138C243.315 142.438 243.883 141.87 244.581 141.87C245.279 141.87 245.846 142.438 245.846 143.138V199.494C245.846 200.193 245.279 200.762 244.581 200.762Z" fill="#3D332B"/>
<path d="M202.48 199.494V141.301C202.48 140.558 203.048 139.99 203.789 139.99H238.211L202.48 199.494Z" fill="white"/>
<path d="M202.481 200.762C201.783 200.762 201.216 200.193 201.216 199.494V141.301C201.216 139.858 202.35 138.722 203.79 138.722H238.211C238.909 138.722 239.476 139.29 239.476 139.99C239.476 140.689 238.909 141.257 238.211 141.257H203.79L203.746 199.494C203.79 200.193 203.223 200.762 202.481 200.762Z" fill="#3D332B"/>
<path d="M235.811 199.494V180.737C235.811 179.994 235.201 179.338 234.459 179.338H212.558C211.817 179.338 211.206 179.95 211.206 180.737V199.494H235.811Z" fill="#D6AD8D"/>
<path d="M235.812 200.761H211.163C210.465 200.761 209.897 200.193 209.897 199.494V180.737C209.897 179.295 211.075 178.07 212.515 178.07H234.416C235.855 178.07 237.033 179.251 237.033 180.737V199.494C237.077 200.193 236.51 200.761 235.812 200.761ZM212.471 198.226H234.546V180.737C234.546 180.65 234.503 180.606 234.459 180.606H212.559C212.515 180.606 212.471 180.65 212.471 180.737V198.226Z" fill="#3D332B"/>
<path d="M228.308 160.451H203.048C202.35 160.451 201.783 159.882 201.783 159.183C201.783 158.483 202.35 157.915 203.048 157.915H228.308C229.006 157.915 229.573 158.483 229.573 159.183C229.573 159.882 229.006 160.451 228.308 160.451Z" fill="#3D332B"/>
<path d="M237.6 160.451H233.5C232.802 160.451 232.234 159.882 232.234 159.183C232.234 158.483 232.802 157.915 233.5 157.915H237.6C238.298 157.915 238.866 158.483 238.866 159.183C238.866 159.882 238.298 160.451 237.6 160.451Z" fill="#3D332B"/>
<path d="M237.601 151.226H203.048C202.35 151.226 201.783 150.657 201.783 149.958C201.783 149.258 202.35 148.69 203.048 148.69H237.601C238.299 148.69 238.866 149.258 238.866 149.958C238.866 150.657 238.299 151.226 237.601 151.226Z" fill="#3D332B"/>
<path d="M229.093 170.376H203.091C202.393 170.376 201.826 169.807 201.826 169.108C201.826 168.408 202.393 167.84 203.091 167.84H229.093C229.791 167.84 230.358 168.408 230.358 169.108C230.358 169.807 229.791 170.376 229.093 170.376Z" fill="#3D332B"/>
<path d="M226.519 190.706H220.585C219.887 190.706 219.32 190.137 219.32 189.438C219.32 188.738 219.887 188.17 220.585 188.17H226.519C227.217 188.17 227.784 188.738 227.784 189.438C227.784 190.137 227.217 190.706 226.519 190.706Z" fill="#3D332B"/>
<path d="M223.552 193.766C222.854 193.766 222.287 193.198 222.287 192.498V179.644C222.287 178.945 222.854 178.376 223.552 178.376C224.25 178.376 224.817 178.945 224.817 179.644V192.498C224.817 193.198 224.25 193.766 223.552 193.766Z" fill="#3D332B"/>
<path d="M190.09 167.84H163.216C162.518 167.84 161.951 167.271 161.951 166.572C161.951 165.872 162.518 165.304 163.216 165.304H190.09C190.788 165.304 191.355 165.872 191.355 166.572C191.355 167.271 190.788 167.84 190.09 167.84Z" fill="#3D332B"/>
<path d="M178.443 200.193C177.745 200.193 177.178 199.625 177.178 198.925V167.184C177.178 166.484 177.745 165.916 178.443 165.916C179.141 165.916 179.708 166.484 179.708 167.184V198.925C179.708 199.625 179.141 200.193 178.443 200.193Z" fill="#3D332B"/>
<path d="M224.675 98.7879C223.977 98.7879 223.41 98.2195 223.41 97.52V91.2679C223.41 90.5684 223.977 90 224.675 90C225.373 90 225.94 90.5684 225.94 91.2679V97.52C225.94 98.2195 225.373 98.7879 224.675 98.7879Z" fill="#3D332B"/>
<path d="M238.024 94.897C237.588 95.5965 237.152 96.296 236.715 97.0393C236.628 97.2142 236.497 97.3891 236.41 97.5639C236.279 97.7826 236.148 98.0012 235.974 98.2635C235.581 98.9193 235.189 99.5751 234.796 100.231L238.024 94.897Z" fill="white"/>
<path d="M234.796 101.455C234.578 101.455 234.36 101.411 234.141 101.28C233.531 100.93 233.356 100.143 233.705 99.5312L236.934 94.241C237.283 93.6289 238.068 93.454 238.679 93.8038C239.289 94.1535 239.464 94.9405 239.115 95.5526L235.887 100.843C235.668 101.236 235.232 101.455 234.796 101.455Z" fill="#3D332B"/>
<path d="M246.358 105.521C244.526 106.395 242.65 107.27 240.817 108.144L246.358 105.521Z" fill="white"/>
<path d="M240.817 109.412C240.337 109.412 239.901 109.15 239.683 108.669C239.377 108.057 239.639 107.27 240.293 106.964L245.834 104.341C246.488 104.035 247.23 104.297 247.535 104.953C247.841 105.565 247.579 106.352 246.925 106.658L241.384 109.281C241.166 109.412 240.991 109.412 240.817 109.412Z" fill="#3D332B"/>
<path d="M211.543 94.897L212.808 96.9956C212.939 97.1705 213.026 97.3891 213.157 97.5639C213.288 97.7826 213.419 97.9574 213.506 98.176C213.942 98.8756 214.335 99.5314 214.771 100.231L211.543 94.897Z" fill="white"/>
<path d="M214.771 101.455C214.335 101.455 213.942 101.236 213.681 100.843L210.452 95.5526C210.103 94.9405 210.278 94.1535 210.889 93.8038C211.499 93.454 212.285 93.6289 212.634 94.241L215.862 99.5312C216.211 100.143 216.036 100.93 215.426 101.28C215.251 101.411 215.033 101.455 214.771 101.455Z" fill="#3D332B"/>
<path d="M203.254 105.521L208.794 108.144L203.254 105.521Z" fill="white"/>
<path d="M208.795 109.412C208.62 109.412 208.446 109.368 208.271 109.281L202.731 106.657C202.12 106.351 201.814 105.608 202.12 104.952C202.425 104.34 203.167 104.034 203.821 104.34L209.362 106.964C209.973 107.27 210.278 108.013 209.973 108.669C209.711 109.15 209.275 109.412 208.795 109.412Z" fill="#3D332B"/>
</g>
<defs>
<clipPath id="clip0_633_24153">
<rect width="192" height="188" fill="white" transform="translate(61 37.0703)"/>
</clipPath>
</defs>
</svg>
