<svg width="324" height="302" viewBox="0 0 324 302" fill="none" xmlns="http://www.w3.org/2000/svg">
<path fill-rule="evenodd" clip-rule="evenodd" d="M102.006 231.574C90.0063 225.461 80.3903 216.358 70.2525 208.175C53.2082 193.988 53.4234 173.616 50.9793 153.992C48.0222 129.215 45.2143 104.174 54.9331 80.6833C67.209 49.9589 72.9227 45.0375 110.975 44.9164C148.357 44.763 184.181 55.5359 219.165 69.3053C242.982 78.8238 258.146 95.4165 264.523 120.224C273.804 155.364 276.598 190.122 265.56 226.238C257.268 252.97 234.072 263.257 211.208 262.964C171.801 262.142 136.521 247.684 102.006 231.574Z" fill="#F5E9DB"/>
<path d="M237.223 178.495H178.081C174.958 178.495 172.403 175.939 172.403 172.815V139.68C172.403 136.556 174.958 134 178.081 134H237.223C240.345 134 242.9 136.556 242.9 139.68V172.815C242.9 175.939 240.345 178.495 237.223 178.495Z" fill="white" stroke="#3D332B" stroke-width="3" stroke-miterlimit="10"/>
<path d="M242.475 151.18H172.525C172.238 151.18 172 150.841 172 150.434V143.925C172 143.519 172.238 143.18 172.525 143.18H242.475C242.762 143.18 243 143.519 243 143.925V150.434C243 150.841 242.762 151.18 242.475 151.18Z" fill="#FF878A" stroke="#3D332B" stroke-width="3" stroke-miterlimit="10"/>
<path d="M207.179 168.886C206.658 165.289 210.065 162.496 213.519 163.585C215.175 164.105 217.02 164.437 219.007 164.437C223.36 164.437 227.24 161.123 229.416 158.757C230.457 157.62 232.255 157.62 233.343 158.757C235.567 161.123 239.399 164.437 243.752 164.437C245.881 164.437 247.916 164.105 249.666 163.443C252.836 162.307 256.101 165.005 255.628 168.366C254.066 179.395 248.72 195.536 231.687 205.808C231.356 205.998 231.072 205.808 231.072 205.808C214.229 195.773 208.835 179.916 207.179 168.886Z" fill="white"/>
<path d="M231.356 207.228C230.93 207.228 230.599 207.086 230.315 206.944C213.235 196.72 207.557 180.72 205.807 169.076C205.476 166.945 206.28 164.863 207.936 163.443C209.592 162.023 211.863 161.597 213.945 162.259C215.506 162.78 217.209 163.017 219.007 163.017C222.982 163.017 226.625 159.75 228.423 157.762C229.18 156.958 230.268 156.484 231.403 156.484C232.539 156.484 233.627 156.958 234.384 157.762C236.182 159.703 239.825 163.017 243.799 163.017C245.692 163.017 247.584 162.685 249.24 162.117C251.18 161.407 253.309 161.786 254.918 163.111C256.527 164.437 257.331 166.472 257 168.508C255.297 180.294 249.666 196.483 232.444 206.944C232.018 207.181 231.687 207.228 231.356 207.228ZM208.504 168.697C210.16 179.631 215.459 194.684 231.309 204.388C247.348 194.495 252.6 179.253 254.161 168.176C254.303 167.088 253.877 165.999 253.026 165.289C252.174 164.579 251.038 164.389 250.045 164.768C248.105 165.478 245.881 165.809 243.705 165.809C238.926 165.809 234.857 162.496 232.255 159.703C232.018 159.419 231.687 159.277 231.309 159.277C230.93 159.277 230.599 159.419 230.362 159.703C227.76 162.496 223.691 165.809 218.913 165.809C216.831 165.809 214.844 165.525 212.998 164.91C211.816 164.531 210.538 164.768 209.592 165.573C208.787 166.33 208.362 167.466 208.504 168.697Z" fill="#3D332B"/>
<path d="M229.889 185.69L242.522 173.099C243.374 172.247 244.746 172.247 245.597 173.099C246.449 173.951 246.449 175.324 245.597 176.176L232.965 188.767L231.167 190.613C230.315 191.465 228.943 191.465 228.091 190.613L218.771 181.241C217.919 180.389 217.919 179.016 218.771 178.164C219.622 177.312 220.994 177.312 221.846 178.164L229.605 185.927L229.653 185.974L229.889 185.69Z" fill="#FF878A"/>
<path d="M229.606 192.649C228.659 192.649 227.76 192.27 227.098 191.607L217.777 182.235C217.115 181.572 216.736 180.673 216.736 179.726C216.736 178.78 217.115 177.88 217.777 177.217C218.44 176.555 219.339 176.176 220.285 176.176C221.231 176.176 222.13 176.555 222.792 177.217L229.606 184.034L241.529 172.153C242.901 170.78 245.172 170.78 246.591 172.153C247.963 173.525 247.963 175.797 246.591 177.217L233.958 189.809L232.16 191.607C231.451 192.27 230.552 192.649 229.606 192.649ZM220.285 178.874C220.048 178.874 219.859 178.969 219.717 179.111C219.575 179.253 219.48 179.49 219.48 179.679C219.48 179.916 219.575 180.105 219.717 180.247L229.038 189.619C229.369 189.951 229.889 189.951 230.173 189.619L231.971 187.821L244.604 175.229C244.935 174.898 244.935 174.377 244.604 174.093C244.273 173.762 243.752 173.762 243.468 174.093L230.883 186.685L230.646 186.921C230.41 187.205 230.031 187.347 229.653 187.347C229.274 187.347 228.943 187.205 228.659 186.921L220.9 179.158C220.711 178.969 220.474 178.874 220.285 178.874Z" fill="#3D332B"/>
<path d="M148.137 138.987C148.137 142.541 145.256 145.432 141.713 145.432H108.102C104.746 145.432 102 142.609 102 139.158V81.2746C102 77.8227 104.746 74.9999 108.102 74.9999H142.035C145.391 74.9999 148.137 77.8227 148.137 81.2746V138.987Z" fill="white" stroke="#3D332B" stroke-width="3" stroke-miterlimit="10" stroke-linecap="round" stroke-linejoin="round"/>
<path d="M133.307 108.073V108.022C133.307 106.849 134.273 105.88 135.442 105.88H141.951C143.121 105.88 144.087 106.849 144.087 108.022V108.073C144.087 109.247 143.121 110.216 141.951 110.216H135.442C134.273 110.216 133.307 109.247 133.307 108.073Z" fill="#EA8F51" stroke="#3D332B" stroke-width="3" stroke-miterlimit="10" stroke-linecap="round" stroke-linejoin="round"/>
<path d="M106.441 97.3268C106.441 98.7041 107.559 99.8094 108.915 99.8094H141.747C142.832 99.8094 143.696 98.9082 143.696 97.8029V83.3321C143.696 82.2269 142.815 81.3256 141.747 81.3256H108.39C107.305 81.3256 106.424 82.2269 106.424 83.3321V88.1614V97.3268H106.441Z" fill="white" stroke="#3D332B" stroke-width="3" stroke-miterlimit="10" stroke-linecap="round" stroke-linejoin="round"/>
<path d="M112.034 125.35C114.477 125.35 116.458 123.317 116.458 120.81C116.458 118.302 114.477 116.27 112.034 116.27C109.591 116.27 107.61 118.302 107.61 120.81C107.61 123.317 109.591 125.35 112.034 125.35Z" fill="white" stroke="#3D332B" stroke-width="3" stroke-miterlimit="10" stroke-linecap="round" stroke-linejoin="round"/>
<path d="M125.153 125.35C127.597 125.35 129.577 123.317 129.577 120.81C129.577 118.302 127.597 116.27 125.153 116.27C122.71 116.27 120.729 118.302 120.729 120.81C120.729 123.317 122.71 125.35 125.153 125.35Z" fill="white" stroke="#3D332B" stroke-width="3" stroke-miterlimit="10" stroke-linecap="round" stroke-linejoin="round"/>
<path d="M112.034 138.426C114.477 138.426 116.458 136.394 116.458 133.886C116.458 131.379 114.477 129.346 112.034 129.346C109.591 129.346 107.61 131.379 107.61 133.886C107.61 136.394 109.591 138.426 112.034 138.426Z" fill="white" stroke="#3D332B" stroke-width="3" stroke-miterlimit="10" stroke-linecap="round" stroke-linejoin="round"/>
<path d="M125.153 138.426C127.597 138.426 129.577 136.394 129.577 133.886C129.577 131.379 127.597 129.346 125.153 129.346C122.71 129.346 120.729 131.379 120.729 133.886C120.729 136.394 122.71 138.426 125.153 138.426Z" fill="#EA8F51" stroke="#3D332B" stroke-width="3" stroke-miterlimit="10" stroke-linecap="round" stroke-linejoin="round"/>
<path d="M106.56 108.073V108.022C106.56 106.849 107.526 105.88 108.695 105.88H115.204C116.373 105.88 117.34 106.849 117.34 108.022V108.073C117.34 109.247 116.373 110.216 115.204 110.216H108.695C107.526 110.216 106.56 109.247 106.56 108.073Z" fill="#EA8F51" stroke="#3D332B" stroke-width="3" stroke-miterlimit="10" stroke-linecap="round" stroke-linejoin="round"/>
<path d="M119.949 108.073V108.022C119.949 106.849 120.915 105.88 122.085 105.88H128.594C129.763 105.88 130.729 106.849 130.729 108.022V108.073C130.729 109.247 129.763 110.216 128.594 110.216H122.085C120.915 110.216 119.949 109.247 119.949 108.073Z" fill="#EA8F51" stroke="#3D332B" stroke-width="3" stroke-miterlimit="10" stroke-linecap="round" stroke-linejoin="round"/>
<path d="M138.577 138.426C136.102 138.426 134.068 136.386 134.068 133.903V120.793C134.068 118.31 136.102 116.27 138.577 116.27C141.052 116.27 143.086 118.31 143.086 120.793V133.903C143.103 136.386 141.069 138.426 138.577 138.426Z" fill="#EA8F51" stroke="#3D332B" stroke-width="3" stroke-miterlimit="10" stroke-linecap="round" stroke-linejoin="round"/>
<path d="M104.022 198.454C100.42 198.454 98.018 194.732 99.4876 191.424C100.061 190.147 100.599 189.014 101.047 188.331C103.036 185.274 108.467 180.384 113.27 180.384H116.334C117.446 181.642 119.077 182.452 120.905 182.452C124.274 182.452 126.998 179.719 126.998 176.338C126.998 179.719 129.722 182.452 133.092 182.452C134.92 182.452 136.551 181.66 137.662 180.384H140.673C145.458 180.384 150.87 185.238 152.878 188.277C153.326 188.96 153.899 190.129 154.491 191.442C155.96 194.732 153.577 198.454 149.974 198.454" fill="white"/>
<path d="M104.022 198.454C100.42 198.454 98.018 194.732 99.4876 191.424C100.061 190.147 100.599 189.014 101.047 188.331C103.036 185.274 108.467 180.384 113.27 180.384H116.334C117.446 181.642 119.077 182.452 120.905 182.452C124.274 182.452 126.998 179.719 126.998 176.338C126.998 179.719 129.722 182.452 133.092 182.452C134.92 182.452 136.551 181.66 137.662 180.384H140.673C145.458 180.384 150.87 185.238 152.878 188.277C153.326 188.96 153.899 190.129 154.491 191.442C155.96 194.732 153.577 198.454 149.974 198.454" stroke="#3D332B" stroke-width="3" stroke-miterlimit="10" stroke-linecap="round" stroke-linejoin="round"/>
<path d="M139.203 176.32C139.203 177.866 138.63 179.305 137.662 180.384C136.551 181.642 134.92 182.451 133.092 182.451C129.722 182.451 126.998 179.718 126.998 176.338C126.998 172.958 129.722 170.225 133.092 170.225C136.479 170.207 139.203 172.94 139.203 176.32Z" fill="#D6AD8D" stroke="#3D332B" stroke-width="3" stroke-miterlimit="10" stroke-linecap="round" stroke-linejoin="round"/>
<path d="M126.998 176.32C126.998 179.701 124.256 182.434 120.904 182.434C119.076 182.434 117.445 181.642 116.334 180.366C115.384 179.287 114.793 177.867 114.793 176.302C114.793 172.922 117.535 170.189 120.886 170.189C124.274 170.207 126.998 172.94 126.998 176.32Z" fill="#D6AD8D" stroke="#3D332B" stroke-width="3" stroke-miterlimit="10" stroke-linecap="round" stroke-linejoin="round"/>
<path d="M157.196 233.479C155.225 235.582 152.608 236.913 149.651 236.913H104.344C96.064 236.913 90.5261 226.556 94.1105 217.602C94.1284 217.548 94.1643 217.477 94.1822 217.423C95.831 213.449 102.122 208.217 103.215 201.996C103.43 200.701 103.717 199.533 104.021 198.454C107.355 186.875 115.008 187.018 115.008 187.018H138.988C138.988 187.018 146.64 186.875 149.974 198.454C150.296 199.533 150.565 200.701 150.78 201.996C151.461 205.808 154.078 209.26 156.39 212.262C157.86 214.168 159.186 215.894 159.813 217.441C159.849 217.513 159.867 217.566 159.885 217.62C162.197 223.356 160.727 229.685 157.196 233.479Z" fill="white" stroke="#3D332B" stroke-width="3" stroke-miterlimit="10" stroke-linecap="round" stroke-linejoin="round"/>
<path d="M133.198 208.235C133.198 205.268 130.797 202.859 127.839 202.859H125.796C122.839 202.859 120.438 205.268 120.438 208.235C120.438 211.202 122.839 213.611 125.796 213.611H128.252C131.209 213.611 133.61 216.02 133.61 218.987C133.61 221.954 131.209 224.363 128.252 224.363H126.208C123.251 224.363 120.85 221.954 120.85 218.987" stroke="#3D332B" stroke-width="3" stroke-miterlimit="10" stroke-linecap="round" stroke-linejoin="round"/>
<path d="M127.016 198.454V202.859" stroke="#3D332B" stroke-width="3" stroke-miterlimit="10" stroke-linecap="round" stroke-linejoin="round"/>
<path d="M127.016 224.345V228.75" stroke="#3D332B" stroke-width="3" stroke-miterlimit="10" stroke-linecap="round" stroke-linejoin="round"/>
</svg>
