<svg width="321" height="294" viewBox="0 0 321 294" fill="none" xmlns="http://www.w3.org/2000/svg">
<path fill-rule="evenodd" clip-rule="evenodd" d="M215.174 62.7047C227.507 68.1159 237.632 76.6492 248.225 84.2342C266.059 97.4136 267.019 117.765 270.591 137.215C274.972 161.78 279.22 186.617 270.872 210.63C260.389 242.011 254.968 247.254 216.987 249.569C179.675 251.879 143.289 243.19 107.57 231.461C83.2434 223.332 67.148 207.642 59.3503 183.243C48.058 148.698 43.264 114.158 52.2007 77.4655C58.9372 50.2997 81.5006 38.6919 104.344 37.6661C143.733 36.2135 179.788 48.6132 215.174 62.7047Z" fill="#F5E9DB"/>
<path d="M162.881 162.311V207.188C162.881 211.845 159.092 215.634 154.435 215.634H95.7702C91.1135 215.634 87.3242 211.845 87.3242 207.188V162.311H162.881Z" fill="white"/>
<path d="M154.435 216.958H95.7699C90.3828 216.958 86 212.576 86 207.188V162.311C86 161.581 86.5935 160.987 87.324 160.987C88.0544 160.987 88.6479 161.581 88.6479 162.311V207.188C88.6479 211.115 91.8437 214.31 95.7699 214.31H154.435C158.361 214.31 161.557 211.115 161.557 207.188V162.311C161.557 161.581 162.151 160.987 162.881 160.987C163.612 160.987 164.205 161.581 164.205 162.311V207.188C164.205 212.576 159.822 216.958 154.435 216.958Z" fill="#3D332B"/>
<path d="M87.3242 162.311V158.75C87.3242 154.094 91.1135 150.305 95.7702 150.305H154.435C159.092 150.305 162.881 154.094 162.881 158.75V162.311H87.3242Z" fill="#FF878A"/>
<path d="M162.881 163.635C162.151 163.635 161.557 163.042 161.557 162.311V158.75C161.557 154.824 158.361 151.628 154.435 151.628H95.7699C91.8437 151.628 88.6479 154.824 88.6479 158.75V162.311C88.6479 163.042 88.0544 163.635 87.324 163.635C86.5935 163.635 86 163.042 86 162.311V158.75C86 153.363 90.3828 148.981 95.7699 148.981H154.435C159.822 148.981 164.205 153.363 164.205 158.75V162.311C164.205 163.042 163.612 163.635 162.881 163.635Z" fill="#3D332B"/>
<path d="M106.635 156.285C105.677 156.285 104.9 155.509 104.9 154.55V146.059C104.9 145.1 105.677 144.324 106.635 144.324C107.594 144.324 108.37 145.1 108.37 146.059V154.596C108.324 155.509 107.548 156.285 106.635 156.285Z" fill="white"/>
<path d="M106.635 157.609C104.946 157.609 103.576 156.239 103.576 154.55V146.059C103.576 144.37 104.946 143 106.635 143C108.324 143 109.694 144.37 109.694 146.059V154.596C109.648 156.239 108.279 157.609 106.635 157.609ZM106.635 145.648C106.407 145.648 106.224 145.831 106.224 146.059V154.596C106.224 154.824 106.407 155.007 106.635 155.007C106.863 155.007 107.046 154.824 107.046 154.596V146.059C107 145.831 106.818 145.648 106.635 145.648Z" fill="#3D332B"/>
<path d="M142.52 156.285C141.561 156.285 140.785 155.509 140.785 154.55V146.059C140.785 145.1 141.561 144.324 142.52 144.324C143.479 144.324 144.255 145.1 144.255 146.059V154.596C144.255 155.509 143.479 156.285 142.52 156.285Z" fill="white"/>
<path d="M142.52 157.609C140.831 157.609 139.461 156.239 139.461 154.55V146.059C139.461 144.37 140.831 143 142.52 143C144.209 143 145.579 144.37 145.579 146.059V154.596C145.579 156.239 144.209 157.609 142.52 157.609ZM142.52 145.648C142.291 145.648 142.109 145.831 142.109 146.059V154.596C142.109 154.824 142.291 155.007 142.52 155.007C142.748 155.007 142.931 154.824 142.931 154.596V146.059C142.931 145.831 142.748 145.648 142.52 145.648Z" fill="#3D332B"/>
<path d="M162.88 163.635H87.5515C86.821 163.635 86.2275 163.042 86.2275 162.311C86.2275 161.581 86.821 160.987 87.5515 160.987H162.835C163.565 160.987 164.159 161.581 164.159 162.311C164.204 163.042 163.611 163.635 162.88 163.635Z" fill="#3D332B"/>
<path d="M103.942 178.883H95.7703C95.0398 178.883 94.4463 178.29 94.4463 177.559V169.387C94.4463 168.657 95.0398 168.064 95.7703 168.064H103.942C104.673 168.064 105.266 168.657 105.266 169.387V177.559C105.312 178.29 104.718 178.883 103.942 178.883ZM97.1399 176.19H102.618V170.711H97.1399V176.19Z" fill="#3D332B"/>
<path d="M103.942 208.467H95.7703C95.0398 208.467 94.4463 207.873 94.4463 207.143V198.971C94.4463 198.24 95.0398 197.647 95.7703 197.647H103.942C104.673 197.647 105.266 198.24 105.266 198.971V207.143C105.312 207.873 104.718 208.467 103.942 208.467ZM97.1399 205.819H102.618V200.34H97.1399V205.819Z" fill="#3D332B"/>
<path d="M103.942 193.584H95.7703C95.0398 193.584 94.4463 192.99 94.4463 192.26V184.088C94.4463 183.357 95.0398 182.764 95.7703 182.764H100.29C101.02 182.764 101.614 183.357 101.614 184.088C101.614 184.818 101.02 185.412 100.29 185.412H97.0942V190.89H102.573V187.968C102.573 187.238 103.166 186.644 103.897 186.644C104.627 186.644 105.221 187.238 105.221 187.968V192.214C105.312 192.99 104.718 193.584 103.942 193.584Z" fill="#3D332B"/>
<path d="M100.289 190.342C100.061 190.342 99.8782 190.297 99.6499 190.205L97.8237 189.247C97.1846 188.882 96.9107 188.105 97.2759 187.466C97.6411 186.827 98.4172 186.553 99.0564 186.918L99.8782 187.329L104.033 181.394C104.444 180.801 105.265 180.664 105.859 181.075C106.452 181.486 106.589 182.307 106.178 182.901L101.339 189.795C101.111 190.16 100.7 190.342 100.289 190.342Z" fill="#3D332B"/>
<path d="M138.365 178.883H130.193C129.463 178.883 128.869 178.29 128.869 177.559V169.387C128.869 168.657 129.463 168.063 130.193 168.063H138.365C139.096 168.063 139.689 168.657 139.689 169.387V177.559C139.689 178.29 139.096 178.883 138.365 178.883ZM131.563 176.19H137.041V170.711H131.563V176.19Z" fill="#3D332B"/>
<path d="M138.365 208.467H130.193C129.463 208.467 128.869 207.873 128.869 207.143V198.971C128.869 198.24 129.463 197.647 130.193 197.647H138.365C139.096 197.647 139.689 198.24 139.689 198.971V207.143C139.689 207.873 139.096 208.467 138.365 208.467ZM131.563 205.819H137.041V200.34H131.563V205.819Z" fill="#3D332B"/>
<path d="M138.365 193.584H130.193C129.463 193.584 128.869 192.99 128.869 192.26V184.088C128.869 183.357 129.463 182.764 130.193 182.764H134.713C135.443 182.764 136.037 183.357 136.037 184.088C136.037 184.818 135.443 185.412 134.713 185.412H131.517V190.89H136.996V187.968C136.996 187.238 137.589 186.644 138.319 186.644C139.05 186.644 139.643 187.238 139.643 187.968V192.214C139.689 192.99 139.096 193.584 138.365 193.584Z" fill="#3D332B"/>
<path d="M134.712 190.342C134.484 190.342 134.301 190.297 134.073 190.205L132.247 189.247C131.607 188.882 131.334 188.105 131.699 187.466C132.064 186.827 132.84 186.553 133.479 186.918L134.301 187.329L138.455 181.394C138.866 180.801 139.688 180.664 140.282 181.075C140.875 181.486 141.012 182.307 140.601 182.901L135.762 189.795C135.534 190.16 135.123 190.342 134.712 190.342Z" fill="#3D332B"/>
<path d="M154.662 194.862H146.49C145.76 194.862 145.166 194.269 145.166 193.538V184.27C145.166 183.54 145.76 182.947 146.49 182.947H154.662C155.392 182.947 155.986 183.54 155.986 184.27V193.492C155.986 194.269 155.392 194.862 154.662 194.862ZM147.814 192.168H153.292V185.594H147.814V192.168Z" fill="#3D332B"/>
<path d="M154.662 178.838H146.49C145.76 178.838 145.166 178.244 145.166 177.514V169.387C145.166 168.657 145.76 168.063 146.49 168.063H151.01C151.74 168.063 152.334 168.657 152.334 169.387C152.334 170.118 151.74 170.711 151.01 170.711H147.814V176.19H153.292V173.268C153.292 172.537 153.886 171.944 154.616 171.944C155.347 171.944 155.94 172.537 155.94 173.268V177.514C155.986 178.244 155.392 178.838 154.662 178.838Z" fill="#3D332B"/>
<path d="M150.965 175.642C150.737 175.642 150.554 175.596 150.326 175.505L148.5 174.546C147.86 174.181 147.586 173.405 147.952 172.766C148.317 172.127 149.093 171.853 149.732 172.218L150.554 172.629L154.708 166.694C155.119 166.1 155.941 165.963 156.535 166.374C157.128 166.785 157.265 167.607 156.854 168.2L152.015 175.094C151.787 175.414 151.376 175.642 150.965 175.642Z" fill="#3D332B"/>
<path d="M121.884 193.766H113.712C112.981 193.766 112.388 193.173 112.388 192.442V184.27C112.388 183.54 112.981 182.947 113.712 182.947H121.884C122.614 182.947 123.208 183.54 123.208 184.27V192.442C123.208 193.173 122.614 193.766 121.884 193.766ZM115.081 191.118H120.56V185.64H115.081V191.118Z" fill="#3D332B"/>
<path d="M121.884 178.838H113.712C112.981 178.838 112.388 178.244 112.388 177.514V169.387C112.388 168.657 112.981 168.063 113.712 168.063H118.231C118.962 168.063 119.555 168.657 119.555 169.387C119.555 170.118 118.962 170.711 118.231 170.711H115.036V176.19H120.514V173.268C120.514 172.537 121.108 171.944 121.838 171.944C122.569 171.944 123.162 172.537 123.162 173.268V177.514C123.208 178.244 122.614 178.838 121.884 178.838Z" fill="#3D332B"/>
<path d="M118.232 175.642C118.004 175.642 117.822 175.596 117.593 175.505L115.767 174.546C115.128 174.181 114.854 173.405 115.219 172.766C115.584 172.127 116.361 171.853 117 172.218L117.822 172.629L121.976 166.694C122.387 166.1 123.209 165.963 123.802 166.374C124.396 166.785 124.533 167.607 124.122 168.201L119.328 175.048C119.054 175.414 118.643 175.642 118.232 175.642Z" fill="#3D332B"/>
<path d="M121.884 208.558H113.712C112.981 208.558 112.388 207.964 112.388 207.234V199.062C112.388 198.332 112.981 197.738 113.712 197.738H118.231C118.962 197.738 119.555 198.332 119.555 199.062C119.555 199.792 118.962 200.386 118.231 200.386H115.036V205.864H120.514V202.943C120.514 202.212 121.108 201.619 121.838 201.619C122.569 201.619 123.162 202.212 123.162 202.943V207.188C123.208 207.964 122.614 208.558 121.884 208.558Z" fill="#3D332B"/>
<path d="M118.231 205.317C118.003 205.317 117.82 205.271 117.592 205.18L115.903 204.267C115.264 203.901 114.99 203.125 115.355 202.486C115.72 201.847 116.496 201.573 117.135 201.938L117.775 202.303L121.929 196.368C122.34 195.775 123.162 195.638 123.755 196.049C124.349 196.46 124.486 197.282 124.075 197.875L119.327 204.769C119.053 205.134 118.642 205.317 118.231 205.317Z" fill="#3D332B"/>
<path d="M168.771 192.671V190.571H159.412V192.671C159.412 194.086 158.316 195.318 156.718 195.775C155.12 196.186 154.024 197.464 154.024 198.879V219.56C154.024 221.386 155.805 222.893 157.996 222.893H170.277C172.469 222.893 174.249 221.386 174.249 219.56V198.879C174.249 197.464 173.153 196.232 171.555 195.775C169.866 195.364 168.771 194.086 168.771 192.671Z" fill="#D6AD8D"/>
<path d="M170.232 224.217H157.951C155.029 224.217 152.655 222.117 152.655 219.56V198.879C152.655 196.825 154.162 195.09 156.353 194.497C157.358 194.223 158.088 193.492 158.088 192.671V190.57C158.088 189.84 158.682 189.247 159.412 189.247H168.771C169.502 189.247 170.095 189.84 170.095 190.57V192.671C170.095 193.492 170.78 194.223 171.83 194.497C174.067 195.09 175.528 196.825 175.528 198.879V219.56C175.528 222.117 173.154 224.217 170.232 224.217ZM160.782 191.894V192.671C160.782 194.725 159.275 196.46 157.084 197.053C156.079 197.327 155.349 198.058 155.349 198.879V219.56C155.349 220.656 156.536 221.569 157.997 221.569H170.278C171.693 221.569 172.926 220.656 172.926 219.56V198.879C172.926 198.058 172.241 197.327 171.191 197.053C168.954 196.46 167.493 194.725 167.493 192.671V191.894H160.782Z" fill="#3D332B"/>
<path d="M169.272 191.392H158.909C158.452 191.392 158.087 190.981 158.133 190.525L158.452 187.968C158.498 187.557 158.818 187.283 159.228 187.283H168.998C169.409 187.283 169.729 187.603 169.775 187.968L170.094 190.525C170.14 190.981 169.774 191.392 169.272 191.392Z" fill="white"/>
<path d="M169.273 192.716H158.909C158.316 192.716 157.722 192.442 157.357 192.031C156.946 191.575 156.764 190.981 156.855 190.388L157.175 187.831C157.312 186.781 158.179 185.959 159.275 185.959H169.045C170.095 185.959 171.008 186.781 171.145 187.831L171.464 190.388C171.556 190.981 171.327 191.575 170.962 192.031C170.46 192.442 169.912 192.716 169.273 192.716ZM159.549 190.068H168.679L168.497 188.607H159.686L159.549 190.068Z" fill="#3D332B"/>
<path d="M173.84 202.212H164.526V215.497H173.84V202.212Z" fill="white"/>
<path d="M173.794 216.821H164.526C163.796 216.821 163.202 216.228 163.202 215.497V202.212C163.202 201.482 163.796 200.888 164.526 200.888H173.839C174.57 200.888 175.163 201.482 175.163 202.212V215.497C175.118 216.228 174.524 216.821 173.794 216.821ZM165.85 214.173H172.47V203.536H165.85V214.173Z" fill="#3D332B"/>
<path d="M161.192 189.384L165.118 185.275C165.346 185.001 165.255 184.499 164.89 184.088L162.059 181.303C161.648 180.938 161.146 180.801 160.918 181.075L156.992 185.184C156.855 185.321 154.8 184.088 154.663 184.271L126.632 214.356C126.495 214.493 126.54 214.813 126.769 215.086L132.704 220.93C132.932 221.158 133.252 221.204 133.434 221.067L161.922 191.255C162.059 191.027 161.055 189.521 161.192 189.384Z" fill="white"/>
<path d="M133.206 222.437C132.704 222.437 132.202 222.208 131.791 221.843L125.856 215.999C125.08 215.223 125.034 214.128 125.673 213.443L153.659 183.403C154.435 182.581 155.303 183.038 156.398 183.586C156.444 183.631 156.535 183.677 156.627 183.677L159.959 180.207C160.279 179.842 160.735 179.659 161.283 179.659C161.922 179.659 162.516 179.933 163.018 180.39L165.849 183.175C166.762 184.088 166.899 185.412 166.123 186.188L162.79 189.657C163.201 190.434 163.657 191.347 162.927 192.123L134.393 221.934C134.074 222.254 133.663 222.437 133.206 222.437ZM128.23 214.584L133.115 219.423L160.37 190.89C159.959 190.114 159.503 189.201 160.233 188.425L163.703 184.818L161.375 182.536L157.905 186.142C157.174 186.918 156.307 186.507 155.211 185.96C155.166 185.914 155.074 185.914 155.029 185.868L128.23 214.584Z" fill="#3D332B"/>
<path d="M125.217 213.488L134.439 222.573L125.217 213.488Z" fill="white"/>
<path d="M134.439 223.943C134.12 223.943 133.754 223.806 133.526 223.578L124.304 214.493C123.802 213.991 123.756 213.123 124.304 212.621C124.806 212.119 125.674 212.073 126.176 212.621L135.398 221.706C135.9 222.208 135.946 223.076 135.398 223.578C135.124 223.806 134.804 223.943 134.439 223.943Z" fill="#3D332B"/>
<path d="M129.875 218.054L123.347 224.856L129.875 218.054Z" fill="white"/>
<path d="M123.346 226.18C123.027 226.18 122.707 226.043 122.433 225.815C121.886 225.313 121.886 224.445 122.388 223.943L128.916 217.141C129.418 216.593 130.286 216.593 130.788 217.095C131.336 217.597 131.336 218.465 130.834 218.967L124.305 225.769C124.031 226.043 123.666 226.18 123.346 226.18Z" fill="#3D332B"/>
<path d="M121.383 222.939L125.537 227.002L121.383 222.939Z" fill="white"/>
<path d="M125.538 228.371C125.218 228.371 124.853 228.234 124.625 228.006L120.47 223.943C119.968 223.441 119.922 222.573 120.47 222.071C120.972 221.569 121.84 221.523 122.342 222.071L126.496 226.134C126.999 226.637 127.044 227.504 126.496 228.006C126.223 228.234 125.857 228.371 125.538 228.371Z" fill="#3D332B"/>
<path d="M163.566 182.81L175.528 170.346L163.566 182.81Z" fill="white"/>
<path d="M163.566 184.133C163.247 184.133 162.927 183.997 162.653 183.768C162.105 183.266 162.105 182.399 162.607 181.896L174.569 169.433C175.071 168.885 175.938 168.885 176.441 169.387C176.988 169.89 176.988 170.757 176.486 171.259L164.525 183.723C164.251 183.997 163.931 184.133 163.566 184.133Z" fill="#3D332B"/>
<path d="M156.354 190.844L158.957 193.447L156.354 190.844Z" fill="white"/>
<path d="M159.002 194.771C158.682 194.771 158.317 194.634 158.089 194.406L155.487 191.803C154.985 191.301 154.939 190.434 155.487 189.932C155.989 189.429 156.856 189.384 157.359 189.932L159.961 192.534C160.463 193.036 160.509 193.903 159.961 194.406C159.687 194.634 159.322 194.771 159.002 194.771Z" fill="#3D332B"/>
<path d="M153.386 193.949L155.988 196.551L153.386 193.949Z" fill="white"/>
<path d="M155.988 197.875C155.669 197.875 155.304 197.738 155.075 197.51L152.473 194.908C151.971 194.406 151.925 193.538 152.473 193.036C152.975 192.534 153.843 192.488 154.345 193.036L156.947 195.638C157.449 196.14 157.495 197.008 156.947 197.51C156.673 197.738 156.354 197.875 155.988 197.875Z" fill="#3D332B"/>
<path d="M150.372 197.099L152.974 199.701L150.372 197.099Z" fill="white"/>
<path d="M153.021 200.98C152.701 200.98 152.336 200.843 152.108 200.614L149.505 198.012C149.003 197.51 148.957 196.643 149.505 196.14C150.007 195.638 150.875 195.593 151.377 196.14L153.979 198.743C154.482 199.245 154.527 200.112 153.979 200.614C153.705 200.843 153.34 200.98 153.021 200.98Z" fill="#3D332B"/>
<path d="M147.404 200.203L150.007 202.806L147.404 200.203Z" fill="white"/>
<path d="M150.007 204.084C149.687 204.084 149.322 203.947 149.094 203.719L146.492 201.117C145.989 200.614 145.944 199.747 146.492 199.245C146.994 198.743 147.861 198.697 148.363 199.245L150.966 201.847C151.468 202.349 151.514 203.217 150.966 203.719C150.737 203.993 150.372 204.084 150.007 204.084Z" fill="#3D332B"/>
<path d="M144.438 203.308L147.04 205.91L144.438 203.308Z" fill="white"/>
<path d="M147.04 207.234C146.721 207.234 146.355 207.097 146.127 206.869L143.525 204.267C143.023 203.765 142.977 202.897 143.525 202.395C144.027 201.893 144.894 201.847 145.397 202.395L147.999 204.997C148.501 205.499 148.547 206.367 147.999 206.869C147.725 207.097 147.405 207.234 147.04 207.234Z" fill="#3D332B"/>
<path d="M141.426 206.412L144.028 209.014L141.426 206.412Z" fill="white"/>
<path d="M144.073 210.338C143.754 210.338 143.389 210.201 143.16 209.973L140.558 207.371C140.056 206.869 140.01 206.001 140.558 205.499C141.06 204.997 141.928 204.951 142.43 205.499L145.032 208.101C145.534 208.604 145.58 209.471 145.032 209.973C144.758 210.201 144.393 210.338 144.073 210.338Z" fill="#3D332B"/>
<path d="M138.457 209.563L141.059 212.165L138.457 209.563Z" fill="white"/>
<path d="M141.06 213.443C140.74 213.443 140.375 213.306 140.147 213.078L137.544 210.475C137.042 209.973 136.996 209.106 137.544 208.604C138.047 208.102 138.914 208.056 139.416 208.604L142.018 211.206C142.521 211.708 142.566 212.576 142.018 213.078C141.744 213.306 141.425 213.443 141.06 213.443Z" fill="#3D332B"/>
<path d="M261.677 191.834V219.591C261.677 224.567 257.613 228.63 252.637 228.63H213.831C208.855 228.63 204.792 224.567 204.792 219.591V143.259C204.792 138.283 208.855 134.219 213.831 134.219H252.637C256.883 134.219 260.49 137.187 261.448 141.159L261.677 191.834Z" fill="#EA8F51"/>
<path d="M252.637 230H213.831C208.124 230 203.468 225.343 203.468 219.637V143.259C203.468 137.552 208.124 132.896 213.831 132.896H252.637C257.476 132.896 261.829 137.139 262.925 141.842C263.107 142.572 262.453 142.3 261.722 142.483C260.992 142.665 260.307 142.209 260.124 141.478C259.302 138.054 256.152 135.543 252.591 135.543H213.786C209.54 135.543 206.07 139.013 206.07 143.259V219.637C206.07 223.882 209.54 227.352 213.786 227.352H252.591C256.837 227.352 260.307 223.882 260.307 219.637V142.124C260.307 141.393 260.9 140.8 261.631 140.8C262.361 140.8 262.955 141.393 262.955 142.124V219.637C263 225.343 258.344 230 252.637 230Z" fill="#3D332B"/>
<path d="M255.421 189.642L255.512 213.291C255.512 215.573 253.64 217.445 251.312 217.445H215.154C212.826 217.445 210.954 215.573 210.954 213.291V144.491C210.954 142.209 212.826 140.337 215.154 140.337H251.358C251.358 140.337 255.604 140.383 255.832 144.354L255.421 189.642Z" fill="white"/>
<path d="M251.267 218.815H215.109C212.05 218.815 209.585 216.35 209.585 213.336V144.491C209.585 141.478 212.05 139.013 215.109 139.013H251.313C253.23 139.013 256.472 140.219 256.7 144.328C256.746 145.058 256.198 145.697 255.468 145.743C254.737 145.788 254.098 145.241 254.052 144.51C253.915 141.954 251.769 141.706 251.267 141.706H215.063C213.466 141.706 212.187 142.985 212.187 144.537V213.382C212.187 214.934 213.466 216.213 215.063 216.213H251.267C252.865 216.213 254.143 214.934 254.143 213.382L254.052 144.124C254.052 143.394 254.645 142.8 255.376 142.8C256.106 142.8 256.7 143.394 256.7 144.124L256.791 213.382C256.791 216.35 254.326 218.815 251.267 218.815Z" fill="#3D332B"/>
<path d="M217.805 201.056C218.581 201.832 219.403 202.654 220.179 203.43L222.735 205.986C223.511 206.763 224.288 207.539 225.064 208.315L217.805 201.056Z" fill="white"/>
<path d="M225.017 209.639C224.698 209.639 224.333 209.502 224.059 209.228L216.845 202.015C216.343 201.512 216.343 200.645 216.845 200.143C217.348 199.641 218.215 199.641 218.717 200.143L225.931 207.356C226.433 207.858 226.433 208.726 225.931 209.228C225.702 209.502 225.383 209.639 225.017 209.639Z" fill="#3D332B"/>
<path d="M225.063 201.102C224.287 201.878 223.465 202.699 222.689 203.476L220.132 206.032C219.356 206.808 218.58 207.584 217.804 208.36L225.063 201.102Z" fill="white"/>
<path d="M217.849 209.639C217.529 209.639 217.164 209.502 216.89 209.228C216.388 208.726 216.388 207.858 216.89 207.356L224.104 200.143C224.606 199.641 225.473 199.641 225.975 200.143C226.478 200.645 226.478 201.512 225.975 202.015L218.762 209.228C218.488 209.547 218.169 209.639 217.849 209.639Z" fill="#3D332B"/>
<path d="M241.452 152.846H217.027C216.297 152.846 215.703 152.252 215.703 151.522C215.703 150.791 216.297 150.198 217.027 150.198H241.452C242.182 150.198 242.776 150.791 242.776 151.522C242.776 152.252 242.182 152.846 241.452 152.846Z" fill="#3D332B"/>
<path d="M236.065 162.433H217.575C216.844 162.433 216.251 161.84 216.251 161.109C216.251 160.379 216.844 159.785 217.575 159.785H236.065C236.795 159.785 237.389 160.379 237.389 161.109C237.389 161.84 236.795 162.433 236.065 162.433Z" fill="#3D332B"/>
<path d="M239.351 203.886L242.501 207.036L249.897 199.914L239.351 203.886Z" fill="white"/>
<path d="M242.501 208.36C242.182 208.36 241.816 208.223 241.542 207.949L238.392 204.799C237.89 204.297 237.89 203.43 238.392 202.927C238.894 202.425 239.762 202.425 240.264 202.927L242.501 205.164L248.938 198.956C249.486 198.453 250.308 198.453 250.81 199.001C251.312 199.549 251.312 200.371 250.764 200.873L243.369 207.995C243.14 208.223 242.821 208.36 242.501 208.36Z" fill="#3D332B"/>
<path d="M239.352 224.522H227.756C227.025 224.522 226.432 223.928 226.432 223.198C226.432 222.467 227.025 221.874 227.756 221.874H239.352C240.082 221.874 240.676 222.467 240.676 223.198C240.676 223.928 240.082 224.522 239.352 224.522Z" fill="#3D332B"/>
<rect x="135.5" y="44.5" width="61" height="87" rx="6.5" fill="white" stroke="#3D332B" stroke-width="3"/>
<rect x="141.5" y="50.5" width="49" height="74" rx="2.5" fill="white" stroke="#3D332B" stroke-width="3"/>
<path d="M150.5 41C150.5 40.7239 150.724 40.5 151 40.5H158.012C159.558 40.5 160.92 39.4862 161.364 38.0057L162.009 35.8563C162.073 35.6448 162.267 35.5 162.488 35.5H169.512C169.733 35.5 169.927 35.6448 169.991 35.8563L170.636 38.0057C171.08 39.4862 172.442 40.5 173.988 40.5H181C181.276 40.5 181.5 40.7239 181.5 41V51C181.5 51.2761 181.276 51.5 181 51.5H151C150.724 51.5 150.5 51.2761 150.5 51V41Z" fill="#D6AD8D" stroke="#3D332B" stroke-width="3"/>
<path d="M162.372 70.9107C161.096 70.9107 160.08 69.8638 160.08 68.6134V65.6181C160.08 64.3386 161.125 63.3208 162.372 63.3208C163.649 63.3208 164.665 64.3677 164.665 65.6181V68.5843C164.665 69.8638 163.649 70.9107 162.372 70.9107Z" fill="#FF878A"/>
<path d="M162.372 71.7541C160.631 71.7541 159.238 70.3292 159.238 68.6135V65.6182C159.238 63.8734 160.66 62.4775 162.372 62.4775C164.113 62.4775 165.506 63.9025 165.506 65.6182V68.5844C165.506 70.3292 164.113 71.7541 162.372 71.7541ZM162.372 64.1642C161.56 64.1642 160.921 64.833 160.921 65.6182V68.5844C160.921 69.3986 161.589 70.0384 162.372 70.0384C163.185 70.0384 163.823 69.3695 163.823 68.5844V65.6182C163.823 64.804 163.185 64.1642 162.372 64.1642Z" fill="#3D332B"/>
<path d="M156.134 76.4366C154.857 76.4366 153.842 75.3897 153.842 74.1392V71.144C153.842 69.8645 154.886 68.8466 156.134 68.8466C157.411 68.8466 158.427 69.8935 158.427 71.144V74.1102C158.427 75.3897 157.411 76.4366 156.134 76.4366Z" fill="#FF878A"/>
<path d="M156.134 77.28C154.393 77.28 153 75.855 153 74.1393V71.1441C153 69.3992 154.422 68.0034 156.134 68.0034C157.875 68.0034 159.268 69.4283 159.268 71.1441V74.1102C159.268 75.855 157.875 77.28 156.134 77.28ZM156.134 69.69C155.321 69.69 154.683 70.3589 154.683 71.1441V74.1102C154.683 74.9245 155.35 75.5642 156.134 75.5642C156.946 75.5642 157.585 74.8954 157.585 74.1102V71.1441C157.585 70.3298 156.946 69.69 156.134 69.69Z" fill="#3D332B"/>
<path d="M172.907 79.8381L169.512 75.3016C168.612 74.0802 167.161 73.4695 165.739 73.5568C164.318 73.4695 162.896 74.0802 161.967 75.3016L158.572 79.8381C157.121 81.7865 157.498 84.5491 159.443 86.0031C161.387 87.4571 164.143 87.0791 165.594 85.1307L165.739 84.9562L165.884 85.1307C167.335 87.0791 170.121 87.4571 172.036 86.0031C173.951 84.5491 174.358 81.7574 172.907 79.8381Z" fill="#FF878A"/>
<path d="M162.083 87.7188C160.98 87.7188 159.878 87.3698 158.949 86.6719C157.846 85.8286 157.121 84.6072 156.918 83.2113C156.715 81.8155 157.063 80.4487 157.904 79.3146L161.299 74.7781C162.344 73.3822 163.998 72.6262 165.739 72.6843C167.48 72.5971 169.134 73.3822 170.179 74.7781L173.574 79.3146C175.315 81.641 174.851 84.9271 172.529 86.6719C170.44 88.2422 167.538 88.0096 165.739 86.2357C164.723 87.2244 163.418 87.7188 162.083 87.7188ZM165.739 84.1128C166 84.1128 166.261 84.2291 166.406 84.4618L166.552 84.6363C167.741 86.2066 169.976 86.5265 171.543 85.3342C173.11 84.1419 173.429 81.9027 172.239 80.3324L168.844 75.7959C168.148 74.8362 166.987 74.3128 165.797 74.371C165.768 74.371 165.739 74.371 165.71 74.371C164.52 74.3128 163.389 74.8362 162.663 75.7959L159.268 80.3324C158.688 81.0885 158.456 82.0191 158.601 82.9787C158.746 83.9383 159.21 84.7526 159.994 85.3342C161.561 86.5265 163.795 86.2066 164.985 84.6363L165.13 84.4618C165.217 84.2291 165.478 84.1128 165.739 84.1128Z" fill="#3D332B"/>
<path d="M169.627 70.9107C170.904 70.9107 171.92 69.8638 171.92 68.6134V65.6181C171.92 64.3386 170.875 63.3208 169.627 63.3208C168.351 63.3208 167.335 64.3677 167.335 65.6181V68.5843C167.335 69.8638 168.38 70.9107 169.627 70.9107Z" fill="#FF878A"/>
<path d="M169.627 71.7541C167.886 71.7541 166.493 70.3292 166.493 68.6135V65.6182C166.493 63.8734 167.915 62.4775 169.627 62.4775C171.339 62.4775 172.761 63.9025 172.761 65.6182V68.5844C172.79 70.3292 171.368 71.7541 169.627 71.7541ZM169.627 64.1642C168.815 64.1642 168.176 64.833 168.176 65.6182V68.5844C168.176 69.3986 168.844 70.0384 169.627 70.0384C170.44 70.0384 171.078 69.3695 171.078 68.5844V65.6182C171.107 64.804 170.44 64.1642 169.627 64.1642Z" fill="#3D332B"/>
<path d="M175.866 76.4366C177.142 76.4366 178.158 75.3897 178.158 74.1393V71.144C178.158 69.8645 177.113 68.8467 175.866 68.8467C174.589 68.8467 173.573 69.8936 173.573 71.144V74.1102C173.573 75.3897 174.618 76.4366 175.866 76.4366Z" fill="#FF878A"/>
<path d="M175.865 77.28C174.124 77.28 172.731 75.8551 172.731 74.1393V71.1441C172.731 69.3993 174.153 68.0034 175.865 68.0034C177.606 68.0034 178.999 69.4283 178.999 71.1441V74.1103C179.028 75.8551 177.606 77.28 175.865 77.28ZM175.865 69.6901C175.053 69.6901 174.414 70.3589 174.414 71.1441V74.1103C174.414 74.9245 175.082 75.5643 175.865 75.5643C176.678 75.5643 177.316 74.8954 177.316 74.1103V71.1441C177.345 70.3298 176.678 69.6901 175.865 69.6901Z" fill="#3D332B"/>
<path d="M182.614 96H148.36C147.601 96 147 95.3365 147 94.5C147 93.6635 147.601 93 148.36 93H182.64C183.399 93 184 93.6635 184 94.5C183.974 95.3365 183.372 96 182.614 96Z" fill="#3D332B"/>
<path d="M182.64 105H148.36C147.601 105 147 104.337 147 103.5C147 102.663 147.601 102 148.36 102H182.64C183.399 102 184 102.663 184 103.5C184 104.337 183.399 105 182.64 105Z" fill="#3D332B"/>
<path d="M182.64 115H148.36C147.601 115 147 114.337 147 113.5C147 112.663 147.601 112 148.36 112H182.64C183.399 112 184 112.663 184 113.5C184 114.337 183.399 115 182.64 115Z" fill="#3D332B"/>
</svg>
