<svg width="321" height="295" viewBox="0 0 321 295" fill="none" xmlns="http://www.w3.org/2000/svg">
<path fill-rule="evenodd" clip-rule="evenodd" d="M215.806 63.1793C228.139 68.5905 238.264 77.1238 248.857 84.7088C266.691 97.8882 267.651 118.239 271.223 137.689C275.604 162.255 279.852 187.092 271.504 211.104C261.02 242.485 255.6 247.728 217.619 250.044C180.307 252.353 143.921 243.664 108.202 231.936C83.8752 223.807 67.7798 208.116 59.9822 183.718C48.6898 149.172 43.8959 114.633 52.8326 77.9401C59.569 50.7743 82.1324 39.1665 104.975 38.1407C144.365 36.6881 180.419 49.0878 215.806 63.1793Z" fill="#F5E9DB"/>
<path d="M127.672 101.602L125.345 91.8221C124.812 89.6828 125.269 87.3907 126.528 85.4424L134.764 72.9504C135.184 72.301 135.832 71.8808 136.557 71.6898L146.128 69.3977C146.853 69.2067 147.616 69.3213 148.302 69.7033L161.306 77.1144C163.327 78.2605 164.738 80.0942 165.272 82.2717L167.598 92.0513L178.847 139.116C179.381 141.293 177.856 143.471 175.491 144.044L144.222 151.531C141.857 152.104 139.493 150.806 138.959 148.666L127.672 101.602Z" fill="white"/>
<path d="M143.039 152.792C142.086 152.792 141.171 152.563 140.332 152.104C139.073 151.417 138.196 150.271 137.853 148.934L124.239 92.0513C123.667 89.5682 124.125 87.0087 125.574 84.793L133.811 72.301C134.383 71.4223 135.26 70.8111 136.251 70.5819L145.823 68.2898C146.814 68.0606 147.882 68.2134 148.797 68.71L161.801 76.1212C164.089 77.42 165.691 79.5211 166.263 81.966L179.876 138.81C180.181 140.147 179.914 141.561 179.114 142.745C178.313 143.891 177.093 144.731 175.682 145.075L144.412 152.563C143.954 152.716 143.497 152.792 143.039 152.792ZM146.776 70.3909C146.624 70.3909 146.471 70.3909 146.357 70.4291L136.785 72.7212C136.328 72.8358 135.908 73.1032 135.679 73.5234L127.442 86.0154C126.337 87.6963 125.955 89.6828 126.413 91.5165L140.027 148.361C140.217 149.086 140.675 149.698 141.399 150.118C142.162 150.538 143.039 150.653 143.916 150.424L175.186 142.936C176.063 142.707 176.826 142.21 177.283 141.523C177.741 140.835 177.893 140.071 177.703 139.345L164.127 82.5008C163.669 80.629 162.449 79.0627 160.695 78.0694L147.691 70.6583C147.425 70.5055 147.119 70.3909 146.776 70.3909Z" fill="#3D332B"/>
<path d="M146.339 91.5067C149.534 90.7395 151.503 87.5228 150.738 84.322C149.972 81.1212 146.761 79.1483 143.566 79.9155C140.37 80.6827 138.401 83.8995 139.167 87.1003C139.933 90.3011 143.144 92.2739 146.339 91.5067Z" fill="#D6AD8D"/>
<path d="M144.946 92.777C141.781 92.777 138.883 90.5995 138.082 87.3524C137.167 83.5704 139.531 79.7502 143.306 78.8334C145.136 78.4132 147.043 78.6806 148.645 79.6738C150.246 80.6671 151.39 82.1951 151.81 84.0288C152.725 87.8108 150.361 91.6309 146.586 92.5478C146.052 92.7006 145.48 92.777 144.946 92.777ZM144.946 80.8581C144.564 80.8581 144.183 80.8963 143.802 81.0109C141.209 81.6221 139.607 84.258 140.217 86.8557C140.827 89.4534 143.459 91.0579 146.052 90.4467C148.645 89.8355 150.246 87.1995 149.636 84.6018C149.331 83.3412 148.569 82.2715 147.463 81.6221C146.7 81.0873 145.823 80.8581 144.946 80.8581Z" fill="#3D332B"/>
<path d="M144.908 83.6468C144.908 83.6468 141.628 70.62 141.781 61.146L144.908 83.6468Z" fill="white"/>
<path d="M144.908 84.7547C144.412 84.7547 143.955 84.4109 143.84 83.9143C143.688 83.3795 140.523 70.6201 140.675 61.1078C140.675 60.4966 141.171 60 141.819 60C142.429 60 142.925 60.5348 142.925 61.1461C142.773 70.3527 145.976 83.2266 146.014 83.3413C146.167 83.9525 145.823 84.5255 145.213 84.6783C145.099 84.7547 144.984 84.7547 144.908 84.7547Z" fill="#3D332B"/>
<path d="M163.555 98.2017C158.827 99.3478 154.098 100.456 149.408 101.602C148.187 101.907 146.967 102.175 145.747 102.48C141.857 103.397 137.929 104.352 134.04 105.269L133.468 102.824C138.997 101.487 144.527 100.15 150.094 98.8512C154.403 97.8197 158.712 96.7883 162.983 95.7568L163.555 98.2017Z" fill="#3D332B"/>
<path d="M173.204 138.314L143.688 145.381L143.307 143.815C153.145 141.446 162.984 139.116 172.822 136.747L173.204 138.314Z" fill="#3D332B"/>
<path d="M165.538 106.415C155.7 108.784 145.861 111.114 136.023 113.482L135.642 111.801C145.48 109.471 155.319 107.103 165.157 104.734L165.538 106.415Z" fill="#3D332B"/>
<path d="M166.911 112.145C157.073 114.514 147.234 116.883 137.396 119.213L137.205 118.411C142.315 117.188 147.463 115.966 152.573 114.743C157.302 113.597 162.03 112.489 166.721 111.343L166.911 112.145Z" fill="#3D332B"/>
<path d="M172.021 133.424C162.182 135.792 152.344 138.161 142.505 140.529L142.314 139.689C147.424 138.466 152.572 137.244 157.682 136.022C162.411 134.875 167.101 133.768 171.83 132.622L172.021 133.424Z" fill="#3D332B"/>
<rect x="139.95" y="123.77" width="28.0865" height="10.0617" transform="rotate(-12.8974 139.95 123.77)" fill="#D6AD8D" stroke="#3D332B" stroke-width="2"/>
<path d="M119.2 149.565V155.749C119.2 157.146 118.139 158.314 116.813 158.314H109.016C107.716 158.314 106.629 157.174 106.629 155.749V149.565C106.629 148.168 107.69 147 109.016 147H116.84C118.139 147 119.2 148.14 119.2 149.565Z" fill="white" stroke="#3D332B" stroke-width="3" stroke-miterlimit="10"/>
<path d="M125.486 160.762V169.695C125.486 171.712 124.425 173.4 123.099 173.4H102.73C101.43 173.4 100.343 171.753 100.343 169.695V160.762C100.343 158.745 101.404 157.057 102.73 157.057H123.125C124.425 157.098 125.486 158.745 125.486 160.762Z" fill="white" stroke="#3D332B" stroke-width="3" stroke-miterlimit="10"/>
<circle cx="112.914" cy="152.029" r="1.25714" fill="#3D332B"/>
<path d="M85.5 196.029C85.5 180.888 97.7738 168.614 112.914 168.614C128.055 168.614 140.329 180.888 140.329 196.029V222.429C140.329 228.543 135.372 233.5 129.257 233.5H96.5714C90.4568 233.5 85.5 228.543 85.5 222.429V196.029Z" fill="white" stroke="#3D332B" stroke-width="3"/>
<path d="M108.492 198.08C107.039 198.08 105.884 196.889 105.884 195.467V192.059C105.884 190.603 107.072 189.445 108.492 189.445C109.945 189.445 111.1 190.636 111.1 192.059V195.433C111.1 196.889 109.945 198.08 108.492 198.08Z" fill="#FF878A"/>
<path d="M108.492 199.04C106.511 199.04 104.927 197.419 104.927 195.467V192.059C104.927 190.073 106.544 188.485 108.492 188.485C110.473 188.485 112.058 190.107 112.058 192.059V195.433C112.058 197.419 110.473 199.04 108.492 199.04ZM108.492 190.404C107.568 190.404 106.842 191.165 106.842 192.059V195.433C106.842 196.36 107.601 197.088 108.492 197.088C109.417 197.088 110.143 196.327 110.143 195.433V192.059C110.143 191.132 109.417 190.404 108.492 190.404Z" fill="#3D332B"/>
<path d="M101.393 204.368C99.9407 204.368 98.7852 203.177 98.7852 201.754V198.346C98.7852 196.89 99.9737 195.732 101.393 195.732C102.846 195.732 104.002 196.923 104.002 198.346V201.721C104.002 203.177 102.846 204.368 101.393 204.368Z" fill="#FF878A"/>
<path d="M101.394 205.327C99.4128 205.327 97.8281 203.706 97.8281 201.754V198.346C97.8281 196.361 99.4459 194.773 101.394 194.773C103.375 194.773 104.959 196.394 104.959 198.346V201.721C104.959 203.706 103.375 205.327 101.394 205.327ZM101.394 196.692C100.469 196.692 99.743 197.453 99.743 198.346V201.721C99.743 202.647 100.502 203.375 101.394 203.375C102.318 203.375 103.044 202.614 103.044 201.721V198.346C103.044 197.42 102.318 196.692 101.394 196.692Z" fill="#3D332B"/>
<path d="M120.475 208.238L116.613 203.076C115.589 201.686 113.938 200.992 112.321 201.091C110.703 200.992 109.085 201.686 108.029 203.076L104.166 208.238C102.515 210.454 102.945 213.598 105.156 215.252C107.368 216.906 110.505 216.476 112.156 214.259L112.321 214.061L112.486 214.259C114.137 216.476 117.306 216.906 119.485 215.252C121.664 213.598 122.126 210.421 120.475 208.238Z" fill="#FF878A"/>
<path d="M108.162 217.204C106.907 217.204 105.652 216.807 104.596 216.013C103.341 215.053 102.516 213.664 102.285 212.076C102.054 210.487 102.45 208.932 103.407 207.642L107.27 202.481C108.459 200.892 110.341 200.032 112.321 200.098C114.302 199.999 116.184 200.892 117.373 202.481L121.236 207.642C123.216 210.289 122.688 214.028 120.047 216.013C117.67 217.8 114.368 217.535 112.321 215.517C111.166 216.641 109.68 217.204 108.162 217.204ZM112.321 213.101C112.619 213.101 112.916 213.234 113.081 213.498L113.246 213.697C114.6 215.483 117.142 215.847 118.924 214.491C120.707 213.134 121.07 210.587 119.717 208.8L115.854 203.639C115.062 202.547 113.741 201.951 112.388 202.017C112.355 202.017 112.321 202.017 112.288 202.017C110.935 201.951 109.647 202.547 108.822 203.639L104.959 208.8C104.299 209.66 104.035 210.719 104.2 211.811C104.365 212.903 104.893 213.829 105.785 214.491C107.567 215.847 110.109 215.483 111.463 213.697L111.628 213.498C111.727 213.234 112.024 213.101 112.321 213.101Z" fill="#3D332B"/>
<path d="M116.745 198.08C118.198 198.08 119.353 196.889 119.353 195.467V192.059C119.353 190.603 118.165 189.445 116.745 189.445C115.292 189.445 114.137 190.636 114.137 192.059V195.433C114.137 196.889 115.325 198.08 116.745 198.08Z" fill="#FF878A"/>
<path d="M116.745 199.04C114.764 199.04 113.18 197.419 113.18 195.467V192.059C113.18 190.073 114.797 188.485 116.745 188.485C118.693 188.485 120.311 190.107 120.311 192.059V195.433C120.344 197.419 118.726 199.04 116.745 199.04ZM116.745 190.404C115.821 190.404 115.095 191.165 115.095 192.059V195.433C115.095 196.36 115.854 197.088 116.745 197.088C117.67 197.088 118.396 196.327 118.396 195.433V192.059C118.429 191.132 117.67 190.404 116.745 190.404Z" fill="#3D332B"/>
<path d="M123.844 204.368C125.296 204.368 126.452 203.177 126.452 201.754V198.346C126.452 196.89 125.263 195.732 123.844 195.732C122.391 195.732 121.235 196.923 121.235 198.346V201.721C121.235 203.177 122.424 204.368 123.844 204.368Z" fill="#FF878A"/>
<path d="M123.844 205.327C121.863 205.327 120.278 203.706 120.278 201.754V198.346C120.278 196.361 121.896 194.773 123.844 194.773C125.825 194.773 127.41 196.394 127.41 198.346V201.721C127.443 203.706 125.825 205.327 123.844 205.327ZM123.844 196.692C122.92 196.692 122.193 197.453 122.193 198.346V201.721C122.193 202.647 122.953 203.375 123.844 203.375C124.768 203.375 125.495 202.614 125.495 201.721V198.346C125.528 197.42 124.768 196.692 123.844 196.692Z" fill="#3D332B"/>
<g clip-path="url(#clip0_633_24151)">
<rect x="194.289" y="156.458" width="4.91566" height="13.1084" fill="white"/>
<rect x="183.639" y="181.855" width="7.37349" height="38.506" fill="#EA8F51"/>
<rect x="213.951" y="206.434" width="19.6627" height="13.9277" fill="#EA8F51"/>
<path d="M209.036 154.819H237.711L233.614 207.253H215.181L209.036 154.819Z" fill="white"/>
<circle cx="223.373" cy="180.626" r="6.96386" fill="#EA8F51"/>
<path d="M187.121 222C184.296 222 182 219.694 182 216.856V185.196C182 182.358 184.296 180.052 187.121 180.052C189.947 180.052 192.243 182.358 192.243 185.196V216.856C192.243 219.694 189.947 222 187.121 222ZM187.121 182.358C185.554 182.358 184.296 183.644 184.296 185.196V216.856C184.296 218.431 185.576 219.694 187.121 219.694C188.689 219.694 189.947 218.408 189.947 216.856V185.196C189.947 183.644 188.689 182.358 187.121 182.358Z" fill="#3D332B"/>
<path d="M187.121 182.357C186.481 182.357 185.973 181.847 185.973 181.204V179.852C185.973 176.438 184.671 173.2 182.309 170.762C182.11 170.54 182 170.274 182 169.963V155.995C182 155.352 182.508 154.842 183.148 154.842C183.788 154.842 184.296 155.352 184.296 155.995V169.52C186.856 172.358 188.269 176.016 188.269 179.874V181.227C188.269 181.847 187.761 182.357 187.121 182.357Z" fill="#3D332B"/>
<path d="M190.212 171.116H183.148C182.508 171.116 182 170.606 182 169.964C182 169.321 182.508 168.811 183.148 168.811H190.212C190.852 168.811 191.36 169.321 191.36 169.964C191.36 170.606 190.852 171.116 190.212 171.116Z" fill="#3D332B"/>
<path d="M190.212 166.46H183.148C182.508 166.46 182 165.95 182 165.307C182 164.664 182.508 164.155 183.148 164.155H190.212C190.852 164.155 191.36 164.664 191.36 165.307C191.36 165.95 190.852 166.46 190.212 166.46Z" fill="#3D332B"/>
<path d="M190.212 161.804H183.148C182.508 161.804 182 161.272 182 160.651C182 160.031 182.508 159.499 183.148 159.499H190.212C190.852 159.499 191.36 160.008 191.36 160.651C191.36 161.294 190.852 161.804 190.212 161.804Z" fill="#3D332B"/>
<path d="M190.212 157.148H183.148C182.508 157.148 182 156.616 182 155.995C182 155.375 182.508 154.842 183.148 154.842H190.212C190.852 154.842 191.36 155.352 191.36 155.995C191.36 156.638 190.852 157.148 190.212 157.148Z" fill="#3D332B"/>
<path d="M199.726 171.116H197.629C194.847 171.116 192.596 168.855 192.596 166.083V155.995C192.596 155.352 193.103 154.842 193.744 154.842H195.841C198.6 154.842 200.852 157.104 200.852 159.875V169.963C200.852 170.606 200.344 171.116 199.726 171.116ZM194.891 157.148V166.083C194.891 167.591 196.106 168.811 197.607 168.811H198.556V159.875C198.556 158.368 197.342 157.148 195.841 157.148H194.891Z" fill="#3D332B"/>
<path d="M233.499 207.611H213.853C213.257 207.611 212.771 207.167 212.705 206.569L208.003 155.264C207.981 154.931 208.07 154.621 208.29 154.377C208.511 154.133 208.82 154 209.129 154H238.201C238.532 154 238.841 154.133 239.04 154.377C239.261 154.621 239.371 154.931 239.327 155.264L234.625 206.569C234.581 207.145 234.073 207.611 233.499 207.611ZM214.891 205.305H232.44L236.943 156.306H210.387L214.891 205.305Z" fill="#3D332B"/>
<path d="M233.545 222H213.81C213.17 222 212.662 221.49 212.662 220.847V206.458C212.662 205.815 213.17 205.305 213.81 205.305H233.545C234.185 205.305 234.692 205.815 234.692 206.458V220.847C234.692 221.49 234.163 222 233.545 222ZM214.958 219.694H232.397V207.611H214.958V219.694Z" fill="#3D332B"/>
<path d="M228.026 213.02H213.81C213.17 213.02 212.662 212.51 212.662 211.868C212.662 211.225 213.17 210.715 213.81 210.715H228.026C228.666 210.715 229.174 211.225 229.174 211.868C229.174 212.51 228.644 213.02 228.026 213.02Z" fill="#3D332B"/>
<path d="M234.029 201.802H213.324C212.683 201.802 212.176 201.292 212.176 200.649C212.176 200.006 212.683 199.496 213.324 199.496H234.029C234.67 199.496 235.177 200.006 235.177 200.649C235.177 201.292 234.648 201.802 234.029 201.802Z" fill="#3D332B"/>
<path d="M231.159 163.134H209.769C209.129 163.134 208.621 162.625 208.621 161.982C208.621 161.339 209.129 160.829 209.769 160.829H231.159C231.799 160.829 232.307 161.339 232.307 161.982C232.307 162.625 231.799 163.134 231.159 163.134Z" fill="#3D332B"/>
<path d="M223.677 189.364C218.975 189.364 215.156 185.528 215.156 180.806C215.156 176.083 218.975 172.247 223.677 172.247C228.379 172.247 232.198 176.083 232.198 180.806C232.198 185.528 228.379 189.364 223.677 189.364ZM223.677 174.553C220.233 174.553 217.452 177.369 217.452 180.806C217.452 184.264 220.255 187.058 223.677 187.058C227.121 187.058 229.902 184.242 229.902 180.806C229.902 177.347 227.099 174.553 223.677 174.553Z" fill="#3D332B"/>
</g>
<defs>
<clipPath id="clip0_633_24151">
<rect width="57.3494" height="68" fill="white" transform="translate(182 154)"/>
</clipPath>
</defs>
</svg>
