<svg width="117" height="28" viewBox="0 0 117 28" fill="none" xmlns="http://www.w3.org/2000/svg">
<path d="M37.7936 4.11975C37.7936 4.93937 37.5426 5.59581 37.0482 6.08537C36.4797 6.66574 35.7394 6.95776 34.8321 6.95776C33.965 6.95776 33.2247 6.66083 32.6173 6.07556C32.0087 5.4817 31.7051 4.75287 31.7051 3.88049C31.7051 3.00811 32.0087 2.27928 32.6173 1.69033C33.2247 1.10015 33.965 0.803223 34.8321 0.803223C35.2638 0.803223 35.6754 0.890338 36.0682 1.0523C36.4597 1.21549 36.7784 1.43634 37.0093 1.70873L36.4848 2.22652C36.082 1.76149 35.5336 1.53205 34.8321 1.53205C34.1997 1.53205 33.6513 1.748 33.1858 2.18358C32.7253 2.62038 32.4944 3.18602 32.4944 3.88049C32.4944 4.57496 32.7253 5.14551 33.1858 5.58231C33.6513 6.01298 34.1997 6.23384 34.8321 6.23384C35.5035 6.23384 36.0682 6.01298 36.5136 5.5774C36.8073 5.28906 36.9742 4.89152 37.0181 4.38355H34.8321V3.67436H37.7484C37.7835 3.82773 37.7936 3.97619 37.7936 4.11975Z" fill="#343638" stroke="#343638" stroke-width="0.2"/>
<path d="M42.4211 1.66068H39.6817V3.52569H42.1513V4.23489H39.6817V6.0999H42.4211V6.82259H38.9062V0.937988H42.4211V1.66068Z" fill="#343638" stroke="#343638" stroke-width="0.2"/>
<path d="M45.6862 6.82259H44.9107V1.66068H43.2305V0.937988H47.3677V1.66068H45.6862V6.82259Z" fill="#343638" stroke="#343638" stroke-width="0.2"/>
<path d="M50.3624 6.82259V0.937988H51.1366V6.82259H50.3624Z" fill="#343638" stroke="#343638" stroke-width="0.2"/>
<path d="M54.568 6.82259H53.7988V1.66068H52.1123V0.937988H56.2545V1.66068H54.568V6.82259Z" fill="#343638" stroke="#343638" stroke-width="0.2"/>
<path fill-rule="evenodd" clip-rule="evenodd" d="M61.8824 6.95776C62.7595 6.95776 63.4948 6.66083 64.0884 6.06574C64.6807 5.47188 64.9756 4.74306 64.9756 3.88049C64.9756 3.02283 64.6807 2.29891 64.0834 1.70015C63.4898 1.10015 62.7545 0.803223 61.8824 0.803223C61.0002 0.803223 60.2649 1.10015 59.6714 1.69524C59.0791 2.2891 58.7842 3.01792 58.7842 3.88049C58.7842 4.74306 59.0791 5.47188 59.6714 6.06574C60.2649 6.66083 61.0002 6.95776 61.8824 6.95776ZM61.8831 6.23404C61.2356 6.23404 60.6923 6.01319 60.2456 5.5727C59.8001 5.13221 59.5742 4.56658 59.5742 3.88069C59.5742 3.19481 59.8001 2.62917 60.2456 2.18869C60.6923 1.7482 61.2356 1.52734 61.8831 1.52734C62.5256 1.52734 63.074 1.7482 63.5157 2.18869C63.9611 2.62917 64.187 3.19481 64.187 3.88069C64.187 4.56658 63.9611 5.13221 63.5157 5.5727C63.074 6.01319 62.5256 6.23404 61.8831 6.23404Z" fill="#343638"/>
<path d="M64.0884 6.06574L64.1592 6.13636L64.1592 6.13636L64.0884 6.06574ZM64.0834 1.70015L64.0123 1.77047L64.0126 1.77077L64.0834 1.70015ZM59.6714 1.69524L59.6005 1.62462L59.6005 1.62462L59.6714 1.69524ZM59.6714 6.06574L59.6005 6.13636L59.6005 6.13636L59.6714 6.06574ZM60.2456 5.5727L60.1752 5.64381L60.1753 5.64391L60.2456 5.5727ZM60.2456 2.18869L60.1753 2.11748L60.1752 2.11758L60.2456 2.18869ZM63.5157 2.18869L63.4451 2.2595L63.4454 2.25979L63.5157 2.18869ZM63.5157 5.5727L63.4454 5.50159L63.4451 5.50189L63.5157 5.5727ZM64.0176 5.99512C63.4437 6.57047 62.7343 6.85776 61.8824 6.85776V7.05776C62.7847 7.05776 63.546 6.75119 64.1592 6.13636L64.0176 5.99512ZM64.8756 3.88049C64.8756 4.71755 64.5905 5.42069 64.0176 5.99513L64.1592 6.13636C64.7708 5.52308 65.0756 4.76856 65.0756 3.88049H64.8756ZM64.0126 1.77077C64.5908 2.35038 64.8756 3.04872 64.8756 3.88049H65.0756C65.0756 2.99694 64.7706 2.24745 64.1542 1.62952L64.0126 1.77077ZM61.8824 0.903223C62.7291 0.903223 63.4384 1.19041 64.0123 1.77047L64.1545 1.62982C63.5412 1.0099 62.7799 0.703223 61.8824 0.703223V0.903223ZM59.7422 1.76586C60.3159 1.19057 61.0254 0.903223 61.8824 0.903223V0.703223C60.9751 0.703223 60.2138 1.00973 59.6005 1.62462L59.7422 1.76586ZM58.8842 3.88049C58.8842 3.04343 59.1692 2.34029 59.7422 1.76585L59.6005 1.62462C58.9889 2.2379 58.6842 2.99242 58.6842 3.88049H58.8842ZM59.7422 5.99513C59.1692 5.42069 58.8842 4.71755 58.8842 3.88049H58.6842C58.6842 4.76856 58.9889 5.52308 59.6005 6.13636L59.7422 5.99513ZM61.8824 6.85776C61.0254 6.85776 60.3159 6.57041 59.7422 5.99512L59.6005 6.13636C60.2138 6.75125 60.9751 7.05776 61.8824 7.05776V6.85776ZM60.1753 5.64391C60.6413 6.10332 61.21 6.33404 61.8831 6.33404V6.13404C61.2612 6.13404 60.7433 5.92305 60.3158 5.50149L60.1753 5.64391ZM59.4742 3.88069C59.4742 4.59075 59.709 5.18282 60.1752 5.64381L60.3159 5.50159C59.8911 5.08161 59.6742 4.5424 59.6742 3.88069H59.4742ZM60.1752 2.11758C59.709 2.57857 59.4742 3.17064 59.4742 3.88069H59.6742C59.6742 3.21898 59.8911 2.67978 60.3159 2.25979L60.1752 2.11758ZM61.8831 1.42734C61.21 1.42734 60.6413 1.65806 60.1753 2.11748L60.3158 2.25989C60.7433 1.83834 61.2612 1.62734 61.8831 1.62734V1.42734ZM63.5863 2.11788C63.1251 1.65793 62.551 1.42734 61.8831 1.42734V1.62734C62.5002 1.62734 63.0229 1.83847 63.4451 2.25949L63.5863 2.11788ZM64.287 3.88069C64.287 3.17064 64.0522 2.57857 63.586 2.11758L63.4454 2.25979C63.8701 2.67978 64.087 3.21898 64.087 3.88069H64.287ZM63.586 5.64381C64.0522 5.18282 64.287 4.59075 64.287 3.88069H64.087C64.087 4.5424 63.8701 5.08161 63.4454 5.50159L63.586 5.64381ZM61.8831 6.33404C62.551 6.33404 63.1251 6.10346 63.5863 5.64351L63.4451 5.50189C63.0229 5.92291 62.5002 6.13404 61.8831 6.13404V6.33404Z" fill="#343638"/>
<path d="M66.0625 6.82259V0.937988H67.0036L69.9299 5.51463H69.9638L69.9299 4.38335V0.937988H70.7042V6.82259H69.896L66.8317 2.02019H66.7978L66.8317 3.15637V6.82259H66.0625H66.0625Z" fill="#343638" stroke="#343638" stroke-width="0.2"/>
<path fill-rule="evenodd" clip-rule="evenodd" d="M70.0679 16.3467H70.0052C69.5836 15.8583 68.7792 15.4166 67.7603 15.4166C65.622 15.4166 63.667 17.2522 63.667 19.6055C63.667 21.9454 65.622 23.7662 67.7603 23.7662C68.7792 23.7662 69.5836 23.3208 70.0052 22.8178H70.0679V23.4165C70.0679 25.0128 69.1958 25.8705 67.7891 25.8705C66.6422 25.8705 65.9307 25.0607 65.6371 24.3797L64.0045 25.046C64.4751 26.1527 65.7212 27.5146 67.7891 27.5146C69.9901 27.5146 71.8473 26.2484 71.8473 23.1675V15.6706H70.0679V16.3467ZM38.1233 16.6963V18.4705H42.4562C42.3295 19.4619 41.9907 20.1907 41.4712 20.6987C40.8387 21.3122 39.8537 21.9931 38.1233 21.9931C35.4567 21.9931 33.3687 19.8889 33.3687 17.2815C33.3687 14.6742 35.4567 12.5699 38.1233 12.5699C39.5651 12.5699 40.6141 13.1208 41.3884 13.8349L42.667 12.5846C41.5841 11.5736 40.1436 10.7969 38.1233 10.7969C34.4667 10.7969 31.3936 13.7061 31.3936 17.2815C31.3936 20.8569 34.4667 23.7661 38.1233 23.7661C40.0996 23.7661 41.5841 23.133 42.7511 21.9453C43.947 20.776 44.3197 19.1318 44.3197 17.8042C44.3197 17.3919 44.2845 17.0128 44.2218 16.6963H38.1233ZM49.245 15.4165C46.8821 15.4165 44.9609 17.1711 44.9609 19.5919C44.9609 21.9931 46.8821 23.7661 49.245 23.7661C51.6066 23.7661 53.529 21.9931 53.529 19.5919C53.529 17.1711 51.6066 15.4165 49.245 15.4165ZM54.3105 19.5919C54.3105 17.1711 56.2367 15.4165 58.5946 15.4165C60.9574 15.4165 62.8836 17.1711 62.8836 19.5919C62.8836 21.9931 60.9574 23.7661 58.5946 23.7661C56.2367 23.7661 54.3105 21.9931 54.3105 19.5919ZM56.1865 19.592C56.1865 21.0779 57.2996 22.1221 58.5933 22.1221C59.887 22.1221 61.0051 21.0779 61.0051 19.592C61.0051 18.0865 59.887 17.0608 58.5933 17.0608C57.2996 17.0608 56.1865 18.0865 56.1865 19.592ZM46.835 19.592C46.835 21.0779 47.9518 22.1221 49.2468 22.1221C50.5405 22.1221 51.6535 21.0779 51.6535 19.592C51.6535 18.0865 50.5405 17.0608 49.2468 17.0608C47.9518 17.0608 46.835 18.0865 46.835 19.592ZM79.951 15.4165C82.1671 15.4165 83.255 17.138 83.6076 18.0717L83.8046 18.5465L78.0939 20.8569C78.5306 21.6962 79.2119 22.122 80.1618 22.122C81.118 22.122 81.7793 21.6618 82.265 20.9674L83.7206 21.9158C83.255 22.5968 82.1232 23.7661 80.1618 23.7661C77.7362 23.7661 75.9268 21.9306 75.9268 19.5919C75.9268 17.1085 77.7551 15.4165 79.951 15.4165ZM77.7835 19.4619C77.7346 17.8521 79.0622 17.0276 80.0134 17.0276C80.7588 17.0276 81.3912 17.392 81.602 17.9135L77.7835 19.4619ZM75.0188 23.5122H73.1416V11.2424L75.0188 11.2424V23.5122ZM65.5439 19.6055C65.5439 21.0632 66.6269 22.122 67.9206 22.122C69.1955 22.122 70.2007 21.0632 70.2007 19.6055C70.2007 18.1344 69.1955 17.0607 67.9206 17.0607C66.6269 17.0607 65.5439 18.1344 65.5439 19.6055ZM92.3951 11.2424H87.9053V23.5122H89.7775V18.8632H92.3951C94.4744 18.8632 96.5135 17.392 96.5135 15.0522C96.5135 12.7136 94.4693 11.2424 92.3951 11.2424ZM89.7773 17.1562H92.4439C93.8418 17.1562 94.6398 16.0017 94.6398 15.052C94.6398 14.0839 93.8418 12.9489 92.4439 12.9489H89.7773V17.1562ZM104.018 15.3933C102.665 15.3933 101.258 15.9773 100.68 17.2718L102.341 17.9528C102.699 17.2718 103.357 17.0509 104.052 17.0509C105.023 17.0509 106.008 17.6215 106.023 18.6288V18.7577C105.684 18.5663 104.959 18.2828 104.067 18.2828C102.277 18.2828 100.454 19.246 100.454 21.0435C100.454 22.6877 101.92 23.7466 103.567 23.7466C104.827 23.7466 105.522 23.1908 105.959 22.5441H106.023V23.4926L107.831 23.4926V18.7859C107.831 16.6105 106.17 15.3933 104.018 15.3933ZM102.326 21.0779C102.326 21.8202 103.179 22.1172 103.792 22.1172C104.876 22.1172 105.876 21.3123 106.023 20.1761C105.522 19.9417 105.136 19.7638 104.311 19.7638C103.39 19.7638 102.326 20.1282 102.326 21.0779ZM114.419 15.6618L112.267 20.9807H112.203L109.978 15.6618H107.959L111.302 23.0948L109.395 27.231H111.351L116.502 15.6618H114.419ZM99.4202 23.5122H97.543V11.2424H99.4202V23.5122Z" fill="#343638"/>
<path d="M0.668671 1.46432C0.373783 1.76616 0.203125 2.23609 0.203125 2.84467L0.203125 24.5524C0.203125 25.161 0.373783 25.6309 0.668671 25.9328L0.741451 25.999L13.1819 13.8396V13.5525L0.741451 1.39315L0.668671 1.46432Z" fill="#343638"/>
<path d="M17.3239 17.895L13.1816 13.8398V13.5527L17.3289 9.49756L17.4217 9.55032L22.3332 12.2828C23.7348 13.0583 23.7348 14.3343 22.3332 15.1147L17.4217 17.8423L17.3239 17.895V17.895Z" fill="#343638"/>
<path d="M17.4223 17.8425L13.1822 13.6966L0.668945 25.9332C1.13449 26.4118 1.89367 26.4694 2.757 25.9909L17.4223 17.8425Z" fill="#343638"/>
<path d="M17.4223 9.55032L2.757 1.40194C1.89367 0.928328 1.13449 0.985996 0.668945 1.46452L13.1822 13.6963L17.4223 9.55032Z" fill="#343638"/>
</svg>
