<svg width="110" height="30" viewBox="0 0 110 30" fill="none" xmlns="http://www.w3.org/2000/svg">
<path d="M17.4703 13.6968C17.4413 10.4738 20.105 8.90579 20.2268 8.83279C18.7183 6.62979 16.38 6.32879 15.5584 6.30479C13.5945 6.09779 11.6896 7.48179 10.6892 7.48179C9.66887 7.48179 8.12836 6.32479 6.46803 6.35879C4.33148 6.39179 2.3327 7.63079 1.23647 9.55479C-1.02588 13.4778 0.6614 19.2428 2.8289 22.4138C3.91315 23.9678 5.18011 25.7008 6.83844 25.6398C8.46082 25.5738 9.06684 24.6048 11.0247 24.6048C12.9646 24.6048 13.5336 25.6398 15.2249 25.6008C16.9661 25.5738 18.0623 24.0408 19.1086 22.4738C20.3616 20.6948 20.8648 18.9408 20.8848 18.8508C20.8448 18.8368 17.5042 17.5588 17.4703 13.6968Z" fill="#343638"/>
<path d="M14.2754 4.21888C15.148 3.12588 15.745 1.63888 15.5793 0.129883C14.3163 0.185883 12.7369 1.00488 11.8273 2.07388C11.0226 3.01588 10.3038 4.55988 10.4895 6.01188C11.9082 6.11788 13.3649 5.29488 14.2754 4.21888Z" fill="#343638"/>
<path fill-rule="evenodd" clip-rule="evenodd" d="M38.7035 25.4169H40.9708L36.6737 12.1089H34.032L29.7539 25.4169H31.9613L33.1444 21.5079H37.4615L38.7035 25.4169ZM35.9646 16.3927L37.0878 19.8677H33.5195L34.6238 16.3927C34.9123 15.2877 35.1229 14.4517 35.2547 13.8857H35.2947C35.6221 15.2017 35.8458 16.0377 35.9646 16.3927Z" fill="#343638"/>
<path fill-rule="evenodd" clip-rule="evenodd" d="M50.6219 24.37C51.5074 23.423 51.9497 22.133 51.9497 20.501C51.9497 19.04 51.5713 17.862 50.8175 16.965C50.0628 16.07 49.1193 15.623 47.9891 15.623C46.5434 15.623 45.4662 16.196 44.7563 17.342H44.7164L44.5976 15.821H42.7256C42.7775 16.899 42.8045 17.95 42.8045 18.975V29.308H44.933V24.273C45.4871 25.181 46.3997 25.634 47.6686 25.634C48.8437 25.634 49.8291 25.213 50.6219 24.37ZM49.1489 18.2683C49.5702 18.8753 49.7798 19.6453 49.7798 20.5793C49.7798 21.5933 49.5562 22.4093 49.1089 23.0283C48.6626 23.6453 48.0387 23.9563 47.2369 23.9563C46.554 23.9563 45.9989 23.7153 45.5716 23.2353C45.1443 22.7533 44.9307 22.1643 44.9307 21.4673V19.8663C44.9307 19.6963 44.9636 19.4813 45.0295 19.2173C45.1603 18.6513 45.4398 18.1943 45.8672 17.8443C46.2935 17.4973 46.7707 17.3213 47.2958 17.3213C48.0706 17.3213 48.6886 17.6373 49.1489 18.2683Z" fill="#343638"/>
<path fill-rule="evenodd" clip-rule="evenodd" d="M61.6414 24.37C62.527 23.423 62.9693 22.133 62.9693 20.501C62.9693 19.04 62.5899 17.862 61.8371 16.965C61.0803 16.07 60.1368 15.623 59.0077 15.623C57.561 15.623 56.4837 16.196 55.7749 17.342H55.7349L55.6161 15.821H53.7441C53.7961 16.899 53.823 17.95 53.823 18.975V29.308H55.9516V24.273C56.5057 25.181 57.4182 25.634 58.6872 25.634C59.8633 25.634 60.8477 25.213 61.6414 24.37ZM60.1674 18.2683C60.5887 18.8753 60.7994 19.6453 60.7994 20.5793C60.7994 21.5933 60.5758 22.4093 60.1285 23.0283C59.6832 23.6453 59.0592 23.9563 58.2565 23.9563C57.5716 23.9563 57.0165 23.7143 56.5892 23.2353C56.1639 22.7533 55.9492 22.1643 55.9492 21.4673V19.8663C55.9492 19.6963 55.9842 19.4813 56.0491 19.2173C56.1798 18.6513 56.4584 18.1943 56.8857 17.8443C57.314 17.4973 57.7912 17.3213 58.3164 17.3213C59.0912 17.3213 59.7072 17.6373 60.1674 18.2683Z" fill="#343638"/>
<path d="M75.2895 21.6836C75.2895 22.8166 74.8942 23.7376 74.1084 24.4486C73.2438 25.2246 72.0368 25.6136 70.4893 25.6136C69.0596 25.6136 67.9134 25.3376 67.0488 24.7846L67.541 23.0076C68.4745 23.5616 69.4999 23.8376 70.6161 23.8376C71.4188 23.8376 72.0428 23.6556 72.4881 23.2946C72.9343 22.9326 73.16 22.4486 73.16 21.8446C73.16 21.3036 72.9733 20.8506 72.6069 20.4816C72.2385 20.1136 71.6294 19.7706 70.7738 19.4556C68.4476 18.5866 67.2834 17.3156 67.2834 15.6436C67.2834 14.5516 67.6948 13.6576 68.5155 12.9586C69.3361 12.2606 70.4244 11.9116 71.7782 11.9116C72.9873 11.9116 73.9946 12.1226 74.7943 12.5436L74.2602 14.2816C73.5074 13.8736 72.6578 13.6696 71.7073 13.6696C70.9565 13.6696 70.3675 13.8546 69.9462 14.2226C69.5917 14.5516 69.412 14.9526 69.412 15.4286C69.412 15.9536 69.6167 16.3896 70.024 16.7316C70.3775 17.0466 71.0224 17.3896 71.9549 17.7576C73.0991 18.2196 73.9397 18.7576 74.4778 19.3756C75.02 19.9936 75.2895 20.7646 75.2895 21.6836Z" fill="#343638"/>
<path d="M82.3444 17.4207H79.9981V22.0797C79.9981 23.2647 80.4115 23.8557 81.2401 23.8557C81.6205 23.8557 81.936 23.8237 82.1856 23.7567L82.2445 25.3757C81.8252 25.5327 81.2731 25.6117 80.5892 25.6117C79.7485 25.6117 79.0916 25.3547 78.6174 24.8407C78.1451 24.3267 77.9075 23.4657 77.9075 22.2537V17.4167H76.5098V15.8167H77.9075V14.0597L79.9981 13.4277V15.8167H82.3444V17.4207Z" fill="#343638"/>
<path fill-rule="evenodd" clip-rule="evenodd" d="M91.6463 24.173C92.487 23.226 92.9083 22.015 92.9083 20.54C92.9083 19.104 92.5019 17.934 91.6853 17.028C90.8306 16.094 89.7015 15.626 88.2957 15.626C86.8371 15.626 85.6769 16.1 84.8153 17.048C83.9557 17.995 83.5244 19.213 83.5244 20.7C83.5244 22.121 83.9417 23.299 84.7764 24.234C85.611 25.167 86.7302 25.634 88.138 25.634C89.5966 25.634 90.7667 25.148 91.6463 24.173ZM90.1321 18.3251C90.5125 18.9561 90.7022 19.7101 90.7022 20.5891C90.7022 21.4701 90.5055 22.2291 90.1142 22.8751C89.6529 23.6481 89.0149 24.0371 88.2012 24.0371C87.3696 24.0371 86.7276 23.6561 86.2674 22.8941C85.886 22.2651 85.6963 21.5091 85.6963 20.6291C85.6963 19.7231 85.886 18.9561 86.2674 18.3251C86.7126 17.5631 87.3666 17.1821 88.2192 17.1821C89.0469 17.1821 89.6859 17.5631 90.1321 18.3251Z" fill="#343638"/>
<path d="M99.8328 17.696C99.6221 17.657 99.3965 17.637 99.1619 17.637C98.4131 17.637 97.834 17.919 97.4267 18.487C97.0733 18.987 96.8955 19.619 96.8955 20.382V25.417H94.767V18.843C94.767 17.738 94.746 16.73 94.7051 15.822H96.5591L96.637 17.658H96.6959C96.9215 17.027 97.2749 16.518 97.7602 16.137C98.2344 15.794 98.7466 15.623 99.2987 15.623C99.4954 15.623 99.6731 15.637 99.8308 15.662L99.8328 17.696Z" fill="#343638"/>
<path fill-rule="evenodd" clip-rule="evenodd" d="M109.274 21.1319C109.327 20.8689 109.352 20.5469 109.352 20.1649C109.352 18.9679 109.07 17.9599 108.508 17.1469C107.798 16.1209 106.752 15.6079 105.372 15.6079C103.966 15.6079 102.849 16.1209 102.022 17.1469C101.232 18.1079 100.838 19.3129 100.838 20.7589C100.838 22.2319 101.262 23.4079 102.109 24.2829C102.957 25.1569 104.124 25.5949 105.609 25.5949C106.844 25.5949 107.914 25.3979 108.821 25.0019L108.488 23.5229C107.712 23.8259 106.849 23.9759 105.904 23.9759C105.049 23.9759 104.353 23.7519 103.815 23.3059C103.222 22.8059 102.913 22.0799 102.889 21.1319H109.274ZM106.91 17.973C107.199 18.434 107.338 18.979 107.323 19.612L102.891 19.61C102.956 18.967 103.166 18.413 103.521 17.952C103.952 17.372 104.519 17.083 105.215 17.083C105.975 17.083 106.542 17.379 106.91 17.973Z" fill="#343638"/>
<path fill-rule="evenodd" clip-rule="evenodd" d="M34.9438 7.34569H36.059L33.9454 0.804688H32.6475L30.5449 7.34569H31.6302L32.2122 5.42469H34.3338L34.9438 7.34569ZM33.5985 2.91071L34.1507 4.61871H32.3965L32.9386 2.91071C33.071 2.41772 33.163 2.03601 33.2296 1.75959C33.2364 1.73155 33.2429 1.70459 33.2491 1.67871H33.2691C33.4338 2.32871 33.5406 2.73571 33.5985 2.91071Z" fill="#343638"/>
<path d="M41.3167 2.62988L39.5336 7.34588H38.5162L36.791 2.62988H37.9152L38.7199 5.12388C38.8557 5.54088 38.9715 5.93888 39.0584 6.31688H39.0873C39.1652 5.97788 39.281 5.57988 39.4258 5.12388L40.2205 2.62988H41.3167Z" fill="#343638"/>
<path fill-rule="evenodd" clip-rule="evenodd" d="M45.0349 6.80271L45.1128 7.34572L46.0543 7.34671C46.0064 7.06571 45.9864 6.69671 45.9864 6.22071V4.48371C45.9864 3.18271 45.3654 2.53271 44.1354 2.53271C43.4954 2.53271 42.9533 2.66871 42.517 2.94071L42.7296 3.62971C43.0871 3.39671 43.4944 3.27971 43.9597 3.27971C44.6086 3.27971 44.9381 3.59071 44.9381 4.21171V4.29871C43.1939 4.29871 42.1865 4.90071 42.1865 6.06471C42.1865 6.86071 42.7876 7.45271 43.6302 7.45271C44.2212 7.45271 44.6865 7.23971 45.006 6.80271H45.0349ZM43.2217 5.94758C43.2217 5.27858 43.8027 4.99658 44.9659 4.99658V5.72458C44.9659 6.27758 44.4717 6.68458 43.9385 6.68458C43.5222 6.68458 43.2217 6.44258 43.2217 5.94758Z" fill="#343638"/>
<path fill-rule="evenodd" clip-rule="evenodd" d="M47.6963 1.22207C47.6963 1.58107 47.9679 1.85307 48.3163 1.85307C48.7047 1.85307 48.9752 1.60107 48.9752 1.22207C48.9852 0.863074 48.6947 0.601074 48.3363 0.601074C47.9768 0.601074 47.6963 0.863074 47.6963 1.22207ZM47.8135 7.34588H48.8598V2.62988H47.8135V7.34588Z" fill="#343638"/>
<path d="M51.7651 7.34582H50.7188V0.46582H51.7651V7.34582Z" fill="#343638"/>
<path fill-rule="evenodd" clip-rule="evenodd" d="M56.1336 6.80274L56.2114 7.34574H57.1509C57.105 7.06474 57.084 6.69574 57.084 6.21974V4.48274C57.084 3.18174 56.463 2.53174 55.233 2.53174C54.593 2.53174 54.0509 2.66774 53.6146 2.93974L53.8283 3.62974C54.1857 3.39674 54.593 3.27974 55.0583 3.27974C55.7072 3.27974 56.0367 3.59074 56.0367 4.21174V4.29874C54.2925 4.29874 53.2852 4.90074 53.2852 6.06474C53.2852 6.86074 53.8862 7.45274 54.7288 7.45274C55.3199 7.45274 55.7851 7.23974 56.1046 6.80274H56.1336ZM54.3193 5.94758C54.3193 5.27858 54.9004 4.99658 56.0635 4.99658V5.72458C56.0635 6.27758 55.5693 6.68458 55.0362 6.68458C54.6199 6.68458 54.3193 6.44258 54.3193 5.94758Z" fill="#343638"/>
<path fill-rule="evenodd" clip-rule="evenodd" d="M59.8425 6.61782C60.162 7.17082 60.6552 7.45282 61.3232 7.45282C62.5242 7.45282 63.4068 6.38482 63.4068 4.92082C63.4068 3.50482 62.6121 2.53382 61.4779 2.53382C60.789 2.53382 60.2868 2.79582 59.9763 3.31982H59.9564V0.46582H58.9091V6.07482C58.9091 6.53982 58.8991 6.96782 58.8701 7.34582H59.7617L59.8216 6.61782H59.8425ZM59.957 4.60893C59.957 3.88093 60.5081 3.35693 61.1102 3.35693C61.856 3.35693 62.3412 4.00793 62.3422 4.95893C62.3422 5.97793 61.8759 6.61793 61.0922 6.61793C60.4522 6.61793 59.957 6.08393 59.957 5.43393V4.60893Z" fill="#343638"/>
<path d="M66.0004 7.34582H64.9551V0.46582H66.0004V7.34582Z" fill="#343638"/>
<path fill-rule="evenodd" clip-rule="evenodd" d="M68.5562 5.23995H71.6972C71.7271 5.11395 71.7361 4.94895 71.7321 4.76495C71.7321 3.41595 70.9753 2.52295 69.7743 2.52295C68.4394 2.52295 67.5469 3.60995 67.5469 5.05595C67.5469 6.50095 68.4185 7.43295 69.8921 7.43295C70.5021 7.43295 71.0253 7.33595 71.4705 7.14195L71.3078 6.41395C70.9304 6.55895 70.5041 6.63695 70.0389 6.63695C69.1663 6.63695 68.5772 6.13295 68.5562 5.23995ZM69.7008 3.25097C70.3697 3.25097 70.7381 3.76497 70.7381 4.49297H68.5566C68.6265 3.77497 69.0998 3.25097 69.7008 3.25097Z" fill="#343638"/>
<path fill-rule="evenodd" clip-rule="evenodd" d="M75.7705 5.02671C75.7705 6.42371 76.6621 7.45271 78.0379 7.45271C79.4436 7.45271 80.3841 6.42371 80.3841 4.94971C80.3841 3.51271 79.4715 2.53271 78.1167 2.53271C76.681 2.53271 75.7705 3.57071 75.7705 5.02671ZM76.8389 4.99683C76.8389 4.00683 77.3231 3.29883 78.0789 3.29883C78.8147 3.29883 79.2989 4.01683 79.2979 4.97683C79.2979 5.91883 78.8047 6.67583 78.0689 6.67583C77.3331 6.67583 76.8389 5.96783 76.8389 4.99683Z" fill="#343638"/>
<path d="M86.0092 7.34574H84.9638V4.63774C84.9638 3.80374 84.6444 3.38574 84.0144 3.38574C83.3944 3.38574 82.9671 3.91974 82.9671 4.54074V7.34574H81.9217V3.97774C81.9217 3.56074 81.9108 3.11374 81.8828 2.62874H82.8033L82.8522 3.35674H82.8812C83.1608 2.85274 83.7338 2.53174 84.3728 2.53174C85.3602 2.53174 86.0092 3.28874 86.0092 4.52074V7.34574Z" fill="#343638"/>
<path d="M92.8536 3.41608H91.7025V5.70608C91.7025 6.28908 91.9052 6.58008 92.3115 6.58008C92.4962 6.58008 92.652 6.56008 92.7768 6.53108L92.8057 7.32708C92.602 7.40508 92.3295 7.44408 91.993 7.44408C91.1684 7.44408 90.6761 6.98808 90.6761 5.79408V3.41608H89.9893V2.63008H90.6761V1.76608L91.7025 1.45508V2.62908H92.8536V3.41608Z" fill="#343638"/>
<path d="M98.3951 7.34582H97.3478V4.65782C97.3478 3.81382 97.0283 3.38682 96.3983 3.38682C95.8562 3.38682 95.353 3.75582 95.353 4.50282V7.34582H94.3057V0.46582H95.353V3.29882H95.3729C95.7024 2.78482 96.1776 2.53182 96.7877 2.53182C97.7851 2.53182 98.3951 3.30782 98.3951 4.54082V7.34582Z" fill="#343638"/>
<path fill-rule="evenodd" clip-rule="evenodd" d="M100.603 5.23995H103.743C103.772 5.11395 103.782 4.94895 103.778 4.76495C103.778 3.41595 103.021 2.52295 101.82 2.52295C100.485 2.52295 99.5928 3.60995 99.5928 5.05595C99.5928 6.50095 100.464 7.43295 101.938 7.43295C102.548 7.43295 103.072 7.33595 103.517 7.14195L103.354 6.41395C102.976 6.55895 102.551 6.63695 102.085 6.63695C101.212 6.63695 100.623 6.13295 100.603 5.23995ZM101.748 3.25098C102.417 3.25098 102.784 3.76498 102.784 4.49298H100.604C100.672 3.77498 101.146 3.25098 101.748 3.25098Z" fill="#343638"/>
</svg>
