<svg width="65" height="86" viewBox="0 0 65 86" fill="none" xmlns="http://www.w3.org/2000/svg">
<path d="M57.7351 49.8426C44.4436 81.41 49.8433 75.5949 46.105 83.0714C42.0225 87.0992 36.593 81.41 31.9828 81.41C28.3726 81.41 20.6685 87.5566 16.6145 83.0714C9.94066 75.6878 24.5063 88.0557 7.47656 46.1044C7.47656 31.6524 19.366 25.7518 31.9828 25.7518C44.5996 25.7518 57.7351 35.3906 57.7351 49.8426Z" fill="white"/>
<path d="M9.19543 2.53878L4.76309 10.1199L1.66211 23.0832V33.8477L2.88596 39.4514L6.21022 41.5354L11.1883 40.5837L16.0589 33.9543L21.5994 29.1218L17.7624 11.2193L10.8576 1.66089L9.19543 2.53878Z" fill="#EA8F51"/>
<path d="M55.5981 2.53878L60.0323 10.1199L63.1345 23.0832V33.8477L61.9102 39.4514L58.5928 41.5354L53.6043 40.5837L48.7317 33.9543L43.1973 29.1218L47.0275 11.2193L53.9353 1.66089L55.5981 2.53878Z" fill="#EA8F51"/>
<path d="M38.4032 69.1867H35.2088V66.1757C35.2066 65.5901 34.9607 65.029 34.5248 64.6149C34.0889 64.2007 33.4982 63.9671 32.8818 63.9651H31.9142C31.2978 63.9671 30.7072 64.2007 30.2712 64.6149C29.8353 65.029 29.5894 65.5901 29.5872 66.1757V69.1867H26.4178C25.8013 69.1887 25.2107 69.4223 24.7748 69.8365C24.3389 70.2506 24.093 70.8117 24.0908 71.3973V72.3165C24.093 72.9021 24.3389 73.4632 24.7748 73.8773C25.2107 74.2915 25.8013 74.525 26.4178 74.5271H29.5872V77.5381C29.5894 78.1237 29.8353 78.6848 30.2712 79.0989C30.7072 79.5131 31.2978 79.7466 31.9142 79.7487H32.8818C33.4982 79.7466 34.0889 79.5131 34.5248 79.0989C34.9607 78.6848 35.2066 78.1237 35.2088 77.5381V74.5271H38.3782C38.9947 74.525 39.5853 74.2915 40.0212 73.8773C40.4572 73.4632 40.703 72.9021 40.7052 72.3165V71.3973C40.7031 70.8157 40.4607 70.2582 40.0301 69.8448C39.5996 69.4313 39.0153 69.195 38.4032 69.1867Z" fill="#FF878A"/>
<path fill-rule="evenodd" clip-rule="evenodd" d="M31.495 62.3035L31.4994 62.3035L32.4709 62.3035C33.4171 62.3068 34.3237 62.6842 34.9928 63.3534C35.6619 64.0225 36.0393 64.929 36.0427 65.8752L36.0427 65.8797L36.0427 67.797H38.0029C38.9424 67.8104 39.8392 68.1924 40.5 68.8604C41.1608 69.5284 41.533 70.4292 41.5362 71.3689L41.5362 71.3733L41.5362 72.3402L41.5362 72.3447C41.5328 73.2909 41.1555 74.1975 40.4864 74.8666C39.8172 75.5357 38.9107 75.9131 37.9645 75.9165L37.96 75.9165H36.0427V77.8383C36.0393 78.7845 35.6619 79.691 34.9928 80.3601C34.3237 81.0293 33.4171 81.4066 32.4709 81.41L32.4664 81.41H31.4994L31.495 81.41C30.5487 81.4066 29.6422 81.0292 28.9731 80.3601C28.304 79.691 27.9266 78.7845 27.9232 77.8383L27.9232 77.8338V75.9165H26.0014C25.0552 75.9131 24.1487 75.5357 23.4796 74.8666C22.8104 74.1975 22.4331 73.2909 22.4297 72.3447L22.4297 72.3402V71.3688C22.4331 70.4226 22.8104 69.516 23.4796 68.8469C24.1487 68.1778 25.0552 67.8004 26.0014 67.797L26.0059 67.797L27.9232 67.797V65.8752C27.9266 64.929 28.304 64.0225 28.9731 63.3534C29.6422 62.6843 30.5487 62.3069 31.495 62.3035ZM31.5021 64.8043C31.2167 64.8058 30.9433 64.9199 30.7415 65.1217C30.5396 65.3236 30.4256 65.5969 30.4241 65.8823V70.2979H26.0086C25.7232 70.2994 25.4498 70.4134 25.2479 70.6153C25.0461 70.8171 24.932 71.0905 24.9305 71.3759V72.3376C24.932 72.623 25.0461 72.8964 25.2479 73.0982C25.4498 73.3001 25.7231 73.4141 26.0085 73.4156H30.4241V77.8312C30.4256 78.1166 30.5396 78.3899 30.7415 78.5918C30.9433 78.7936 31.2166 78.9076 31.5019 78.9092H32.464C32.7494 78.9076 33.0226 78.7936 33.2244 78.5918C33.4263 78.3899 33.5403 78.1166 33.5418 77.8312V73.4156H37.9574C38.2428 73.4141 38.5161 73.3001 38.718 73.0982C38.9199 72.8963 39.0339 72.6229 39.0354 72.3374V71.3759C39.0339 71.0924 38.9215 70.8208 38.7221 70.6192C38.524 70.419 38.2558 70.3038 37.9744 70.2979H33.5418V65.8823C33.5403 65.5969 33.4263 65.3236 33.2244 65.1217C33.0226 64.9199 32.7492 64.8058 32.4638 64.8043H31.5021Z" fill="#3D332B"/>
<path d="M54.1496 0.00796995C48.8592 0.00796995 44.4368 15.872 42.0536 26.5686C39.0039 25.0418 35.6341 24.2699 32.2261 24.3175H31.8494C28.6829 24.2734 25.5474 24.9474 22.677 26.2892C20.302 15.7077 15.8878 -0.000244141 10.6465 -0.000244141C5.40514 -0.000244141 0 18.9939 0 29.5754C0 33.3381 0.565085 36.3532 1.67887 38.5303C2.24705 39.7886 3.17047 40.8523 4.33492 41.5896C5.49937 42.327 6.85376 42.7058 8.23055 42.6791C11.0723 42.6791 12.8741 40.1734 14.9624 37.2651C16.5742 34.8433 18.521 32.6636 20.7443 30.7913C21.6791 34.9981 22.306 39.2678 22.6197 43.5664C22.7753 51.2561 19.8516 59.1758 17.2719 66.1671C14.5365 73.5611 12.3581 79.4187 14.815 82.902C16.0598 84.693 18.2956 85.5639 21.6615 85.5639C25.4829 85.5273 29.2078 84.3552 32.3653 82.1955C33.8968 83.4196 37.1398 85.5639 41.0954 85.5639C45.2557 85.5639 47.9829 84.5534 49.4488 82.4584C52.0777 78.7039 49.9156 72.6902 47.1885 65.0827C44.7889 58.4035 42.07 50.8371 42.2256 43.5582C42.5254 39.3765 43.1275 35.2223 44.0273 31.1282C46.1395 32.9523 48.0232 35.0268 49.6372 37.3062C51.8402 40.1898 53.732 42.6873 56.5656 42.6873C57.9423 42.714 59.2967 42.3352 60.4612 41.5979C61.6256 40.8605 62.5491 39.7968 63.1172 38.5385C64.231 36.3614 64.7961 33.3463 64.7961 29.5837C64.7879 19.0021 59.4237 0.00796995 54.1496 0.00796995ZM12.6447 35.6631C10.9413 38.0292 9.59821 39.8941 8.21417 39.8941C7.15771 39.8941 3.95557 39.8941 3.05472 33.2395C1.47412 21.5818 8.32882 3.53241 10.6301 2.84231C12.268 2.84231 16.3628 10.7538 20.0727 27.7105C16.674 30.0437 14.4546 33.1245 12.6447 35.6631ZM32.2587 79.205L30.1623 80.2649C27.5975 81.87 24.6433 82.7395 21.6206 82.7788C19.2947 82.7788 17.7714 82.2941 17.1081 81.3411C15.5439 79.0819 17.665 73.3228 19.9171 67.2269C22.4559 60.3588 25.6498 51.8065 25.4451 43.5746C25.3878 40.7403 24.5606 35.277 23.2748 29.1482C25.9268 27.7898 28.8722 27.1097 31.8494 27.1683H32.2752C35.4776 27.1035 38.6416 27.8765 41.4558 29.4111C40.3969 34.0635 39.6933 38.7902 39.351 43.5499C39.1872 51.3629 42.0045 59.1593 44.4859 66.1014C46.7462 72.3862 48.8755 78.326 47.0984 80.8893C46.2221 82.1462 44.1911 82.7788 41.0709 82.7788C38.718 82.6684 36.4561 81.8336 34.5929 80.3881L32.2587 79.205ZM61.725 33.1985C60.8242 39.8448 57.6302 39.8448 56.5656 39.8448C55.1488 39.8448 53.6419 37.8731 51.8975 35.5809C49.8841 32.6991 47.433 30.1515 44.6333 28.0309C48.3841 10.8442 52.5117 2.82588 54.0923 2.82588C56.4182 3.50776 63.3056 21.5654 61.725 33.1985Z" fill="#3D332B"/>
<path d="M48.186 50.6758C47.5116 50.7119 46.8775 50.9903 46.414 51.4537C45.9505 51.9172 45.6928 52.5305 45.6939 53.1676C45.6737 53.4875 45.723 53.8079 45.8389 54.1091C45.9548 54.4104 46.1348 54.6861 46.3678 54.9193C46.6008 55.1525 46.8819 55.3383 47.1938 55.4654C47.5057 55.5924 47.8419 55.6579 48.1816 55.6579C48.5213 55.6579 48.8575 55.5924 49.1694 55.4654C49.4813 55.3383 49.7624 55.1525 49.9954 54.9193C50.2284 54.6861 50.4084 54.4104 50.5243 54.1091C50.6402 53.8079 50.6896 53.4875 50.6694 53.1676V52.9184C50.6697 52.6154 50.6049 52.3153 50.4788 52.0365C50.3528 51.7578 50.1681 51.506 49.936 51.2963C49.7039 51.0867 49.4292 50.9237 49.1284 50.817C48.8276 50.7104 48.507 50.6623 48.186 50.6758Z" fill="#3D332B"/>
<path d="M17.4497 50.6758C16.7753 50.7119 16.1412 50.9903 15.6777 51.4537C15.2142 51.9172 14.9564 52.5305 14.9575 53.1676C14.9373 53.4875 14.9867 53.8079 15.1026 54.1091C15.2185 54.4104 15.3985 54.6861 15.6315 54.9193C15.8645 55.1525 16.1455 55.3383 16.4575 55.4654C16.7694 55.5924 17.1055 55.6579 17.4453 55.6579C17.785 55.6579 18.1212 55.5924 18.4331 55.4654C18.745 55.3383 19.0261 55.1525 19.2591 54.9193C19.4921 54.6861 19.672 54.4104 19.7879 54.1091C19.9038 53.8079 19.9532 53.4875 19.933 53.1676V52.9184C19.9334 52.6154 19.8685 52.3153 19.7425 52.0365C19.6165 51.7578 19.4318 51.506 19.1997 51.2963C18.9676 51.0867 18.6928 50.9237 18.3921 50.817C18.0913 50.7104 17.7707 50.6623 17.4497 50.6758Z" fill="#3D332B"/>
<path fill-rule="evenodd" clip-rule="evenodd" d="M5.81445 40.7987C5.81444 40.7982 5.81442 40.7979 7.01775 40.7515C8.22107 40.7051 8.22106 40.7049 8.22106 40.7048L8.22115 40.7072L8.22156 40.7174L8.22347 40.7617C8.22525 40.8017 8.22809 40.8624 8.23222 40.9428C8.2405 41.1037 8.25396 41.3431 8.27453 41.6524C8.31567 42.2711 8.38519 43.1687 8.49833 44.2754C8.72479 46.4906 9.1251 49.5345 9.81962 52.8517C11.2245 59.5619 13.7759 67.0948 18.2752 71.3257L16.6331 73.1029C11.5469 68.3201 8.88015 60.1216 7.4632 53.3538C6.7468 49.932 6.33528 46.8003 6.10263 44.5246C5.98622 43.3859 5.91437 42.4592 5.87153 41.815C5.85011 41.4929 5.83593 41.2412 5.82706 41.0688C5.82263 40.9826 5.81952 40.9162 5.81749 40.8706L5.81524 40.8182L5.81466 40.804L5.81445 40.7987Z" fill="#3D332B"/>
<path fill-rule="evenodd" clip-rule="evenodd" d="M56.4765 40.7048C56.4765 40.7049 56.4765 40.7051 57.7289 40.7251C58.9813 40.7451 58.9813 40.7454 58.9813 40.7459L58.9812 40.7512L58.9809 40.7655L58.9798 40.818C58.9787 40.8636 58.9769 40.93 58.9742 41.0162C58.9689 41.1886 58.9597 41.4401 58.9445 41.7621C58.9141 42.4059 58.8595 43.332 58.7625 44.4701C58.5687 46.7445 58.2048 49.8753 57.5232 53.2983C56.1755 60.0676 53.5304 68.2829 48.2279 73.1029L46.5205 71.3137C51.197 67.0628 53.7292 59.5365 55.0641 52.8319C55.7239 49.518 56.0775 46.4788 56.266 44.2674C56.3601 43.1627 56.4129 42.2669 56.442 41.6496C56.4566 41.341 56.4652 41.1022 56.4702 40.9418C56.4727 40.8616 56.4743 40.8011 56.4753 40.7613L56.4762 40.7172L56.4764 40.7071L56.4765 40.7048Z" fill="#3D332B"/>
<path d="M58.1678 4.30478L55.2566 0.830322C55.2566 0.830322 51.2687 3.04064 51.5159 5.76281C51.5159 5.76281 56.5726 12.704 58.9814 11.4864" fill="#3D332B"/>
<path d="M53.3706 17.9687C53.3706 17.9687 55.7809 20.5276 57.2373 17.9687C57.2373 17.9687 57.9272 14.8765 55.304 14.9538C52.6807 15.0311 51.2244 15.5877 53.3706 17.9687Z" fill="#3D332B"/>
<path d="M56.6958 34.814C56.6958 34.814 60.0826 35.6441 59.7947 31.809C59.7947 31.809 60.218 25.0604 55.7306 23.2591L50.9806 22.429C50.637 22.4514 50.3041 22.5561 50.0113 22.7339C49.7184 22.9116 49.4744 23.157 49.3006 23.4486C49.1269 23.7402 49.0286 24.069 49.0145 24.4065C49.0003 24.7439 49.0707 25.0795 49.2195 25.3841C49.2195 25.3841 51.3278 35.0381 56.6958 34.814Z" fill="#3D332B"/>
<path d="M6.628 4.30478L9.53919 0.830322C9.53919 0.830322 13.5271 3.04064 13.2799 5.76281C13.2799 5.76281 8.22317 12.704 5.81445 11.4864" fill="#3D332B"/>
<path d="M9.93703 34.5835C9.93703 34.5835 7.92845 37.1423 6.71479 34.5835C6.71479 34.5835 6.13988 31.4913 8.3259 31.5686C10.5119 31.6459 11.7256 32.1947 9.93703 34.5835Z" fill="#3D332B"/>
<path d="M8.69099 28.1685C8.69099 28.1685 5.56475 28.9986 5.83048 25.1635C5.83048 25.1635 5.43969 18.4149 9.58197 16.6135L13.9665 15.7834C14.2838 15.8059 14.591 15.9106 14.8614 16.0884C15.1317 16.2661 15.3569 16.5115 15.5173 16.8031C15.6777 17.0947 15.7684 17.4235 15.7814 17.7609C15.7945 18.0984 15.7295 18.434 15.5922 18.7386C15.5922 18.7386 13.6461 28.3926 8.69099 28.1685Z" fill="#3D332B"/>
</svg>
