<svg width="142" height="78" viewBox="0 0 142 78" fill="none" xmlns="http://www.w3.org/2000/svg">
<mask id="path-1-inside-1_627_7961" fill="white">
<path d="M141.451 38.5063C140.791 42.5353 139.226 46.3622 136.874 49.6989C134.522 53.0356 131.443 55.7953 127.87 57.7703C124.297 59.7453 120.322 60.8841 116.245 61.101C112.168 61.3179 108.095 60.6074 104.333 59.0227C102.998 58.4551 101.565 58.1569 100.115 58.1454C99.4813 58.1498 98.8493 58.2062 98.2251 58.3141L91.6629 59.6405C90.2606 59.9239 89.0228 58.6862 89.3063 57.2839L90.6327 50.7217C91.0158 48.6608 90.7688 46.5324 89.9241 44.614C88.3394 40.8514 87.6288 36.7785 87.8458 32.7016C88.0627 28.6247 89.2015 24.6502 91.1765 21.077C93.1514 17.5039 95.9111 14.4252 99.2479 12.0727C102.585 9.72028 106.411 8.15528 110.44 7.49553C114.67 6.80147 119.003 7.12426 123.083 8.4372C127.162 9.75013 130.87 12.0155 133.901 15.0459C136.931 18.0763 139.197 21.7846 140.51 25.8642C141.823 29.9437 142.145 34.2773 141.451 38.5063Z"/>
</mask>
<path d="M141.451 38.5063C140.791 42.5353 139.226 46.3622 136.874 49.6989C134.522 53.0356 131.443 55.7953 127.87 57.7703C124.297 59.7453 120.322 60.8841 116.245 61.101C112.168 61.3179 108.095 60.6074 104.333 59.0227C102.998 58.4551 101.565 58.1569 100.115 58.1454C99.4813 58.1498 98.8493 58.2062 98.2251 58.3141L91.6629 59.6405C90.2606 59.9239 89.0228 58.6862 89.3063 57.2839L90.6327 50.7217C91.0158 48.6608 90.7688 46.5324 89.9241 44.614C88.3394 40.8514 87.6288 36.7785 87.8458 32.7016C88.0627 28.6247 89.2015 24.6502 91.1765 21.077C93.1514 17.5039 95.9111 14.4252 99.2479 12.0727C102.585 9.72028 106.411 8.15528 110.44 7.49553C114.67 6.80147 119.003 7.12426 123.083 8.4372C127.162 9.75013 130.87 12.0155 133.901 15.0459C136.931 18.0763 139.197 21.7846 140.51 25.8642C141.823 29.9437 142.145 34.2773 141.451 38.5063Z" fill="white"/>
<path d="M141.451 38.5063L138.491 38.0205L138.491 38.0215L141.451 38.5063ZM104.333 59.0227L103.159 61.7834L103.168 61.7875L104.333 59.0227ZM100.115 58.1454L100.139 55.1455L100.116 55.1453L100.094 55.1454L100.115 58.1454ZM98.2251 58.3141L97.7143 55.3579L97.6724 55.3651L97.6308 55.3735L98.2251 58.3141ZM90.6327 50.7217L93.5732 51.316L93.5779 51.293L93.5822 51.2699L90.6327 50.7217ZM89.9241 44.614L87.1593 45.7784L87.1687 45.8008L87.1785 45.823L89.9241 44.614ZM110.44 7.49553L110.925 10.4561L110.926 10.4559L110.44 7.49553ZM138.491 38.0215C137.904 41.6028 136.513 45.0043 134.422 47.9703L139.326 51.4275C141.94 47.72 143.679 43.4678 144.412 38.9911L138.491 38.0215ZM134.422 47.9703C132.331 50.9362 129.595 53.3892 126.419 55.1447L129.321 60.3959C133.291 58.2015 136.712 55.1351 139.326 51.4275L134.422 47.9703ZM126.419 55.1447C123.242 56.9002 119.71 57.9124 116.086 58.1053L116.405 64.0968C120.935 63.8557 125.351 62.5904 129.321 60.3959L126.419 55.1447ZM116.086 58.1053C112.462 58.2981 108.842 57.6665 105.497 56.2579L103.168 61.7875C107.349 63.5483 111.875 64.3378 116.405 64.0968L116.086 58.1053ZM105.507 56.2621C103.809 55.5397 101.984 55.1602 100.139 55.1455L100.091 61.1453C101.145 61.1537 102.188 61.3705 103.159 61.7833L105.507 56.2621ZM100.094 55.1454C99.2962 55.151 98.5003 55.2221 97.7143 55.3579L98.7359 61.2703C99.1983 61.1904 99.6665 61.1486 100.136 61.1453L100.094 55.1454ZM97.6308 55.3735L91.0685 56.7L92.2573 62.581L98.8195 61.2546L97.6308 55.3735ZM92.2468 57.8783L93.5732 51.316L87.6922 50.1273L86.3658 56.6895L92.2468 57.8783ZM93.5822 51.2699C94.0755 48.6161 93.7575 45.8753 92.6697 43.405L87.1785 45.823C87.7802 47.1894 87.9561 48.7055 87.6832 50.1734L93.5822 51.2699ZM92.6889 43.4496C91.2803 40.1051 90.6487 36.4848 90.8415 32.861L84.85 32.5422C84.609 37.0721 85.3985 41.5977 87.1593 45.7784L92.6889 43.4496ZM90.8415 32.861C91.0343 29.2372 92.0466 25.7043 93.8021 22.5283L88.5508 19.6258C86.3564 23.596 85.091 28.0123 84.85 32.5422L90.8415 32.861ZM93.8021 22.5283C95.5576 19.3522 98.0106 16.6157 100.977 14.5246L97.5192 9.62084C93.8117 12.2347 90.7453 15.6555 88.5508 19.6258L93.8021 22.5283ZM100.977 14.5246C103.942 12.4336 107.344 11.0425 110.925 10.4561L109.956 4.53496C105.479 5.26803 101.227 7.00695 97.5192 9.62084L100.977 14.5246ZM110.926 10.4559C114.685 9.839 118.537 10.1259 122.164 11.2929L124.002 5.58145C119.469 4.1226 114.654 3.76394 109.955 4.53514L110.926 10.4559ZM122.164 11.2929C125.79 12.46 129.086 14.4736 131.78 17.1672L136.022 12.9246C132.655 9.5574 128.535 7.04029 124.002 5.58145L122.164 11.2929ZM131.78 17.1672C134.473 19.8608 136.487 23.1571 137.654 26.7833L143.365 24.9451C141.906 20.4122 139.389 16.2917 136.022 12.9246L131.78 17.1672ZM137.654 26.7833C138.821 30.4095 139.108 34.2614 138.491 38.0205L144.412 38.9922C145.183 34.2931 144.824 29.478 143.365 24.9451L137.654 26.7833ZM91.0685 56.7C91.7697 56.5582 92.3886 57.1771 92.2468 57.8783L86.3658 56.6895C85.6571 60.1953 88.7515 63.2896 92.2573 62.581L91.0685 56.7Z" fill="#3D332B" mask="url(#path-1-inside-1_627_7961)"/>
<path d="M64.5759 23.416L74.6831 31.7529C75.4235 32.3645 75.8419 33.2658 75.8419 34.2315V72.9546C75.8419 74.725 74.3934 76.1735 72.6231 76.1735H5.0265C3.25611 76.1735 1.80762 74.725 1.80762 72.9546V34.2315C1.80762 33.2658 2.22607 32.3645 2.96642 31.7529L13.0737 23.416" fill="white"/>
<path d="M64.5759 23.416L74.6831 31.7529C75.4235 32.3645 75.8419 33.2658 75.8419 34.2315V72.9546C75.8419 74.725 74.3934 76.1735 72.6231 76.1735H5.0265C3.25611 76.1735 1.80762 74.725 1.80762 72.9546V34.2315C1.80762 33.2658 2.22607 32.3645 2.96642 31.7529L13.0737 23.416" stroke="#3D332B" stroke-width="3" stroke-miterlimit="10" stroke-linecap="round" stroke-linejoin="round"/>
<path d="M13.0732 45.0469V3.7486C13.0732 2.84731 13.7814 2.13916 14.6827 2.13916H62.9659C63.8672 2.13916 64.5754 2.84731 64.5754 3.7486V45.0469" fill="white"/>
<path d="M13.0732 45.0469V3.7486C13.0732 2.84731 13.7814 2.13916 14.6827 2.13916H62.9659C63.8672 2.13916 64.5754 2.84731 64.5754 3.7486V45.0469" stroke="#3D332B" stroke-width="3" stroke-miterlimit="10" stroke-linecap="round" stroke-linejoin="round"/>
<path d="M73.8076 74.6392L38.8248 47.2036L3.80762 74.6392" fill="#FF878A"/>
<path d="M73.8076 74.6392L38.8248 47.2036L3.80762 74.6392" stroke="#3D332B" stroke-width="3" stroke-miterlimit="10" stroke-linecap="round" stroke-linejoin="round"/>
<path d="M30.166 53.9309L1.80762 39.1562" stroke="#3D332B" stroke-width="3" stroke-miterlimit="10" stroke-linecap="round" stroke-linejoin="round"/>
<path d="M75.8418 39.1562L47.4834 53.9309" stroke="#3D332B" stroke-width="3" stroke-miterlimit="10" stroke-linecap="round" stroke-linejoin="round"/>
<path d="M21.1211 35.9375H53.3099" stroke="#3D332B" stroke-width="3" stroke-miterlimit="10" stroke-linecap="round" stroke-linejoin="round"/>
<path d="M21.1211 24.6714H53.3099" stroke="#3D332B" stroke-width="3" stroke-miterlimit="10" stroke-linecap="round" stroke-linejoin="round"/>
<path d="M21.1211 13.4053H33.9966" stroke="#3D332B" stroke-width="3" stroke-miterlimit="10" stroke-linecap="round" stroke-linejoin="round"/>
<path d="M99.3076 28.1392C99.3076 28.9676 99.9792 29.6392 100.808 29.6392C101.636 29.6392 102.308 28.9676 102.308 28.1392H99.3076ZM108.308 28.1392C108.308 28.9676 108.979 29.6392 109.808 29.6392C110.636 29.6392 111.308 28.9676 111.308 28.1392H108.308ZM102.308 28.1392C102.308 26.0536 103.796 24.6392 105.308 24.6392V21.6392C101.849 21.6392 99.3076 24.7019 99.3076 28.1392H102.308ZM105.308 24.6392C106.82 24.6392 108.308 26.0536 108.308 28.1392H111.308C111.308 24.7019 108.766 21.6392 105.308 21.6392V24.6392Z" fill="#3D332B"/>
<path d="M117.308 28.1392C117.308 28.9676 117.979 29.6392 118.808 29.6392C119.636 29.6392 120.308 28.9676 120.308 28.1392H117.308ZM126.308 28.1392C126.308 28.9676 126.979 29.6392 127.808 29.6392C128.636 29.6392 129.308 28.9676 129.308 28.1392H126.308ZM120.308 28.1392C120.308 26.0536 121.796 24.6392 123.308 24.6392V21.6392C119.849 21.6392 117.308 24.7019 117.308 28.1392H120.308ZM123.308 24.6392C124.82 24.6392 126.308 26.0536 126.308 28.1392H129.308C129.308 24.7019 126.766 21.6392 123.308 21.6392V24.6392Z" fill="#3D332B"/>
<mask id="path-16-inside-2_627_7961" fill="white">
<path d="M127.808 39.6053C127.808 45.423 121.987 50.1392 114.808 50.1392C107.628 50.1392 101.808 45.423 101.808 39.6053C101.808 33.7876 107.628 34.1434 114.808 34.1434C121.987 34.1434 127.808 33.7876 127.808 39.6053Z"/>
</mask>
<path d="M127.808 39.6053C127.808 45.423 121.987 50.1392 114.808 50.1392C107.628 50.1392 101.808 45.423 101.808 39.6053C101.808 33.7876 107.628 34.1434 114.808 34.1434C121.987 34.1434 127.808 33.7876 127.808 39.6053Z" fill="#FF878A"/>
<path d="M124.808 39.6053C124.808 43.2074 120.951 47.1392 114.808 47.1392V53.1392C123.024 53.1392 130.808 47.6386 130.808 39.6053H124.808ZM114.808 47.1392C108.664 47.1392 104.808 43.2074 104.808 39.6053H98.8076C98.8076 47.6386 106.591 53.1392 114.808 53.1392V47.1392ZM104.808 39.6053C104.808 38.6655 105.032 38.3396 105.128 38.2248C105.255 38.0735 105.569 37.8136 106.401 37.588C108.259 37.0839 110.96 37.1434 114.808 37.1434V31.1434C111.475 31.1434 107.676 31.025 104.83 31.7974C103.309 32.2101 101.719 32.952 100.53 34.3703C99.3108 35.8249 98.8076 37.6362 98.8076 39.6053H104.808ZM114.808 37.1434C118.655 37.1434 121.356 37.0839 123.214 37.588C124.046 37.8136 124.36 38.0735 124.487 38.2248C124.583 38.3396 124.808 38.6655 124.808 39.6053H130.808C130.808 37.6362 130.304 35.8249 129.085 34.3703C127.896 32.952 126.307 32.2101 124.786 31.7974C121.939 31.025 118.14 31.1434 114.808 31.1434V37.1434Z" fill="#3D332B" mask="url(#path-16-inside-2_627_7961)"/>
</svg>
