<svg width="80" height="108" viewBox="0 0 80 108" fill="none" xmlns="http://www.w3.org/2000/svg">
<g clip-path="url(#clip0_627_8113)">
<rect x="13" y="22.9998" width="53" height="84" rx="13" fill="white"/>
<rect x="32" y="-0.000244141" width="16" height="15" rx="7.5" fill="#D6AD8D"/>
<rect x="25" y="13.9998" width="29" height="15" rx="7.5" fill="white"/>
<path d="M51.0932 108H28.8729C20.1604 108 13.1025 100.937 13.1025 92.2926V35.6523C13.1025 26.9747 20.1941 19.9451 28.8729 19.9451H51.0932C59.8058 19.9451 66.8636 27.0083 66.8636 35.6523V92.259C66.8974 100.937 59.8058 108 51.0932 108ZM28.8729 23.443C22.119 23.443 16.6146 28.9254 16.6146 35.6523V92.259C16.6146 99.0195 22.119 104.502 28.9067 104.502H51.127C57.9147 104.502 63.4191 99.0195 63.4191 92.259V35.6523C63.4191 28.8918 57.9147 23.4094 51.127 23.4094H28.8729V23.443Z" fill="#3D332B"/>
<path d="M46.7369 16.3461H33.2629C32.2835 16.3461 31.5068 15.5725 31.5068 14.5971V1.74874C31.5068 0.773347 32.2835 -0.000244141 33.2629 -0.000244141H46.7369C47.7162 -0.000244141 48.4929 0.773347 48.4929 1.74874V14.5971C48.4929 15.5388 47.6824 16.3461 46.7369 16.3461ZM35.0189 12.8481H44.9809V3.49773H35.0189V12.8481Z" fill="#3D332B"/>
<path d="M25.9689 23.7459C25.5637 23.7459 25.1922 23.6113 24.8545 23.3423C24.4493 23.0059 24.2129 22.5014 24.2129 21.9969V18.5998C24.2129 15.4045 26.8131 12.8147 30.0213 12.8147H49.979C53.1871 12.8147 55.7874 15.4045 55.7874 18.5998V21.9969C55.7874 22.535 55.551 23.0396 55.1458 23.3423C54.7405 23.6786 54.2002 23.8131 53.6599 23.6786C52.8157 23.5104 51.9377 23.4095 51.0934 23.4095H28.8731C28.0288 23.4095 27.1508 23.5104 26.3066 23.6786C26.2053 23.7459 26.0702 23.7459 25.9689 23.7459ZM30.0213 16.3463C28.7718 16.3463 27.7249 17.3553 27.7249 18.6334V20.0125C28.1302 19.9788 28.5016 19.9788 28.9069 19.9788H51.1272C51.4987 19.9788 51.9039 19.9788 52.3091 20.0125V18.6334C52.3091 17.389 51.2961 16.3463 50.0128 16.3463H30.0213Z" fill="#3D332B"/>
<path d="M65.1414 85.3975H14.8586C13.8792 85.3975 13.1025 84.6239 13.1025 83.6485V47.7942C13.1025 46.8188 13.8792 46.0452 14.8586 46.0452H65.1414C66.1207 46.0452 66.8974 46.8188 66.8974 47.7942V83.6821C66.8974 84.6239 66.0869 85.3975 65.1414 85.3975ZM16.6146 81.8995H63.3854V49.5096H16.6146V81.8995Z" fill="#3D332B"/>
<path d="M21.005 63.1651C20.0257 63.1651 19.249 62.3915 19.249 61.4161V47.7942C19.249 46.8188 20.0257 46.0452 21.005 46.0452C21.9844 46.0452 22.7611 46.8188 22.7611 47.7942V61.4161C22.7611 62.3579 21.9844 63.1651 21.005 63.1651Z" fill="#3D332B"/>
<path d="M58.9611 85.3975C57.9818 85.3975 57.2051 84.6239 57.2051 83.6485V70.0266C57.2051 69.0512 57.9818 68.2776 58.9611 68.2776C59.9404 68.2776 60.7171 69.0512 60.7171 70.0266V83.6485C60.7171 84.6239 59.9404 85.3975 58.9611 85.3975Z" fill="#3D332B"/>
<path d="M48.6747 61.9395L44.0602 61.9395L44.0602 57.3612C44.0571 56.4707 43.7019 55.6175 43.0722 54.9878C42.4425 54.3581 41.5893 54.0029 40.6988 53.9998L39.3012 53.9998C38.4106 54.0029 37.5575 54.3581 36.9278 54.9878C36.2981 55.6175 35.9429 56.4707 35.9398 57.3612L35.9398 61.9395L31.3614 61.9395C30.4709 61.9427 29.6177 62.2979 28.988 62.9276C28.3583 63.5573 28.0032 64.4104 28 65.301L28 66.6985C28.0032 67.5891 28.3583 68.4422 28.988 69.0719C29.6177 69.7017 30.4709 70.0568 31.3614 70.06L35.9398 70.06L35.9398 74.6383C35.9429 75.5289 36.2981 76.382 36.9278 77.0117C37.5575 77.6414 38.4106 77.9966 39.3012 77.9998L40.6988 77.9998C41.5893 77.9966 42.4425 77.6414 43.0722 77.0117C43.7019 76.382 44.0571 75.5289 44.0602 74.6383L44.0602 70.06L48.6385 70.06C49.5291 70.0568 50.3823 69.7017 51.012 69.0719C51.6417 68.4422 51.9968 67.5891 52 66.6985L52 65.301C51.9969 64.4166 51.6467 63.5689 51.0248 62.9402C50.4029 62.3115 49.5589 61.9521 48.6747 61.9395Z" fill="#FF878A" stroke="#3D332B" stroke-width="2" stroke-miterlimit="10"/>
</g>
<defs>
<clipPath id="clip0_627_8113">
<rect width="80" height="108" fill="white" transform="translate(0 -0.000244141)"/>
</clipPath>
</defs>
</svg>
