<svg width="107" height="107" viewBox="0 0 107 107" fill="none" xmlns="http://www.w3.org/2000/svg">
<circle cx="53.5" cy="53.5" r="53.5" fill="#FFD31A"/>
<g clip-path="url(#clip0_0_1991)">
<path d="M43.5899 71.8139H63.4103C63.5675 71.8139 63.705 71.6961 63.7246 71.5391C63.7836 71.1269 63.8032 70.695 63.8032 70.2632C63.8032 68.9284 63.2728 67.3581 62.1924 65.5915C61.3478 64.1979 60.1888 62.6865 58.7155 61.0769C56.2404 58.3681 53.726 56.3071 53.6867 56.2875C53.5689 56.1893 53.3921 56.1893 53.2742 56.2875C53.2546 56.3071 50.7402 58.3681 48.2454 61.0769C46.7918 62.6865 45.6132 64.1979 44.7685 65.5915C43.7077 67.3581 43.1577 68.9284 43.1577 70.2632C43.1577 70.695 43.1774 71.1269 43.2363 71.5391C43.2952 71.6961 43.4327 71.8139 43.5899 71.8139Z" fill="#47494B"/>
<path d="M71.4053 73.7963H69.991C70.1678 72.8541 70.2463 71.8727 70.2463 70.8912C70.2463 68.2217 68.9695 64.9045 66.4355 61.0376C64.9033 58.7017 62.9192 56.1696 60.562 53.5001C62.9389 50.8306 64.9033 48.2985 66.4355 45.9626C68.9302 42.0957 70.2267 38.7785 70.2267 36.1089C70.2267 35.1275 70.1481 34.1461 69.9713 33.2039H71.4053C72.3679 33.2039 73.2715 32.8309 73.959 32.1439C74.6465 31.4569 75.0198 30.554 75.0198 29.5922C75.0198 27.6097 73.409 25.9805 71.4053 25.9805H35.6145C34.652 25.9805 33.7484 26.3534 33.0609 27.0404C32.3733 27.7274 32.0001 28.65 32.0001 29.6118C32.0001 31.5943 33.6109 33.2235 35.6145 33.2235H37.0289C36.8521 34.1657 36.7735 35.1471 36.7735 36.1286C36.7735 38.7981 38.0504 42.1154 40.5844 45.9823C42.1166 48.3181 44.1006 50.8502 46.4579 53.5197C44.081 56.1892 42.1166 58.7214 40.5844 61.0572C38.0504 64.9241 36.7735 68.2217 36.7735 70.8912C36.7735 71.8727 36.8521 72.8541 37.0289 73.7963H35.5949C34.6324 73.7963 33.7288 74.1693 33.0412 74.8563C32.3537 75.5433 31.9805 76.4462 31.9805 77.408C31.9805 79.3905 33.5912 81.0197 35.5949 81.0197H71.3857C72.3482 81.0197 73.2518 80.6468 73.9394 79.9598C74.6269 79.2728 75.0001 78.3698 75.0001 77.408C75.0001 75.4059 73.3893 73.7963 71.4053 73.7963ZM50.2491 54.7171C50.8973 54.0104 50.8973 52.9701 50.2491 52.2635C47.5186 49.2995 45.2792 46.5122 43.6292 43.9801C41.5076 40.761 40.4076 38.0326 40.4076 36.1089C40.4076 35.1275 40.5255 34.1461 40.7415 33.2039H66.298C66.514 34.1461 66.6319 35.1275 66.6319 36.1089C66.6319 38.0326 65.5122 40.761 63.4103 43.9605C61.7603 46.4926 59.5209 49.2799 56.7904 52.2635C56.1422 52.9701 56.1422 54.0104 56.7904 54.7171C59.5209 57.7007 61.7603 60.488 63.4103 63.0201C65.5122 66.2392 66.6319 68.948 66.6319 70.8912C66.6319 71.8727 66.514 72.8541 66.298 73.7963H40.7219C40.5058 72.8541 40.388 71.8727 40.388 70.8912C40.388 68.9676 41.5076 66.2392 43.6095 63.0397C45.2792 60.488 47.5186 57.7007 50.2491 54.7171Z" fill="#47494B"/>
<path d="M53.5098 50.7913C53.5688 50.7913 53.6277 50.7717 53.667 50.752C53.8241 50.6539 57.4779 48.4751 59.5601 45.1186C59.619 45.0204 59.619 44.9026 59.5601 44.8045C59.5012 44.7063 59.4029 44.6475 59.2851 44.6475H47.715C47.5971 44.6475 47.4989 44.7063 47.44 44.8045C47.381 44.9026 47.381 45.0204 47.44 45.1186C49.5222 48.4751 53.1759 50.6539 53.3331 50.752C53.392 50.7717 53.4509 50.7913 53.5098 50.7913Z" fill="#47494B"/>
</g>
<defs>
<clipPath id="clip0_0_1991">
<rect width="43" height="55" fill="white" transform="translate(32 26)"/>
</clipPath>
</defs>
</svg>
