<svg width="143" height="84" viewBox="0 0 143 84" fill="none" xmlns="http://www.w3.org/2000/svg">
<path d="M20.3423 62.4883H23.6524V74.6943H20.6182V73.0738C18.8482 74.338 16.607 74.9702 13.8945 74.9702C11.7108 74.9702 9.67646 74.4875 7.79155 73.522C5.92962 72.5566 4.43547 71.1544 3.30912 69.3154C2.20576 67.4535 1.65407 65.2583 1.65407 62.7297C1.65407 60.3391 2.20576 58.2013 3.30912 56.3164C4.43547 54.4315 5.97559 52.9603 7.92947 51.9029C9.90633 50.8226 12.1246 50.2824 14.5841 50.2824C16.515 50.2824 18.262 50.6042 19.8251 51.2478C21.4112 51.8685 22.7559 52.7879 23.8593 54.0062L21.7215 56.144C19.7907 54.2821 17.4575 53.3511 14.7221 53.3511C12.8831 53.3511 11.2281 53.7534 9.75692 54.5579C8.30875 55.3624 7.1709 56.4773 6.34338 57.9025C5.51585 59.3277 5.10209 60.9367 5.10209 62.7297C5.10209 64.6376 5.51585 66.2927 6.34338 67.6949C7.19389 69.0971 8.30875 70.1659 9.68796 70.9015C11.0672 71.6141 12.5613 71.9704 14.1704 71.9704C15.2967 71.9704 16.3886 71.7865 17.446 71.4187C18.5264 71.0279 19.4918 70.4648 20.3423 69.7292V62.4883ZM38.0121 72.0049C40.1958 72.0049 41.9543 71.2693 43.2876 69.7981L45.0805 71.9359C44.276 72.9014 43.2531 73.6369 42.0118 74.1427C40.7935 74.6484 39.4258 74.9012 37.9086 74.9012C35.9778 74.9012 34.2652 74.5104 32.7711 73.7289C31.277 72.9244 30.1161 71.8095 29.2886 70.3843C28.4841 68.9591 28.0818 67.3501 28.0818 65.5571C28.0818 63.7871 28.4726 62.1895 29.2541 60.7643C30.0587 59.3392 31.1505 58.2358 32.5297 57.4542C33.9319 56.6497 35.5065 56.2474 37.2535 56.2474C38.9086 56.2474 40.4142 56.6267 41.7704 57.3853C43.1266 58.1209 44.207 59.1668 45.0116 60.523C45.8161 61.8792 46.2299 63.4423 46.2528 65.2123L31.7367 68.0397C32.1964 69.3039 32.9665 70.2809 34.0469 70.9705C35.1502 71.6601 36.472 72.0049 38.0121 72.0049ZM37.2535 59.0403C36.1042 59.0403 35.0698 59.3047 34.1503 59.8334C33.2538 60.3621 32.5527 61.1091 32.047 62.0746C31.5413 63.017 31.2884 64.1204 31.2884 65.3847V65.7295L42.9772 63.5228C42.6784 62.1895 42.0118 61.1091 40.9774 60.2816C39.943 59.4541 38.7017 59.0403 37.2535 59.0403ZM60.5037 73.6255C60.0209 74.0392 59.4233 74.361 58.7107 74.5909C57.9981 74.7978 57.2625 74.9012 56.504 74.9012C54.665 74.9012 53.2398 74.407 52.2284 73.4186C51.217 72.4301 50.7113 71.0164 50.7113 69.1775V52.4201H54.0214V56.4198H59.2624V59.1438H54.0214V69.0396C54.0214 70.028 54.2628 70.7866 54.7455 71.3153C55.2512 71.844 55.9638 72.1083 56.8833 72.1083C57.8947 72.1083 58.7567 71.821 59.4693 71.2463L60.5037 73.6255ZM109.437 50.5582L98.8516 74.6943H95.438L84.8181 50.5582H88.542L97.231 70.3843L105.989 50.5582H109.437ZM118.892 72.0049C121.076 72.0049 122.835 71.2693 124.168 69.7981L125.961 71.9359C125.156 72.9014 124.133 73.6369 122.892 74.1427C121.674 74.6484 120.306 74.9012 118.789 74.9012C116.858 74.9012 115.146 74.5104 113.651 73.7289C112.157 72.9244 110.996 71.8095 110.169 70.3843C109.364 68.9591 108.962 67.3501 108.962 65.5571C108.962 63.7871 109.353 62.1895 110.134 60.7643C110.939 59.3392 112.031 58.2358 113.41 57.4542C114.812 56.6497 116.387 56.2474 118.134 56.2474C119.789 56.2474 121.294 56.6267 122.651 57.3853C124.007 58.1209 125.087 59.1668 125.892 60.523C126.696 61.8792 127.11 63.4423 127.133 65.2123L112.617 68.0397C113.077 69.3039 113.847 70.2809 114.927 70.9705C116.031 71.6601 117.352 72.0049 118.892 72.0049ZM118.134 59.0403C116.984 59.0403 115.95 59.3047 115.031 59.8334C114.134 60.3621 113.433 61.1091 112.927 62.0746C112.422 63.017 112.169 64.1204 112.169 65.3847V65.7295L123.858 63.5228C123.559 62.1895 122.892 61.1091 121.858 60.2816C120.823 59.4541 119.582 59.0403 118.134 59.0403ZM141.384 73.6255C140.901 74.0392 140.304 74.361 139.591 74.5909C138.878 74.7978 138.143 74.9012 137.384 74.9012C135.545 74.9012 134.12 74.407 133.109 73.4186C132.097 72.4301 131.592 71.0164 131.592 69.1775V52.4201H134.902V56.4198H140.143V59.1438H134.902V69.0396C134.902 70.028 135.143 70.7866 135.626 71.3153C136.131 71.844 136.844 72.1083 137.764 72.1083C138.775 72.1083 139.637 71.821 140.35 71.2463L141.384 73.6255Z" fill="#3D332B"/>
<path d="M81.7273 56.4198V74.6943H78.5551V71.798C77.8195 72.8094 76.8886 73.5795 75.7622 74.1082C74.6359 74.6369 73.3946 74.9012 72.0384 74.9012C70.2684 74.9012 68.6823 74.5104 67.2801 73.7289C65.8779 72.9473 64.7745 71.8555 63.97 70.4533C63.1885 69.0281 62.7977 67.396 62.7977 65.5571C62.7977 63.7181 63.1885 62.0976 63.97 60.6954C64.7745 59.2932 65.8779 58.2013 67.2801 57.4198C68.6823 56.6382 70.2684 56.2474 72.0384 56.2474C73.3486 56.2474 74.5554 56.5003 75.6588 57.006C76.7622 57.4887 77.6816 58.2128 78.4172 59.1783V56.4198H81.7273ZM72.3142 72.0049C73.4635 72.0049 74.5094 71.7405 75.4519 71.2118C76.3944 70.6602 77.1299 69.9016 77.6586 68.9361C78.1873 67.9477 78.4517 66.8214 78.4517 65.5571C78.4517 64.2928 78.1873 63.178 77.6586 62.2125C77.1299 61.2241 76.3944 60.4655 75.4519 59.9368C74.5094 59.4081 73.4635 59.1438 72.3142 59.1438C71.1419 59.1438 70.0845 59.4081 69.142 59.9368C68.2226 60.4655 67.487 61.2241 66.9353 62.2125C66.4066 63.178 66.1423 64.2928 66.1423 65.5571C66.1423 66.8214 66.4066 67.9477 66.9353 68.9361C67.487 69.9016 68.2226 70.6602 69.142 71.2118C70.0845 71.7405 71.1419 72.0049 72.3142 72.0049Z" fill="#EA8F51"/>
<path d="M59.8621 1.24656L57.4927 5.33113L55.835 12.3156V18.1153L56.4892 21.1346L58.2663 22.2574L60.9274 21.7446L63.5311 18.1728L66.4929 15.5691L64.4417 5.92348L60.7506 0.77356L59.8621 1.24656Z" fill="#EA8F51"/>
<path d="M85.0639 1.24656L87.4333 5.33113L89.091 12.3156V18.1153L88.4368 21.1346L86.6641 22.2574L83.9985 21.7446L81.3948 18.1728L78.4375 15.5691L80.4842 5.92348L84.1754 0.77356L85.0639 1.24656Z" fill="#EA8F51"/>
<path d="M75.5153 37.181H73.8223V35.5011C73.8211 35.1744 73.6908 34.8614 73.4597 34.6303C73.2287 34.3993 72.9157 34.269 72.5889 34.2678H72.0761C71.7494 34.269 71.4364 34.3993 71.2053 34.6303C70.9743 34.8614 70.844 35.1744 70.8428 35.5011V37.181H69.163C68.8363 37.1821 68.5232 37.3124 68.2922 37.5435C68.0612 37.7745 67.9309 38.0875 67.9297 38.4143V38.9271C67.9309 39.2538 68.0612 39.5668 68.2922 39.7979C68.5232 40.0289 68.8363 40.1592 69.163 40.1604H70.8428V41.8402C70.844 42.1669 70.9743 42.48 71.2053 42.711C71.4364 42.9421 71.7494 43.0724 72.0761 43.0735H72.5889C72.9157 43.0724 73.2287 42.9421 73.4597 42.711C73.6908 42.48 73.8211 42.1669 73.8223 41.8402V40.1604H75.5021C75.8288 40.1592 76.1418 40.0289 76.3729 39.7979C76.6039 39.5668 76.7342 39.2538 76.7354 38.9271V38.4143C76.7343 38.0898 76.6058 37.7788 76.3776 37.5481C76.1494 37.3174 75.8398 37.1856 75.5153 37.181Z" fill="#FF878A" stroke="#3D332B" stroke-width="1.32616" stroke-miterlimit="10"/>
<path d="M84.0919 0.0044198C81.2362 0.0044198 78.8491 8.54048 77.5627 14.296C75.9166 13.4745 74.0977 13.0592 72.2581 13.0848H72.0548C70.3456 13.061 68.6531 13.4237 67.1037 14.1457C65.8218 8.45207 63.4391 0 60.61 0C57.7808 0 54.8633 10.2203 54.8633 15.9139C54.8633 17.9385 55.1683 19.5609 55.7695 20.7323C56.0762 21.4094 56.5746 21.9817 57.2032 22.3785C57.8317 22.7752 58.5628 22.9791 59.3059 22.9647C60.8398 22.9647 61.8124 21.6164 62.9396 20.0516C63.8096 18.7484 64.8604 17.5756 66.0605 16.5682C66.5651 18.8317 66.9035 21.1292 67.0728 23.4421C67.1568 27.5797 65.5787 31.8411 64.1862 35.603C62.7097 39.5815 61.5339 42.7333 62.86 44.6076C63.532 45.5713 64.7388 46.0399 66.5556 46.0399C68.6183 46.0203 70.6289 45.3895 72.3332 44.2275C73.1599 44.8861 74.9104 46.0399 77.0455 46.0399C79.2912 46.0399 80.7632 45.4962 81.5545 44.3689C82.9735 42.3488 81.8065 39.1129 80.3344 35.0195C79.0392 31.4256 77.5716 27.3543 77.6556 23.4377C77.8174 21.1877 78.1424 18.9524 78.6281 16.7494C79.7682 17.7309 80.785 18.8472 81.6562 20.0737C82.8453 21.6253 83.8664 22.9691 85.3959 22.9691C86.1391 22.9835 86.8702 22.7797 87.4987 22.3829C88.1272 21.9861 88.6257 21.4138 88.9324 20.7367C89.5336 19.5653 89.8386 17.943 89.8386 15.9184C89.8342 10.2247 86.9387 0.0044198 84.0919 0.0044198ZM61.6886 19.1896C60.7691 20.4627 60.0442 21.4661 59.2971 21.4661C58.7268 21.4661 56.9984 21.4661 56.5121 17.8855C55.659 11.6128 59.359 1.90083 60.6011 1.52951C61.4852 1.52951 63.6955 5.78648 65.698 14.9105C63.8635 16.1659 62.6655 17.8236 61.6886 19.1896ZM72.2757 42.6184L71.1441 43.1886C69.7597 44.0523 68.1651 44.5202 66.5335 44.5413C65.2781 44.5413 64.4558 44.2805 64.0978 43.7677C63.2535 42.5521 64.3984 39.4533 65.614 36.1733C66.9844 32.4777 68.7084 27.8759 68.5979 23.4465C68.5669 21.9214 68.1205 18.9818 67.4264 15.6841C68.8579 14.9531 70.4478 14.5872 72.0548 14.6187H72.2846C74.0132 14.5838 75.7211 14.9998 77.24 15.8255C76.6685 18.3289 76.2887 20.8722 76.104 23.4333C76.0156 27.6372 77.5362 31.8323 78.8756 35.5676C80.0957 38.9494 81.245 42.1454 80.2858 43.5246C79.8128 44.201 78.7165 44.5413 77.0323 44.5413C75.7623 44.4819 74.5414 44.0327 73.5356 43.255L72.2757 42.6184ZM88.1809 17.8634C87.6946 21.4396 85.9706 21.4396 85.3959 21.4396C84.6312 21.4396 83.8178 20.3787 82.8762 19.1453C81.7895 17.5947 80.4664 16.2239 78.9552 15.0829C80.9798 5.83511 83.2078 1.52066 84.0609 1.52066C85.3164 1.88757 89.034 11.6039 88.1809 17.8634Z" fill="#3D332B"/>
<path d="M81.0188 27.1998C80.6803 27.219 80.362 27.3672 80.1293 27.6138C79.8966 27.8605 79.7673 28.1869 79.7678 28.5259C79.7577 28.6962 79.7825 28.8667 79.8407 29.027C79.8988 29.1873 79.9892 29.3341 80.1061 29.4582C80.2231 29.5823 80.3642 29.6812 80.5208 29.7488C80.6773 29.8164 80.8461 29.8513 81.0166 29.8513C81.1872 29.8513 81.3559 29.8164 81.5125 29.7488C81.6691 29.6812 81.8102 29.5823 81.9271 29.4582C82.0441 29.3341 82.1344 29.1873 82.1926 29.027C82.2508 28.8667 82.2756 28.6962 82.2654 28.5259V28.3933C82.2656 28.232 82.2331 28.0724 82.1698 27.924C82.1065 27.7756 82.0138 27.6416 81.8973 27.53C81.7808 27.4185 81.6429 27.3317 81.4919 27.2749C81.3409 27.2182 81.18 27.1926 81.0188 27.1998Z" fill="#3D332B"/>
<path d="M64.4427 27.1998C64.1041 27.219 63.7858 27.3672 63.5532 27.6138C63.3205 27.8605 63.1911 28.1869 63.1917 28.5259C63.1815 28.6962 63.2063 28.8667 63.2645 29.027C63.3227 29.1873 63.413 29.3341 63.53 29.4582C63.6469 29.5823 63.788 29.6812 63.9446 29.7488C64.1012 29.8164 64.2699 29.8513 64.4405 29.8513C64.611 29.8513 64.7798 29.8164 64.9363 29.7488C65.0929 29.6812 65.234 29.5823 65.351 29.4582C65.4679 29.3341 65.5583 29.1873 65.6164 29.027C65.6746 28.8667 65.6994 28.6962 65.6893 28.5259V28.3933C65.6894 28.232 65.6569 28.0724 65.5936 27.924C65.5304 27.7756 65.4377 27.6416 65.3211 27.53C65.2046 27.4185 65.0667 27.3317 64.9157 27.2749C64.7647 27.2182 64.6038 27.1926 64.4427 27.1998Z" fill="#3D332B"/>
<path d="M58.5977 21.7136C58.5977 21.7136 59.0662 33.9674 64.3444 38.8874" stroke="#3D332B" stroke-width="1.32616" stroke-miterlimit="10"/>
<path d="M86.0889 21.7446C86.0889 21.7446 85.89 33.9011 80.6074 38.8212" stroke="#3D332B" stroke-width="1.32616" stroke-miterlimit="10"/>
<path d="M86.3237 2.3117L84.7102 0.331299C84.7102 0.331299 82.4999 1.59115 82.637 3.14276C82.637 3.14276 85.4396 7.09914 86.7746 6.40512" fill="#3D332B"/>
<path d="M83.6313 9.83127C83.6313 9.83127 84.8823 11.2945 85.6382 9.83127C85.6382 9.83127 85.9963 8.06306 84.6347 8.10726C83.2732 8.15147 82.5173 8.46975 83.6313 9.83127Z" fill="#3D332B"/>
<path d="M85.5807 18.6899C85.5807 18.6899 87.3489 19.132 87.1986 17.0897C87.1986 17.0897 87.4196 13.4958 85.0767 12.5365L82.5968 12.0945C82.4174 12.1065 82.2436 12.1622 82.0907 12.2569C81.9378 12.3515 81.8104 12.4822 81.7197 12.6375C81.6289 12.7927 81.5776 12.9679 81.5703 13.1476C81.5629 13.3272 81.5996 13.506 81.6773 13.6682C81.6773 13.6682 82.778 18.8093 85.5807 18.6899Z" fill="#3D332B"/>
<path d="M58.3943 2.3117L60.0077 0.331299C60.0077 0.331299 62.218 1.59115 62.081 3.14276C62.081 3.14276 59.2784 7.09914 57.9434 6.40512" fill="#3D332B"/>
<path d="M60.4772 18.5088C60.4772 18.5088 59.2262 19.972 58.4703 18.5088C58.4703 18.5088 58.1122 16.7405 59.4737 16.7848C60.8353 16.829 61.5912 17.1428 60.4772 18.5088Z" fill="#3D332B"/>
<path d="M59.5703 15.1492C59.5703 15.1492 57.8021 15.5912 57.9524 13.5489C57.9524 13.5489 57.7314 9.95502 60.0743 8.99576L62.5542 8.55371C62.7336 8.56568 62.9074 8.62143 63.0603 8.71609C63.2132 8.81075 63.3406 8.94143 63.4313 9.0967C63.522 9.25197 63.5733 9.42711 63.5807 9.60679C63.5881 9.78647 63.5513 9.96523 63.4737 10.1274C63.4737 10.1274 62.373 15.2685 59.5703 15.1492Z" fill="#3D332B"/>
</svg>
